<svg id="Layer_1" data-name="Layer 1" xmlns="http://www.w3.org/2000/svg" viewBox="0 0 30 30"><path d="M8.09,28.27H5.64a.6.6,0,0,1-.6-.6V2.33a.6.6,0,0,1,.6-.6H8a.6.6,0,0,1,.6.57l.08,1.79C10.34,3,14,1.44,17.38,4.8A5,5,0,0,0,21.1,6.6a4.27,4.27,0,0,0,2.81-1.33A.6.6,0,0,1,25,5.66v9.5a.58.58,0,0,1-.14.39,5.49,5.49,0,0,1-3.66,1.76,6.2,6.2,0,0,1-4.63-2.16c-3.31-3.31-6.94-.84-7.84-.14V27.67A.6.6,0,0,1,8.09,28.27Zm-1.85-1.2H7.5V5.24L7.4,2.93H6.24Zm6.59-14.8a6.3,6.3,0,0,1,4.55,2,5.07,5.07,0,0,0,3.73,1.81,4.16,4.16,0,0,0,2.65-1.19v-8a5.13,5.13,0,0,1-2.6.86,6.25,6.25,0,0,1-4.63-2.15c-3-3-6.22-1.28-7.49-.4.78.91,1.73,3.1.2,8A7.7,7.7,0,0,1,12.83,12.27ZM8.69,7.33v3.09A7.82,7.82,0,0,0,8.69,7.33Z"/></svg>