<svg id="Layer_1" data-name="Layer 1" xmlns="http://www.w3.org/2000/svg" viewBox="0 0 30 30"><defs><style>.cls-1{fill:#231f20;}</style></defs><path class="cls-1" d="M13.92,25.82a.58.58,0,0,1-.43-.18L4.07,16a.6.6,0,0,1,0-.85L15.13,4.35a.59.59,0,0,1,.42-.17h10a.61.61,0,0,1,.44.19.6.6,0,0,1,.16.44l-.53,9.63a.57.57,0,0,1-.18.39l-11,10.82A.59.59,0,0,1,13.92,25.82ZM5.35,15.6l8.58,8.77L24.38,14.14l.49-8.76H15.79Z"/><path class="cls-1" d="M20.77,10.94a2,2,0,1,1,2-2A2,2,0,0,1,20.77,10.94Zm0-2.82a.81.81,0,1,0,.81.81A.81.81,0,0,0,20.77,8.12Z"/></svg>