<svg id="Layer_1" data-name="Layer 1" xmlns="http://www.w3.org/2000/svg" viewBox="0 0 30 30"><defs><style>.cls-1{fill:#231f20;}.cls-2{fill:#191f20;}</style></defs><path class="cls-1" d="M15,25.17a10,10,0,0,1-5.81-1.83L6.27,24.47a.59.59,0,0,1-.6-.1.6.6,0,0,1-.2-.59l.78-3.61A10.08,10.08,0,0,1,4.83,15,10.17,10.17,0,1,1,15,25.17Zm-5.73-3.1a.58.58,0,0,1,.36.12,9,9,0,1,0-2.24-2.44.62.62,0,0,1,.08.44L6.88,23l2.18-.84A.52.52,0,0,1,9.27,22.07Z"/><path class="cls-2" d="M15.51,19.54a1,1,0,0,1-.67.26,1.08,1.08,0,0,1-.69-.25,1,1,0,0,1,0-1.4,1,1,0,0,1,.7-.28.94.94,0,0,1,.68.28,1,1,0,0,1,.28.68A.91.91,0,0,1,15.51,19.54Z"/><path class="cls-2" d="M18,13.79a3.21,3.21,0,0,1-.53.71l-1.1,1a3.82,3.82,0,0,0-.35.35,1.85,1.85,0,0,0-.2.27l-.1.25c0,.09-.06.25-.1.46s0,.41-.1.54H14.07c-.15-.17,0-.45,0-.74a2.43,2.43,0,0,1,.17-.94,2.38,2.38,0,0,1,.44-.7c.19-.2.43-.44.75-.72s.47-.42.59-.54a1.53,1.53,0,0,0,.31-.41.92.92,0,0,0,.13-.49A1.14,1.14,0,0,0,16,12a1.4,1.4,0,0,0-1-.35A1.38,1.38,0,0,0,14,12a5.31,5.31,0,0,0-.56,1l-1.67,0a4.37,4.37,0,0,1,.37-1.34,3.15,3.15,0,0,1,1.15-1,3.66,3.66,0,0,1,1.76-.41,3.84,3.84,0,0,1,1.64.34,2.72,2.72,0,0,1,1.11.94,2.32,2.32,0,0,1,.39,1.29A2.12,2.12,0,0,1,18,13.79Z"/></svg>