<svg id="Layer_1" data-name="Layer 1" xmlns="http://www.w3.org/2000/svg" viewBox="0 0 30 30"><defs><style>.cls-1{fill:#231f20;}</style></defs><path class="cls-1" d="M8.76,25.18a.56.56,0,0,1-.35-.11.59.59,0,0,1-.24-.59l1.14-6.63-4.82-4.7a.6.6,0,0,1-.15-.61.59.59,0,0,1,.48-.41l6.66-1,3-6a.63.63,0,0,1,1.08,0l3,6,6.66,1a.59.59,0,0,1,.48.41.6.6,0,0,1-.15.61l-4.82,4.7,1.14,6.63a.61.61,0,0,1-.24.59.62.62,0,0,1-.63.05L15,22,9,25.12A.67.67,0,0,1,8.76,25.18ZM15,20.71a.55.55,0,0,1,.28.07l5.16,2.71-1-5.75a.62.62,0,0,1,.18-.53l4.17-4.07L18,12.3a.61.61,0,0,1-.45-.33L15,6.74,12.42,12a.61.61,0,0,1-.45.33l-5.77.84,4.17,4.07a.62.62,0,0,1,.18.53l-1,5.75,5.16-2.71A.55.55,0,0,1,15,20.71Z"/></svg>