<svg id="Layer_1" data-name="Layer 1" xmlns="http://www.w3.org/2000/svg" viewBox="0 0 31.95 31.95"><defs><style>.cls-1{fill:#231f20;}</style></defs><path class="cls-1" d="M31.34,16.62l-2.81-9a.58.58,0,0,0-.3-.35.57.57,0,0,0-.46,0L22.93,8.89a.6.6,0,0,0-.38.75l0,.07H15a2.52,2.52,0,0,0-1.56.49H9.23l.17-.56A.6.6,0,0,0,9,8.89L4.18,7.27a.57.57,0,0,0-.46,0,.61.61,0,0,0-.3.35l-2.81,9a.61.61,0,0,0,.39.75L5.83,19A.63.63,0,0,0,6,19,.55.55,0,0,0,6.3,19a.56.56,0,0,0,.29-.35l.25-.8,1,.73a1.59,1.59,0,0,0,.22,1.74,21.9,21.9,0,0,0,2.56,1.85c.91.62,2.14,1.46,2.32,1.64a1.6,1.6,0,0,0,1.09.55h.11a1.57,1.57,0,0,0,1-.39l.55.41a2.12,2.12,0,0,0,1.21.38h0a2.37,2.37,0,0,0,1.12-.29l5.56-2.82a1.6,1.6,0,0,0,.85-1.21,1.85,1.85,0,0,0-.54-1.6l-.1-.11,1.25-1,.29.94a.58.58,0,0,0,.3.35.52.52,0,0,0,.27.07.58.58,0,0,0,.19,0L31,17.37A.6.6,0,0,0,31.34,16.62Zm-25.71,1-3.7-1.23L4.38,8.6l3.7,1.24Zm8.47,5.46a.41.41,0,0,1-.26-.13,22.29,22.29,0,0,0-2.55-1.85c-.91-.62-2.15-1.46-2.33-1.64a.39.39,0,0,1,0-.55l.93-.81a35,35,0,0,1,5.61,3.38.39.39,0,0,1,0,.53l-1.12,1A.4.4,0,0,1,14.1,23.11Zm9-2.58-5.58,2.83a1.18,1.18,0,0,1-.56.15.9.9,0,0,1-.51-.15l-.33-.24.2-.17a1.6,1.6,0,0,0,.15-2.24,27.72,27.72,0,0,0-3.26-2.2c-3.25-2-3.53-1.72-3.85-1.45l-.67.59L7.22,16.59,8.85,11.4h3.73L11.25,15a1.89,1.89,0,0,0,.1,1.51,1.62,1.62,0,0,0,1,.83,2.31,2.31,0,0,0,2.57-1c.17-.27.79-1.38,1.1-1.94h1.7l5.34,5.28a.65.65,0,0,1,.19.57A.4.4,0,0,1,23.07,20.53ZM23,17.84l-4.55-4.51a.63.63,0,0,0-.43-.17H15.69a.61.61,0,0,0-.53.31c-.28.52-1.06,1.92-1.23,2.19a1.11,1.11,0,0,1-1.25.48.46.46,0,0,1-.27-.23.64.64,0,0,1,0-.54l1.43-3.82A1.3,1.3,0,0,1,15,10.91H23l1.73,5.52Zm3.36-.19L23.87,9.84l3.7-1.24L30,16.42Z"/></svg>