<svg id="Layer_1" data-name="Layer 1" xmlns="http://www.w3.org/2000/svg" viewBox="0 0 30 30"><path d="M23.46,26.55H6.54a.6.6,0,0,1-.6-.6V15.6H3.05a.6.6,0,0,1-.56-.38.59.59,0,0,1,.16-.66l11.94-11a.61.61,0,0,1,.82,0l11.94,11a.59.59,0,0,1,.16.66.6.6,0,0,1-.56.38H24.06V26A.6.6,0,0,1,23.46,26.55ZM7.14,25.35H22.86V15a.6.6,0,0,1,.6-.6h1.95L15,4.86,4.59,14.4h2a.6.6,0,0,1,.6.6Z"/><path d="M17.65,26.55a.6.6,0,0,1-.6-.6v-7H13v7a.6.6,0,0,1-1.2,0V18.33a.6.6,0,0,1,.6-.6h5.3a.6.6,0,0,1,.6.6V26A.6.6,0,0,1,17.65,26.55Z"/></svg>