<svg id="Layer_1" data-name="Layer 1" xmlns="http://www.w3.org/2000/svg" viewBox="0 0 30 30"><defs><style>.cls-1{fill:#231f20;}</style></defs><path class="cls-1" d="M22.32,11.23H3.94a.6.6,0,0,1,0-1.2H22.32a.6.6,0,0,1,0,1.2Z"/><path class="cls-1" d="M9.39,22.21H6.16a1,1,0,0,1-1-1V18.37a1,1,0,0,1,1-1H9.39a1,1,0,0,1,1,1v2.84A1,1,0,0,1,9.39,22.21Zm-3-1.2H9.19V18.57H6.36Zm3-2.44h0Z"/><path class="cls-1" d="M9.39,17.12H6.16a1,1,0,0,1-1-1V13.28a1,1,0,0,1,1-1H9.39a1,1,0,0,1,1,1v2.84A1,1,0,0,1,9.39,17.12Zm-3-1.2H9.19V13.48H6.36Zm3-2.44h0Z"/><path class="cls-1" d="M14.75,17.12H11.51a1,1,0,0,1-1-1V13.28a1,1,0,0,1,1-1h3.24a1,1,0,0,1,1,1v2.84A1,1,0,0,1,14.75,17.12Zm-3-1.2h2.83V13.48H11.72Zm3-2.44h0Z"/><path class="cls-1" d="M20.11,17.12H16.87a1,1,0,0,1-1-1V13.28a1,1,0,0,1,1-1h3.24a1,1,0,0,1,1,1v2.84A1,1,0,0,1,20.11,17.12Zm-3-1.2h2.84V13.48H17.07Zm3-2.44h0Z"/><path class="cls-1" d="M14.75,22.21H11.51a1,1,0,0,1-1-1V18.37a1,1,0,0,1,1-1h3.24a1,1,0,0,1,1,1v2.84A1,1,0,0,1,14.75,22.21Zm-3-1.2h2.83V18.57H11.72Zm3-2.44h0Z"/><path class="cls-1" d="M18.81,25.68a1,1,0,0,1-.55-.17,1,1,0,0,1-.44-1l.06-.39H5.25a1.91,1.91,0,0,1-1.9-1.91V8.62a1.9,1.9,0,0,1,1.9-1.9H6.38V6.28a2,2,0,0,1,2-2H8.7a2,2,0,0,1,2,2v.44h4.95V6.28a2,2,0,0,1,1.95-2h.37a2,2,0,0,1,2,2v.44H21a1.9,1.9,0,0,1,1.9,1.9v5.79a2.52,2.52,0,0,1,2.15.26l.49.33h0a2.45,2.45,0,0,1,.69,3.38l-3.1,4.69a1,1,0,0,1-.32.3l-3.5,2.16A1,1,0,0,1,18.81,25.68ZM5.25,7.92a.71.71,0,0,0-.71.7V22.23a.71.71,0,0,0,.71.71H18.58a.59.59,0,0,1,.45.2.58.58,0,0,1,.14.48l-.1.66,3.14-1.93,3-4.64a1.26,1.26,0,0,0,.18-.93A1.29,1.29,0,0,0,24.9,16l-.49-.32a1.27,1.27,0,0,0-1.63.23.58.58,0,0,1-.66.18.59.59,0,0,1-.4-.56V8.62a.71.71,0,0,0-.7-.7H19.29a.6.6,0,0,1-.6-.6v-1a.76.76,0,0,0-.76-.76h-.37a.76.76,0,0,0-.75.76v1a.6.6,0,0,1-.6.6H10.06a.6.6,0,0,1-.6-.6v-1a.76.76,0,0,0-.76-.76H8.33a.76.76,0,0,0-.75.76v1a.6.6,0,0,1-.6.6Z"/><path class="cls-1" d="M18.49,24.81l-.14,0a.6.6,0,0,1-.44-.72l.94-3.9a.51.51,0,0,1,.07-.17l2.89-4.78a.59.59,0,0,1,.82-.2.6.6,0,0,1,.2.82L20,20.54l-.92,3.81A.6.6,0,0,1,18.49,24.81Z"/><path class="cls-1" d="M22.52,23.46a.62.62,0,0,1-.38-.14l-3.09-2.55a.6.6,0,1,1,.76-.92L22.9,22.4a.58.58,0,0,1,.08.84A.6.6,0,0,1,22.52,23.46Z"/></svg>