<svg id="Layer_1" data-name="Layer 1" xmlns="http://www.w3.org/2000/svg" viewBox="0 0 30 30"><defs><style>.cls-1{fill:#231f20;}</style></defs><path class="cls-1" d="M23.47,24.07H6.53a.6.6,0,0,1-.6-.6V22.23a7.31,7.31,0,0,1,5.76-7.12.65.65,0,0,1,.47.09,4.43,4.43,0,0,0,.88.48,5,5,0,0,0,3.92,0,4.43,4.43,0,0,0,.88-.48.63.63,0,0,1,.46-.09,7.31,7.31,0,0,1,5.77,7.12v1.24A.6.6,0,0,1,23.47,24.07ZM7.13,22.87H22.87v-.64a6.11,6.11,0,0,0-4.58-5.89,7.84,7.84,0,0,1-.86.45,6.3,6.3,0,0,1-4.86,0,6.37,6.37,0,0,1-.86-.45,6.11,6.11,0,0,0-4.58,5.89Z"/><path class="cls-1" d="M15,16.15A5.11,5.11,0,1,1,20.11,11,5.11,5.11,0,0,1,15,16.15Zm0-9A3.91,3.91,0,1,0,18.91,11,3.92,3.92,0,0,0,15,7.13Z"/></svg>