<svg data-name="Layer 1" xmlns="http://www.w3.org/2000/svg" viewBox="0 0 30.245 31.509"><path d="M10.883 29.431a8.79 8.79 0 01-1.2-17.5l-.3-2.1a10.891 10.891 0 1012.4 10.7h-2.1a8.835 8.835 0 01-8.77 8.9zm19.2-8.5a1.019 1.019 0 00-1.5-.3l-2 1.2-3-4.3h-9.5l-.8-5.4h5a1.2 1.2 0 10.001-2.4h-5.301l-1-5.4a2.161 2.161 0 001.806-2.465l-.006-.035A2.161 2.161 0 0011.317.026l-.034.005a2.25 2.25 0 00-1.8 1.7v.5a1.2 1.2 0 00.2.8l2.6 16.7h10.2l3.6 5 3.6-2.3a1.062 1.062 0 00.436-1.437q-.017-.032-.036-.063z" fill="#595959"/></svg>