<svg data-name="Layer 1" xmlns="http://www.w3.org/2000/svg" viewBox="0 0 32.002 27.691"><path d="M17.833 27.69h-.279c-.279-.138-.418-.278-.418-.556L14.35 16.267l-3.762 1.95v2.647a.766.766 0 01-.418.7l-4.04 2.365a.888.888 0 01-.836 0 .766.766 0 01-.418-.7l-.139-5.016-4.18-2.504a.711.711 0 01-.557-.7.766.766 0 01.418-.7l4.04-2.368a.888.888 0 01.836 0l2.368 1.393 3.484-2.358-8.08-8.084c-.28-.14-.28-.418-.28-.7s.14-.557.418-.557L5.991.105a.888.888 0 01.836 0l11.424 6.13 7.523-4.875A4.3 4.3 0 0128.7.802a4.175 4.175 0 012.647 1.674 3.58 3.58 0 01.418 3.344 3.8 3.8 0 01-1.95 2.229l-8.08 4.18-.28 12.957a.766.766 0 01-.418.7l-2.786 1.533c-.139.272-.279.272-.418.272zm-3.065-13.514c.14 0 .28 0 .28.139.278.139.417.279.417.557l2.786 10.867 1.393-.836.28-13.1a.766.766 0 01.417-.7l8.5-4.32a2.213 2.213 0 001.115-1.392 2.371 2.371 0 00-.279-1.95 2.014 2.014 0 00-1.395-.965 2.657 2.657 0 00-1.81.279L18.53 7.907a.888.888 0 01-.836 0L6.41 1.776l-1.393.836 7.941 7.94a1.064 1.064 0 01.28.7c0 .28-.14.419-.419.558l-4.737 3.2a.888.888 0 01-.836 0l-2.369-1.39-2.368 1.393 3.344 2.09a.766.766 0 01.418.7l.14 4.04 2.367-1.397V17.66a.766.766 0 01.418-.7l5.155-2.644a.512.512 0 01.418-.14z" fill="#595959"/></svg>