<svg data-name="Layer 1" xmlns="http://www.w3.org/2000/svg" viewBox="0 0 32 15.2"><path d="M18.5 1.2v2.5h3.1v.9h-3.1v7.3a3.287 3.287 0 00.4 1.7 1.371 1.371 0 001.3.6h.7c.2 0 .3-.1.5-.1l.1.8a4.013 4.013 0 01-1.5.3 2.768 2.768 0 01-1.3-.3 2.7 2.7 0 01-.8-.7 3.582 3.582 0 01-.4-1.1 6.6 6.6 0 01-.1-1.4V4.6h-1.8v-.9h1.8V1.6a7.6 7.6 0 001.1-.4zm4.9 2.5l2.6 7c.2.5.4 1.1.6 1.5l.5 1.4c.2-.5.3-.9.5-1.4l.6-1.6 2.7-7H32l-4.5 11.3h-.9L22.3 3.6h1.1zM6.8 1.3A3.381 3.381 0 019.2 0a2.952 2.952 0 01-.8 2.4 2.385 2.385 0 01-2.3 1.1 2.928 2.928 0 01.7-2.2zm-.6 3.1a11.9 11.9 0 012.7-.7A3.5 3.5 0 0112 5.2a3.153 3.153 0 00-1.6 2.9 3.252 3.252 0 002.1 3.1s-1.4 4-3.4 4c-.9 0-1.6-.6-2.5-.6s-2 .6-2.6.6c-1.8 0-4-3.8-4-6.9s1.9-4.6 3.7-4.6c1 0 1.9.7 2.5.7z" fill="#595959"/></svg>