<svg data-name="Layer 1" xmlns="http://www.w3.org/2000/svg" viewBox="0 0 28.648 32.004"><path d="M22.54 0a6.023 6.023 0 00-5.975 5.311H.764a.73.73 0 00-.664.4 1.134 1.134 0 000 .929l10.756 14.605v9.162H8.2A.8.8 0 108.2 32h6.9a.8.8 0 100-1.593h-2.651v-9.162l7.17-9.826a5.686 5.686 0 002.92.8 6.178 6.178 0 006.109-6.108A6.178 6.178 0 0022.54 0zm-1.593 6.9l-1.992 2.793c-.133 0-.133.133-.266.266 0 .133-.134.133-.134.266l-6.9 9.427L2.357 6.9zm1.593 3.718a3.747 3.747 0 01-1.992-.531l2.656-3.585a.878.878 0 00.132-.8.946.946 0 00-.8-.4h-4.378a4.535 4.535 0 014.382-3.718 4.477 4.477 0 014.515 4.439v.076a4.477 4.477 0 01-4.43 4.523h-.086z" fill="#595959"/></svg>