<svg data-name="Layer 1" xmlns="http://www.w3.org/2000/svg" viewBox="0 0 32 30.5"><path d="M23.3 23.4H10.8a.8.8 0 000 1.6h12.4a.86.86 0 00.8-.8.773.773 0 00-.7-.8zm-7.6-2.5a.86.86 0 00-.8-.8H7.1a.8.8 0 100 1.6h7.8a.86.86 0 00.8-.8zm15.4-5.3h-2.3v-.8a4.694 4.694 0 00-4.688-4.7H22.9V5.3a2.192 2.192 0 001.3-1.8c0-2.3-5.1-3.5-9.9-3.5S4.4 1 4.4 3.5a2.192 2.192 0 001.3 1.8V10h-1A4.76 4.76 0 000 14.7v15.8h28.9v-8.6h2.3a.86.86 0 00.8-.8v-4.8a.961.961 0 00-.9-.7zm-16.8-14c5.4 0 8.3 1.4 8.3 1.9 0 0 0 .3-.9.6l-.4.3V10H7.2V4.4l-.3-.3C6 3.7 6 3.5 6 3.5c0-.6 2.9-1.9 8.3-1.9zm13 27.4h-26V14.8a3.159 3.159 0 013.117-3.2H23.9a3.159 3.159 0 013.2 3.117V29zm3-8.6h-1.5v-3.3h1.5z" fill="#595959"/></svg>