<svg data-name="Layer 1" xmlns="http://www.w3.org/2000/svg" viewBox="0 0 31.72 26.004"><path d="M29.8 6.704H28v-2.5a.8.8 0 00-1.6 0v7.9a.8.8 0 001.6 0v-3.7h1.8a.42.42 0 01.4.4v11.8a.42.42 0 01-.4.4h-4.4v-2.4a.86.86 0 00-.8-.8H7.5a.86.86 0 00-.8.8v2.4H2.1a.42.42 0 01-.4-.4v-11.7a.42.42 0 01.4-.4h1.8v3.8a.86.86 0 00.8.8.86.86 0 00.8-.8v-8a.86.86 0 00-.8-.8.709.709 0 00-.8.7v2.4H2.1a2.182 2.182 0 00-2.1 2.1v11.8a2.182 2.182 0 002.1 2.1h4.4v2.5a.882.882 0 00.8.9h17.1a.86.86 0 00.8-.8v-2.4h4.4a2.182 2.182 0 002.1-2.1v-11.8a1.924 1.924 0 00-1.9-2.2zm-6.2 17.8H8.2v-4.9h15.5v4.9zm-20.1-11.3a.8.8 0 100 1.6h24.9a.8.8 0 000-1.6h-3.1V.804a.86.86 0 00-.8-.8h-17a.818.818 0 00-.896.732L6.6.804v12.4zm4.8-11.5h15.5v11.5H8.3zm-5.1 15v1.3a.86.86 0 00.8.8.961.961 0 00.9-.8v-1.3a.86.86 0 00-.8-.8.876.876 0 00-.9.8z" fill="#595959"/></svg>