<svg data-name="Layer 1" xmlns="http://www.w3.org/2000/svg" viewBox="0 0 23.702 36"><path d="M5.263 31.016a.893.893 0 00.831-.831v-7.2a.893.893 0 00-.83-.831.893.893 0 00-.832.831v7.2a.893.893 0 00.831.831zm2.631-5.262a.893.893 0 00.831-.831v-3.6a.893.893 0 00-.83-.831.893.893 0 00-.832.831v3.6a.893.893 0 00.831.831zm.138-12.462a.893.893 0 00.831.831.893.893 0 00.831-.831 1.485 1.485 0 01.277-.831 2.626 2.626 0 00.553-1.661 2.341 2.341 0 00-.554-1.662 1.385 1.385 0 010-1.662 2.626 2.626 0 00.554-1.662 2.341 2.341 0 00-.554-1.662 1.485 1.485 0 01-.277-.831 1.485 1.485 0 01.277-.831 2.626 2.626 0 00.554-1.659.893.893 0 00-.83-.831.893.893 0 00-.83.831 1.485 1.485 0 01-.278.831 2.341 2.341 0 00-.554 1.661 2.341 2.341 0 00.554 1.662 1.485 1.485 0 01.277.831 1.485 1.485 0 01-.277.831 2.341 2.341 0 00-.554 1.661 2.341 2.341 0 00.554 1.662 1.385 1.385 0 010 1.662 2.341 2.341 0 00-.554 1.66zm-4.43.001a.893.893 0 00.83.831.893.893 0 00.831-.831 1.485 1.485 0 01.277-.831 3.518 3.518 0 00.415-1.662 4.1 4.1 0 00-.415-1.662 1.385 1.385 0 010-1.662 3.518 3.518 0 00.415-1.662.893.893 0 00-.83-.829.893.893 0 00-.832.831 1.484 1.484 0 01-.277.831 4.1 4.1 0 00-.415 1.661 4.1 4.1 0 00.415 1.662 1.385 1.385 0 010 1.662 4.1 4.1 0 00-.415 1.661zm8.861-.001a.831.831 0 101.662 0 1.485 1.485 0 01.277-.831 3.518 3.518 0 00.415-1.662 4.1 4.1 0 00-.415-1.662 1.485 1.485 0 01-.277-.831.831.831 0 00-1.662.002 4.1 4.1 0 00.415 1.662 1.385 1.385 0 010 1.662 4.1 4.1 0 00-.415 1.66zm7.061 6.646h-.138v-2.63a1.684 1.684 0 00-1.662-1.662H1.664A1.6 1.6 0 000 17.181q-.002.064 0 .127v13.569A5.2 5.2 0 005.124 36h9.138a5.2 5.2 0 005.123-5.123v-1.108h.138a4.71 4.71 0 004.154-4.154 5.286 5.286 0 00-4.153-5.677zm-1.8 10.938a3.428 3.428 0 01-3.393 3.462H5.124a3.428 3.428 0 01-3.462-3.394V17.308h16.062zm4.292-5.538a3.4 3.4 0 01-2.63 2.769V21.6a3.456 3.456 0 012.63 3.738z" fill="#595959"/></svg>