<svg data-name="Layer 1" xmlns="http://www.w3.org/2000/svg" viewBox="0 0 32.028 20"><path d="M31.947 14.6a19.355 19.355 0 00-2.4-6 1.561 1.561 0 00-.4-1.8c-2.9-3-5.4-3.9-6.6-4.1a1.508 1.508 0 00-.9-1.4 15.769 15.769 0 00-5.6-1.3 11.918 11.918 0 00-5.6 1.4 1.381 1.381 0 00-1 1.3 12.128 12.128 0 00-6.6 4.1 1.669 1.669 0 00-.3 1.8 19.832 19.832 0 00-2.4 5.9 4.45 4.45 0 00.9 4l.6.8a1.76 1.76 0 001.3.6h.1a1.366 1.366 0 001.1-.4c.1 0 .1-.1.3-.3a14.84 14.84 0 014-3.5 2.2 2.2 0 00.8.1c.1 0 .4 0 .5-.1l3.1-1.3a1.284 1.284 0 001 .4h4.3a1.433 1.433 0 001-.4l3.1 1.3c.1.1.4.1.5.1.3 0 .5-.1.8-.1a16.789 16.789 0 014 3.5c0 .1.1.1.3.3a2.108 2.108 0 001.1.5h.1a2.232 2.232 0 001.3-.6l.6-.8a4.986 4.986 0 001-4zm-28.6 3.8c-.1.1-.1.1-.3.1a.774.774 0 01-.3-.1l-.6-.9a2.863 2.863 0 01-.6-2.6 17.813 17.813 0 011.9-5l4 4.8a14.381 14.381 0 00-4.1 3.7zm5.9-4l-5.3-6.3c-.1-.1-.1-.1 0-.3 2.6-2.9 4.9-3.5 5.9-3.6l2.4 9.2zm8.9-1h-4.2c-.1 0-.1 0-.1-.1l-2.6-10v-.2l-.1-.4a10.753 10.753 0 015-1.1 12.16 12.16 0 015 1.1l-.1.5-2.6 10c-.2.2-.2.2-.3.2zm1.8-.1l2.4-9.2c1 .1 3.1.8 5.9 3.6.1.1.1.1 0 .3l-5.3 6.3zm9.9 4.2l-.6.8c-.1.1-.1.1-.3.1a.774.774 0 01-.3-.1 23.018 23.018 0 00-4.1-3.6l4-4.8a17.813 17.813 0 011.9 5 2.958 2.958 0 01-.6 2.6z" fill="#595959"/></svg>