<svg data-name="Layer 1" xmlns="http://www.w3.org/2000/svg" viewBox="0 0 32.006 32.001"><path d="M31.841.32a1.213 1.213 0 00-.64-.32h-.8c-8 0-14.4 0-19.2 1.12a14.518 14.518 0 00-5.92 2.72 11.243 11.243 0 00-3.36 5.44 13.224 13.224 0 00.16 7.04 12.115 12.115 0 001.44 2.88 24.678 24.678 0 00-3.52 12 .756.756 0 00.8.8.756.756 0 00.8-.8c0-7.36 4.32-12.8 7.04-15.36a21.2 21.2 0 016.08-4.64 13.034 13.034 0 015.28-1.6.756.756 0 00.8-.8.756.756 0 00-.8-.8 14.232 14.232 0 00-6.08 1.76 29.868 29.868 0 00-6.56 4.8 37.128 37.128 0 00-2.88 3.36L3.521 16a13.306 13.306 0 010-6.24c2.24-8.16 10.88-8.16 26.72-8.16-1.92 10.08-5.44 16.64-10.4 19.36-4.64 2.56-9.28 1.12-11.04.48a2.579 2.579 0 01-1.12-.64.824.824 0 00-.8 1.44 9.432 9.432 0 001.28.64 13.012 13.012 0 004.64 1.12h1.28a13.421 13.421 0 006.56-1.76 17.079 17.079 0 006.56-6.88A48.488 48.488 0 0032.001.8a.588.588 0 00-.16-.48z" fill="#666"/></svg>