<svg xmlns="http://www.w3.org/2000/svg" viewBox="0 0 32 21.3"><path d="M31 4.6h.1c.2 0 .4 0 .6-.2.2-.2.3-.3.3-.5V.8c0-.4-.3-.7-.7-.7H.8C.3-.1 0 .3 0 .8v3.1c0 .1.1.3.2.5.2.1.5.2.7.2.3 0 .5 0 .6.2.2.1.2.4.4.6 0 .5-.3.9-.8 1H.9c-.2 0-.4 0-.6.2-.2.1-.3.3-.3.6v1.7c0 .1.1.3.2.5.2.1.5.2.7.2.3 0 .5 0 .6.2.2.1.2.4.4.6 0 .2 0 .5-.2.6s-.5.3-.7.4H.9c-.2 0-.4 0-.6.2-.2.1-.3.3-.3.5v1.8c0 .4.3.7.7.7.6 0 1 .4 1 1s-.4 1-1 1c-.4.1-.6.3-.7.7v3.3c0 .4.3.7.7.7h30.5c.4 0 .7-.3.7-.7v-3.3c0-.4-.3-.7-.7-.7-.6 0-1-.4-1-1s.4-1 1-1c.4 0 .7-.3.7-.7v-1.8c0-.2-.1-.4-.2-.5-.2-.1-.4-.2-.6-.2-.5 0-.9-.3-1-.8 0-.5.3-.9.8-1h.1c.2 0 .4 0 .6-.2.1-.1.2-.3.2-.5V7.2c0-.2-.1-.4-.2-.5-.2-.1-.4-.2-.6-.2-.5 0-.9-.3-1-.8 0-.2 0-.5.2-.6.5-.2.5-.5.8-.5zm-.6 3.2v.5c-1.1.3-1.9 1.3-1.8 2.5.1 1 .8 1.8 1.8 2.1v.5c-1 .3-1.6 1.3-1.6 2.3 0 1 .6 1.9 1.6 2.3v1.9h-29v-2.1c1.3-.4 2-1.7 1.6-3-.2-.8-.8-1.4-1.6-1.6v-.5c.5-.1 1-.3 1.3-.7.4-.5.6-1.1.6-1.7-.1-.7-.3-1.2-.8-1.6-.3-.2-.6-.4-1-.5v-.5c1.1-.3 1.9-1.3 1.8-2.5-.1-.7-.3-1.2-.8-1.6-.3-.2-.6-.4-1-.5V1.5h29v1.8c-.5.1-.9.3-1.2.7-.4.5-.6 1.1-.6 1.7.1.9.8 1.7 1.7 2.1zm-4.8-4.2H6.3c-.4 0-.7.3-.7.7v12.5c0 .4.3.7.7.7h19.2c.4 0 .7-.3.7-.7V4.3c.1-.5-.2-.7-.6-.7zm-.7 12.5L20.7 5h4.2v11.1zm-6.1 0L14.6 5h4.5l4.2 11.1h-4.5zm-6 0L8.6 5h4.5l4.2 11.1h-4.5zM7 5l4.2 11.1H7V5z" fill="#595959"/></svg>