<svg data-name="Layer 1" xmlns="http://www.w3.org/2000/svg" viewBox="0 0 32 19.119"><path d="M28.981 6.943V1.61h-3.924V0H19.22v6.943h-6.44V0H6.943v1.61H3.019v5.333H0v5.233h3.019v5.333h3.924v1.61h5.837v-6.943h6.44v6.943h5.836v-1.61h3.925v-5.333H32V6.943zM3.019 10.969H1.308V8.252h1.711zM7.044 16.3v.002H4.327V2.918h2.717zm4.529 1.608v.004H8.252V1.308h3.321zm7.647-6.939h-6.44V8.252h6.44zm4.529 6.939v.004h-3.321V1.308h3.321zm3.924-1.708v.002h-2.717V2.818h2.717zm3.019-5.232h-1.811V8.252h1.811z" fill="#666"/></svg>