<svg data-name="Layer 1" xmlns="http://www.w3.org/2000/svg" viewBox="0 0 32 25.681"><path d="M32 8.982A9.045 9.045 0 0023.018 0a8.834 8.834 0 00-4.632 1.263L2.667 4.07h-.281C.7 4.07 0 6.6 0 8.842s.7 4.491 2.105 4.772h.14L18.386 16.7a4.985 4.985 0 001.263.561l-1.263 7.44a1.052 1.052 0 00.14.7 1.072 1.072 0 00.7.28h4.914a.89.89 0 00.842-.7l1.4-7.719A8.922 8.922 0 0032 8.982zM2.386 5.895a4.433 4.433 0 01.7 2.947 5.3 5.3 0 01-.7 3.088 5.3 5.3 0 01-.7-3.088 5.085 5.085 0 01.7-2.947zm1.825-.28L16 3.508a8.816 8.816 0 00-1.965 5.614A8.167 8.167 0 0016 14.6L4.07 12.211a9.033 9.033 0 00.7-3.368 7.8 7.8 0 00-.559-3.229zM23.439 24h-3.228l1.123-6.175a6.833 6.833 0 001.684.14 5.757 5.757 0 001.544-.14zm-.421-7.719a7.248 7.248 0 01-7.3-7.195V8.98a7.3 7.3 0 117.404 7.3h-.104zM23.017 3.65a5.331 5.331 0 00-5.333 5.33v.003a7.045 7.045 0 00.281 1.684v.14a5.192 5.192 0 005.053 3.51 5.677 5.677 0 005.053-3.51v-.14a7.045 7.045 0 00.281-1.684 5.331 5.331 0 00-5.329-5.333zm-3.649 5.333v-.7a1.52 1.52 0 01.842-.14 1.636 1.636 0 01.982.281 4.164 4.164 0 003.649 0 2.03 2.03 0 01.982-.28c.281 0 .561.14.842.14v1.12c-.281 0-.561-.14-.842-.14a4.979 4.979 0 00-1.825.421 1.86 1.86 0 01-1.965 0 4.308 4.308 0 00-1.825-.42 1.78 1.78 0 00-.842.14q.002-.21.002-.422zm3.649-3.649a3.834 3.834 0 012.667 1.123 2.906 2.906 0 00-1.544.421 2.029 2.029 0 01-.982.281 2.644 2.644 0 01-1.123-.28 4.07 4.07 0 00-1.544-.422 3.287 3.287 0 012.526-1.123zm0 7.3a3.857 3.857 0 01-3.087-1.684h.281a1.636 1.636 0 01.982.281 4.164 4.164 0 003.649 0 2.029 2.029 0 01.982-.28h.281a3.857 3.857 0 01-3.088 1.681z" fill="#595959"/></svg>