<svg data-name="Layer 1" xmlns="http://www.w3.org/2000/svg" viewBox="0 0 32.014 27.208"><path d="M18.71 5.008a6.5 6.5 0 10-.004 13h.004a6.619 6.619 0 006.5-6.5 6.487 6.487 0 00-6.474-6.5h-.026zm0 11.6a4.9 4.9 0 114.9-4.9 4.908 4.908 0 01-4.9 4.9zm2.2-5.7a.86.86 0 00-.8.8 1.43 1.43 0 01-1.4 1.4.8.8 0 000 1.6 3.076 3.076 0 003-3 .736.736 0 00-.8-.8zm7.6-5.7c-3.3-4.5-7.1-5.3-9.7-5.2a10.764 10.764 0 00-6.5 2.6c-3.7 3-10 9.1-11.7 15.9-1.1 3.9-.7 6.5 1.1 7.9a5.3 5.3 0 002.7.8 11.252 11.252 0 005.2-1.6c1.4-.8 2.9-.4 4.8.1 2.7.7 6 1.6 10.3-.8 3.9-2.2 6.4-5.2 7.1-8.6s-.4-7.2-3.3-11.1zm1.7 10.9c-.5 2.9-2.7 5.4-6.3 7.5-3.7 2.2-6.5 1.4-9.1.7-2-.5-4.1-1.1-6 .1-2 1.2-4.6 1.9-6 .8-1.1-.8-1.4-3-.5-6.1 1.4-6.4 7.6-12.3 11.1-15.2a8.822 8.822 0 015.6-2.1h.4c3 0 5.7 1.5 8 4.5 2.3 3.4 3.4 6.8 2.8 9.8z" fill="#595959"/></svg>