<svg data-name="Layer 1" xmlns="http://www.w3.org/2000/svg" viewBox="0 0 19.835 32.001"><path d="M2.742 32c-.285 0-.712-.141-.712-.57C-4.092 13.065 5.305 3.24 8.295.536a2.358 2.358 0 012.99 0c3.987 3.417 12.387 12.957 6.55 30.754a.961.961 0 01-.854.57H2.884zm.57-1.85h13.1c4.982-16.374-2.707-25.201-6.266-28.191a.636.636 0 00-.712 0C6.586 4.237-1.814 13.207 3.312 30.149zm10.962-2.42H5.589a.855.855 0 110-1.71h8.685a.855.855 0 110 1.71zM9.86 5.233a1.281 1.281 0 11-1.281 1.28 1.281 1.281 0 011.28-1.28zm3.133 4.414a1.281 1.281 0 11-1.281 1.28 1.281 1.281 0 011.28-1.28zm1.423 5.268a1.281 1.281 0 11-1.281 1.28 1.281 1.281 0 011.28-1.28zm0 5.838a1.281 1.281 0 11-1.281 1.28 1.281 1.281 0 011.28-1.28zM6.728 9.647a1.281 1.281 0 11-1.281 1.28 1.281 1.281 0 011.28-1.28zm-1.424 5.268a1.281 1.281 0 11-1.281 1.28 1.281 1.281 0 011.28-1.28zm0 5.838a1.281 1.281 0 11-1.281 1.28 1.281 1.281 0 011.28-1.28z" fill="#595959"/></svg>