<svg data-name="Layer 1" xmlns="http://www.w3.org/2000/svg" viewBox="0 0 31.9 30.18"><path d="M31.9 22.08V.88c0-.3-.1-.4-.3-.7a.562.562 0 00-.7-.1l-20 3.4a.876.876 0 00-.7.9v18.2a7.569 7.569 0 00-4.3-1.2c-3.4 0-5.9 1.9-5.9 4.4s2.7 4.4 5.9 4.4 6.1-1.9 6.1-4.4v-15.6l18.1-3.1v12.1a7.366 7.366 0 00-4.1-1.2c-3.4 0-5.9 1.9-5.9 4.4s2.7 4.4 5.9 4.4 5.9-2 5.9-4.7zM6 28.38c-2.2 0-4.1-1.2-4.1-2.7s1.9-2.7 4.1-2.7 4.3 1.2 4.3 2.7-2.1 2.7-4.3 2.7zm5.9-20v-3.3l18.2-3.1v3.3zm13.9 16.6c-2.2 0-4.3-1.2-4.3-2.7s1.9-2.7 4.3-2.7c2.2 0 4.1 1.2 4.1 2.5v.1c.2 1.6-1.7 2.8-4.1 2.8z" fill="#595959"/></svg>