<svg data-name="Layer 1" xmlns="http://www.w3.org/2000/svg" viewBox="0 0 31.901 22.401"><path d="M17.3 3.2H7a4.4 4.4 0 00-4.6 3.9v8.2a4.144 4.144 0 004.357 3.92q.122-.006.243-.02h10.2a4.425 4.425 0 004.6-4.1V7a4.234 4.234 0 00-4.5-3.8zm3.4 12.1a2.957 2.957 0 01-3.183 2.712L17.4 18H7a3.026 3.026 0 01-3.3-2.7V7.2A3.234 3.234 0 017 4.4h10.2a3.026 3.026 0 013.3 2.7zm5.6-11.5a3 3 0 103 3 2.888 2.888 0 00-2.771-3q-.114-.004-.229 0zm0 1.1a1.493 1.493 0 011 .3l-2.7 2.4a1.7 1.7 0 01-.1-.7 1.907 1.907 0 011.8-2zm1.8 1.9a1.793 1.793 0 01-1.786 1.8H26.3a1.4 1.4 0 01-.9-.3L28 6.1a1.952 1.952 0 01.1.7zM28 0H3.9A3.842 3.842 0 000 3.784V18.5a3.842 3.842 0 003.784 3.9H28a3.9 3.9 0 003.9-3.9V3.9A3.842 3.842 0 0028.117 0H28zm2.6 18.7a2.647 2.647 0 01-2.6 2.6H3.9a2.647 2.647 0 01-2.6-2.6V3.9a2.582 2.582 0 012.564-2.6H28a2.647 2.647 0 012.6 2.6zm-6.5-6.6a.984.984 0 00-.4 1.3v.1a1.012 1.012 0 101.7-1.1 1.12 1.12 0 00-1.3-.3zm3.5 0a.984.984 0 00-.4 1.3v.1a1.012 1.012 0 101.7-1.1c-.1-.4-.8-.5-1.3-.3zM24.1 16a.984.984 0 00-.4 1.3v.1a1.012 1.012 0 101.7-1.1 1.12 1.12 0 00-1.3-.3zm3.5 0a.984.984 0 00-.4 1.3v.1a1.012 1.012 0 101.7-1.1c-.1-.4-.8-.5-1.3-.3zM10.2 8.6c.3-.4.3-.8 0-.9a.633.633 0 00-.89.089L9.3 7.8a3.54 3.54 0 00-.1 4.8 2.2 2.2 0 01.4 1.3 2.577 2.577 0 01-.8 1.3c-.3.1-.4.4-.3.8a.51.51 0 00.5.4h.3a3.045 3.045 0 001.3-1.8 3.179 3.179 0 00-.4-2.7 2.353 2.353 0 010-3.3zm4.2-.1a1.1 1.1 0 000-.8.647.647 0 00-.9-.1 3.54 3.54 0 00-.1 4.8 2.3 2.3 0 01.4 1.4 2.577 2.577 0 01-.8 1.3c-.3.1-.4.4-.3.8a.51.51 0 00.5.4h.3a3.131 3.131 0 00.95-4.324l-.05-.076a2.514 2.514 0 010-3.4z" fill="#595959"/></svg>