<svg data-name="Layer 1" xmlns="http://www.w3.org/2000/svg" viewBox="0 0 31.931 30.703"><path d="M9.3 22.803l6.1-5.9c2.5-1.1 4.6-1.4 6.6-.6a8.729 8.729 0 014.4 4.3.792.792 0 00.8.5h.3c.4-.1.5-.6.4-1a10.52 10.52 0 00-5.1-5.1 10.824 10.824 0 00-4.8-.4l2.4-2.4a8.618 8.618 0 014.5.8c4.3 2 5.6 7 5.6 7.1a.76.76 0 00.8.6h.1a.715.715 0 00.507-.875l-.007-.025c0-.3-1.5-5.8-6.4-8a9.107 9.107 0 00-3.6-.9l9.7-9.5a.666.666 0 000-1 .666.666 0 00-1 0l-11 10.7a25.4 25.4 0 00-6.4 1.9c-3.9 1.9-7.4 2.1-9.1.8a3.216 3.216 0 01-1-3.4c.6-3 4.5-7 12.9-8.9a.875.875 0 00.6-.9.875.875 0 00-.9-.6c-9.1 1.8-13.3 6.3-14 9.6a4.591 4.591 0 001.5 4.9c2.3 1.9 6.1 1.6 10.8-.5a25.707 25.707 0 013.8-1.4l-10.6 10.2H0v7.9h31.7v-7.9zm16.9 1.6v4.9H2.7l5-4.9zm-20.6 0l-4 3.9v-3.9zm24.8 5h-2.6v-4.9h2.6z" fill="#595959"/></svg>