<svg data-name="Layer 1" xmlns="http://www.w3.org/2000/svg" viewBox="0 0 32 19.834"><path d="M26.1 14.557a5.832 5.832 0 01-3.012-.753 3.94 3.94 0 00-4.267 0 5 5 0 01-2.886.753 5.832 5.832 0 01-3.012-.753 3.589 3.589 0 00-2.133-.627 3.589 3.589 0 00-2.133.627 5 5 0 01-2.886.753 5 5 0 01-2.886-.753 3.589 3.589 0 00-2.133-.627.753.753 0 01.001-1.506 5 5 0 012.886.753 3.589 3.589 0 002.133.627 3.589 3.589 0 002.133-.627 5 5 0 012.887-.753 5.682 5.682 0 012.886.753 3.726 3.726 0 002.26.627 3.589 3.589 0 002.132-.627 5 5 0 012.887-.753 5.682 5.682 0 012.886.753 3.726 3.726 0 002.26.627 3.589 3.589 0 002.132-.627 5.832 5.832 0 013.012-.753.753.753 0 010 1.506 3.726 3.726 0 00-2.259.627 5.682 5.682 0 01-2.888.753zm0 5.271a5.832 5.832 0 01-3.012-.753 3.94 3.94 0 00-4.267 0 5 5 0 01-2.886.753 5.832 5.832 0 01-3.012-.753 3.589 3.589 0 00-2.133-.627 3.589 3.589 0 00-2.133.627 5 5 0 01-2.886.753 5 5 0 01-2.886-.753 3.589 3.589 0 00-2.133-.627.753.753 0 010-1.506 5 5 0 012.886.753 3.589 3.589 0 002.133.627 3.589 3.589 0 002.133-.627 5 5 0 012.886-.753 5.682 5.682 0 012.886.753 3.726 3.726 0 002.26.627 3.589 3.589 0 002.132-.627 5 5 0 012.886-.753 5.682 5.682 0 012.886.753 3.726 3.726 0 002.26.627 3.589 3.589 0 002.132-.627 5.832 5.832 0 013.012-.753.753.753 0 010 1.506 3.726 3.726 0 00-2.259.627 5.682 5.682 0 01-2.885.753zm-6.022-6.652a.81.81 0 01-.753-.753V.753a.753.753 0 011.506 0v11.671a.81.81 0 01-.753.752zm-8.03.124a.81.81 0 01-.754-.751V.753a.753.753 0 011.506 0v11.8a.81.81 0 01-.753.747zm8.03-3.386h-8.03a.81.81 0 01-.754-.753.81.81 0 01.753-.753h8.031a.81.81 0 01.753.753.81.81 0 01-.753.753zm0-5.145h-8.03a.81.81 0 01-.754-.753.81.81 0 01.753-.753h8.031a.81.81 0 01.753.753.81.81 0 01-.753.753z" fill="#595959"/></svg>