<svg data-name="Layer 1" xmlns="http://www.w3.org/2000/svg" viewBox="0 0 32.075 28.001"><path d="M6.995 14.001a2.993 2.993 0 10.02 0zm0 4a1.005 1.005 0 111.009-1.009 1.005 1.005 0 01-1.01 1.01zm17.996-4a2.991 2.991 0 102.99 2.991 2.993 2.993 0 00-2.99-2.99zm0 4A1.005 1.005 0 1126 16.992a1.005 1.005 0 01-1.01 1.01zm4.907-6.2c-.263-1.579-1.1-6.414-2.01-8.256-.6-1.22-2.178-2.154-4.643-2.776a32.73 32.73 0 00-7.252-.768 30.917 30.917 0 00-7.227.79c-2.49.6-4.044 1.532-4.667 2.752-.91 1.82-1.771 6.677-2.01 8.256a4.758 4.758 0 00-2.082 4.188v5a3 3 0 002.01 2.824v2.18a2.007 2.007 0 002.004 2.01h2.017a2.007 2.007 0 002.01-2.004v-2.016h15.986v2.01a2.007 2.007 0 002.004 2.01h2.017a2.007 2.007 0 002.01-2.004v-2.184a3 3 0 002.01-2.824v-5a5 5 0 00-2.177-4.188zm-24-7.347c.6-1.2 4.332-2.44 10.1-2.44s9.5 1.267 10.1 2.44a32.567 32.567 0 011.6 6.366c-.191-.048-.407-.12-.6-.168a15.93 15.93 0 00-1.723-.31l-5.792-4.167a1 1 0 10-1.15 1.626l3.112 2.25c-1.7-.05-3.565-.05-5.552-.05h-.694L9.556 6.175a1.002 1.002 0 00-1.1 1.675l3.279 2.178a34.264 34.264 0 00-6.844.622 4.365 4.365 0 00-.6.168 34.38 34.38 0 011.603-6.366zm.12 21.538H4.007v-2.01h2.01zm21.969 0h-2.01v-2.01h2.01zm2.01-5a1.011 1.011 0 01-1.005 1.005H2.998a1.011 1.011 0 01-1.005-1.005v-5c0-1.843.98-2.824 3.35-3.4 2.513-.6 6.27-.6 10.626-.6s8.137 0 10.626.6c2.393.574 3.35 1.556 3.35 3.4v5z" fill="#666"/></svg>