<svg data-name="Layer 1" xmlns="http://www.w3.org/2000/svg" viewBox="0 0 32.076 33.8"><path d="M9.775 21.335a2.67 2.67 0 102.67 2.67 2.673 2.673 0 00-2.67-2.67zm.882 2.67a.875.875 0 110-.016v.016zm15.113-2.67a2.67 2.67 0 102.67 2.67 2.67 2.67 0 00-2.67-2.67zm.001 3.553a.883.883 0 11.883-.883.888.888 0 01-.883.883zm5.107-4.877a4.047 4.047 0 00-.715-.61c-.231-1.408-.988-5.717-1.808-7.336-.862-1.724-3.742-2.48-5.991-2.838a.883.883 0 10-.273 1.745c2.985.462 4.372 1.261 4.666 1.871a30.847 30.847 0 011.429 5.654l-.252-.063a40.559 40.559 0 00-9.27-.652.883.883 0 000 1.766c3.742 0 6.768.042 8.807.589 1.955.526 2.754 1.366 2.754 2.964v4.435a.888.888 0 01-.883.883H6.222a.888.888 0 01-.883-.883v-4.435a2.737 2.737 0 01.294-1.366.894.894 0 10-1.6-.8 4.85 4.85 0 00-.483 2.186v4.435a2.681 2.681 0 001.789 2.52v1.934a1.785 1.785 0 001.783 1.787h1.79a1.785 1.785 0 001.787-1.783v-1.788h14.23v1.787a1.785 1.785 0 001.783 1.787h1.79a1.785 1.785 0 001.787-1.783v-1.959a2.669 2.669 0 001.787-2.522v-4.435a4.862 4.862 0 00-1.198-3.09zM8.891 31.992H7.104v-1.787h1.787zm19.548 0h-1.787v-1.787h1.787zM9.774 0a9.774 9.774 0 109.774 9.774A9.774 9.774 0 009.774 0zM9.8 17.783a8.02 8.02 0 01-8.013-8.009h-.001A8.009 8.009 0 119.8 17.783zm.689-3.868V13.2h2.144a.709.709 0 00.715-.703V9.624a.709.709 0 00-.703-.715H7.633V7.483h5a.715.715 0 000-1.429h-2.144v-.715a.715.715 0 10-1.429-.053v.768H6.916a.709.709 0 00-.715.703v2.867a.709.709 0 00.703.715h5.012v1.429h-5a.715.715 0 000 1.429H9.06v.715a.715.715 0 001.429.053v-.053z" fill="#666"/></svg>