<svg data-name="Layer 1" xmlns="http://www.w3.org/2000/svg" viewBox="0 0 29.761 31.813"><path d="M29.161 3.5a1.956 1.956 0 00-1.5-.9L14.561 0h-.2c-.1 0-.1 0-.3.1h-.1c-.1 0-.2.2-.2.2a18.426 18.426 0 00-3.1 7.7 4.178 4.178 0 001.4 4.2l-4.5 13.3a.749.749 0 01-.8.5c-4.3-1.4-4.9-8.4-4.9-8.4a.86.86 0 00-.8-.8.773.773 0 00-.8.7c-.7 4.6 0 8.1 2.2 10.7a10.747 10.747 0 006.8 3.6h17.8a1.927 1.927 0 001.8-.8 2.571 2.571 0 000-2.2 3.328 3.328 0 00-3.1-1.9h-.9l-2.3-16.1h2.1a3.493 3.493 0 003-1.8l1.8-3.2c.1-.1.1-.4.3-.7a6.393 6.393 0 00-.6-1.6zm-1.3 1a.749.749 0 01.1.5v.1l-.4.8a.908.908 0 01-.7-.3 1.033 1.033 0 01-.4-.8v-.1a1.087 1.087 0 01.1-.5l.8.1c.2-.1.3-.1.5.2zm-3.3 4.7h-4.5a.86.86 0 00-.8.8.86.86 0 00.8.8h.8l2.3 16.1h-1.4c-.5-2.4-1.6-4.1-3.1-4.9a6.351 6.351 0 00-5.1-.3.828.828 0 00.7 1.5 5.126 5.126 0 013.8.1q1.8 1.05 2.4 4.5l.1.7h5.4a1.769 1.769 0 011.6.9c.1.1.1.5.1.7 0 0-.1.1-.5.1h-17.6a8.572 8.572 0 01-5.5-3 10.668 10.668 0 01-1.6-3.2 7.187 7.187 0 004.2 3.6 2.3 2.3 0 002.8-1.5l4.3-13.1c.3 0 .4.1.7.1a2.352 2.352 0 001.6-.5c.8-.7 2.2-2.3 1.2-6.5a.728.728 0 10-1.4.4c.5 2.4.4 4.2-.5 4.9a1.532 1.532 0 01-1.6 0 2.533 2.533 0 01-1.1-2.8 12.655 12.655 0 012.3-6.9l10.1 2c0 .3-.1.4-.1.7v.3a2.792 2.792 0 00.8 2 4.129 4.129 0 001.1.7l-.5.9a2.83 2.83 0 01-1.8.9z" fill="#595959"/></svg>