<svg data-name="Layer 1" xmlns="http://www.w3.org/2000/svg" viewBox="0 0 29.526 31.998"><path d="M29.015 16.185c-.747-.872-2.988-1.37-5.6-1.62l5.852-9.213a.652.652 0 00-.249-1 .673.673 0 00-1 .249l-6.35 9.837c-2.615-.25-5.354-.25-7.1-.25-4.233 0-13.7.25-14.568 2.367v1.12a14.747 14.747 0 004.61 10.339 14.535 14.535 0 0010.086 3.984h.5a14.747 14.747 0 0010.335-4.607 14.44 14.44 0 003.982-10.583.57.57 0 00-.498-.623zm-6.475-.25a26.583 26.583 0 014.981.873 24.562 24.562 0 01-6.1 1zm-7.844-.373c2.366 0 4.482.125 6.226.249l-1.37 2.12c-1.37.125-2.988.125-4.856.125-7.222 0-11.455-.747-12.825-1.245 1.369-.501 5.603-1.248 12.825-1.248zm9.707 10.709a13.3 13.3 0 01-9.214 4.233 12.934 12.934 0 01-9.463-3.611 13.082 13.082 0 01-4.109-8.716c2.988 1.12 9.837 1.37 13.2 1.37 1.37 0 3.237 0 5.23-.125a28.351 28.351 0 008.093-1.245 14.326 14.326 0 01-3.737 8.094zM11.085 7.844a2.237 2.237 0 00.5 1.619 1.335 1.335 0 01.249.747.747.747 0 101.494 0 2.105 2.105 0 00-.5-1.494 1.451 1.451 0 01-.249-.872 1.335 1.335 0 01.249-.747 2.484 2.484 0 00.5-1.62 2.484 2.484 0 00-.5-1.618c-.125-.25-.249-.374-.249-.623a1.335 1.335 0 01.249-.747 2.484 2.484 0 00.5-1.62.748.748 0 00-1.496.002 1.8 1.8 0 01-.249.872 2.105 2.105 0 00-.5 1.494 2.105 2.105 0 00.5 1.494 1.335 1.335 0 01.249.747 1.335 1.335 0 01-.247.746 2.484 2.484 0 00-.5 1.62zm5.105-.001a2.237 2.237 0 00.5 1.619 1.335 1.335 0 01.249.747.747.747 0 001.494 0 2.105 2.105 0 00-.5-1.494 1.451 1.451 0 01-.249-.872 1.335 1.335 0 01.249-.744 2.484 2.484 0 00.5-1.62 2.484 2.484 0 00-.5-1.618 1.335 1.335 0 01-.249-.747 1.335 1.335 0 01.249-.747 2.484 2.484 0 00.5-1.62.747.747 0 10-1.494 0 1.335 1.335 0 01-.249.748 2.484 2.484 0 00-.5 1.617 2.484 2.484 0 00.5 1.619 1.335 1.335 0 01.249.747 1.335 1.335 0 01-.249.747 2.484 2.484 0 00-.5 1.618zm-10.21 0a2.237 2.237 0 00.5 1.62 1.335 1.335 0 01.249.747.8.8 0 00.747.747.8.8 0 00.747-.747 2.105 2.105 0 00-.5-1.494 1.8 1.8 0 01-.249-.872 1.335 1.335 0 01.249-.747 2.484 2.484 0 00.5-1.62 2.484 2.484 0 00-.5-1.618c-.125-.25-.249-.374-.249-.623a1.335 1.335 0 01.249-.747 2.484 2.484 0 00.5-1.62.8.8 0 00-.749-.745.8.8 0 00-.747.747 1.335 1.335 0 01-.249.747 2.772 2.772 0 00-.5 1.619 2.105 2.105 0 00.5 1.494 1.335 1.335 0 01.249.747 1.335 1.335 0 01-.247.746 2.484 2.484 0 00-.5 1.62z" fill="#666"/></svg>