<svg data-name="Layer 1" xmlns="http://www.w3.org/2000/svg" viewBox="0 0 31.9 27.002"><path d="M14.7 4.902a.751.751 0 00-.7.7v6.8h-3.5a.7.7 0 000 1.4h4.9v-8.2a.684.684 0 00-.668-.7H14.7zm17.2-4.2a.751.751 0 00-.7-.7H9.6a.72.72 0 00-.7.4l-2.8 12.1H3.9a.706.706 0 00-.7.5l-1.6 3.8v1.8H.7a.751.751 0 00-.7.7v3.3a.751.751 0 00.7.7h3.2v.1a3.6 3.6 0 007.2 0v-.1h7v.1a3.6 3.6 0 007.2 0v-.1h5.6a.751.751 0 00.7-.7V.702zm-1.4 15.6h-4.6v-14.9h4.6zm-6-14.9v14.9h-4.6v-14.9zm-16.9 24.2a2.218 2.218 0 01-2.2-2.2 2.366 2.366 0 012.2-2.2 2.366 2.366 0 012.2 2.2 2.289 2.289 0 01-2.2 2.2zm14.3 0a2.218 2.218 0 01-2.2-2.2 2.366 2.366 0 012.2-2.2 2.2 2.2 0 11.002 4.4zm3.3-3.7a3.643 3.643 0 00-6.6 0h-7.7a3.643 3.643 0 00-6.6 0H1.4v-1.9h1.1a.751.751 0 00.7-.7v-2.2l1.4-3.2h2.2a.661.661 0 00.7-.6l2.8-12.1h8.2v15.4a.751.751 0 00.7.7h11.4v4.2h-5.4z" fill="#595959"/></svg>