<svg data-name="Layer 1" xmlns="http://www.w3.org/2000/svg" viewBox="0 0 31.931 30.926"><path d="M0 23.026v7.9h31.8v-7.9zm1.5 1.5h24.8v5H1.5zm29 5.1h-2.6v-4.9h2.6zm-27.4-14.9c2.3 1.9 6.2 1.6 10.8-.5 4.3-2 7.9-2.4 10.9-1 4.3 2 5.7 7 5.7 7.2a.76.76 0 00.8.6h.1a.715.715 0 00.507-.875l-.007-.025c0-.3-1.5-5.8-6.4-8.1-3.4-1.6-7.6-1.3-12.2 1-3.9 1.9-7.4 2.1-9.2.8a3.216 3.216 0 01-1-3.4c.6-2.9 4.5-6.9 13-8.8a.875.875 0 00.6-.9.875.875 0 00-.9-.6c-9.3 1.8-13.4 6.3-14.2 9.7a4.426 4.426 0 001.5 4.9zm20.2 1.2c-2.4-.9-5.2-.6-8.2.8-.4.1-.5.6-.4 1s.6.5 1 .4a8.922 8.922 0 017-.8 6.822 6.822 0 013.6 3.5.792.792 0 00.8.5h.3a.7.7 0 00.4-1 8.778 8.778 0 00-4.5-4.4zm-3.4-8a1.332 1.332 0 00.5.3.683.683 0 00.5-.3l2.8-2.8 2.8 2.8a1.332 1.332 0 00.5.3.683.683 0 00.5-.3.666.666 0 000-1l-2.6-2.9 2.8-2.8a.666.666 0 000-1 .666.666 0 00-1 0l-2.8 2.8-2.9-2.7a.666.666 0 00-1 0 .666.666 0 000 1l2.8 2.8-2.8 2.7c-.4.4-.4.9-.1 1.1z" fill="#595959"/></svg>