<svg data-name="Layer 1" xmlns="http://www.w3.org/2000/svg" viewBox="0 0 32.2 32.2"><path d="M0 0v32.2h32.2V0zm30.6 30.6H1.8V1.8h28.9v28.8zM5.5 10.4a.86.86 0 00.8-.8V7.5l4.3 4.3a1.332 1.332 0 00.5.3.683.683 0 00.5-.3.785.785 0 000-1.1L7.5 6.4h2.1a.86.86 0 00.8-.8.86.86 0 00-.8-.8H5.2l-.4.4v4.4a.709.709 0 00.7.8zm-.3 17.2h4.4a.8.8 0 000-1.6H7.5l4.3-4.3a.778.778 0 00-1.1-1.1l-4.3 4.3v-2.1a.86.86 0 00-.8-.8.86.86 0 00-.8.8v4.4c.1.1.3.2.4.4zm19.6-1.5h-2.1a.8.8 0 100 1.6h4.4c.1-.1.4-.3.4-.4v-4.4a.8.8 0 10-1.6 0V25l-4.3-4.4a.778.778 0 00-1.1 1.1zm-3.7-14a.462.462 0 00.5-.3l4.3-4.3v2.1a.8.8 0 001.6 0V5.2c-.1-.1-.3-.4-.4-.4h-4.4a.86.86 0 00-.8.8.86.86 0 00.8.8h2.1l-4.3 4.3a.785.785 0 000 1.1c.2.3.3.3.6.3zM18 16.2a2.112 2.112 0 00-2.1-2.1h-1.5v4.3h1.5a2.353 2.353 0 002.1-2.2zm-2.5 1.2v-2.3h.3a1.2 1.2 0 010 2.4h-.3z" fill="#595959"/></svg>