<svg data-name="Layer 1" xmlns="http://www.w3.org/2000/svg" viewBox="0 0 32 32"><path d="M0 0v32h32V0zm30.4 30.4H1.8V1.8h28.7v28.6zm-25-20.1a.86.86 0 00.8-.8v-2l4.2 4.2a1.332 1.332 0 00.5.3.683.683 0 00.5-.3.785.785 0 000-1.1L7.5 6.4h2a.86.86 0 00.8-.8.86.86 0 00-.8-.8H5.1a1.38 1.38 0 00-.3.4v4.4c-.2.3.2.7.6.7zm-.2 17.1h4.4a.8.8 0 100-1.6h-2l4.2-4.2a.778.778 0 00-1.1-1.1l-4.2 4.2v-2a.86.86 0 00-.8-.8.86.86 0 00-.8.8v4.4zm19.4-1.5h-2a.8.8 0 000 1.6H27c.1-.1.4-.3.4-.4v-4.4a.8.8 0 00-1.6 0v2l-4.2-4.4a.778.778 0 00-1.1 1.1zM21 12a.462.462 0 00.5-.3l4.2-4.2v2a.8.8 0 001.6 0V5.1c-.1-.1-.2-.3-.3-.3h-4.4a.86.86 0 00-.8.8.86.86 0 00.8.8h2l-4.2 4.2a.785.785 0 000 1.1c.2.3.3.3.6.3zm-5.7 4.3l1.3 1.8H18l-1.8-2.2 1.6-1.9h-1.3l-1.2 1.7V14h-1.1v4.1h1.1z" fill="#595959"/></svg>