<svg data-name="Layer 1" xmlns="http://www.w3.org/2000/svg" viewBox="0 0 25.504 18.125"><path d="M18.902 10.725a.367.367 0 01-.3-.1 11.019 11.019 0 00-11.6 0 .524.524 0 01-.8-.2.54.54 0 01.2-.8 12.277 12.277 0 0112.8 0 .54.54 0 01.2.8.55.55 0 01-.5.3zm3-3.1a.367.367 0 01-.3-.1 16.459 16.459 0 00-17.6 0 .54.54 0 01-.8-.2.54.54 0 01.2-.8 17.713 17.713 0 0118.8 0 .54.54 0 01.2.8.55.55 0 01-.5.3zm-21.3-3a.55.55 0 01-.5-.3.54.54 0 01.2-.8 23.748 23.748 0 0124.9 0 .54.54 0 01.2.8.54.54 0 01-.8.2 22.491 22.491 0 00-23.7 0 .367.367 0 01-.3.1zm12.2 13.5a3.1 3.1 0 113.1-3.1 3.116 3.116 0 01-3.1 3.1zm0-5a1.9 1.9 0 101.9 1.9 1.9 1.9 0 00-1.9-1.9z" fill="#595959"/></svg>