<svg xmlns="http://www.w3.org/2000/svg" viewBox="0 0 71.458 89.999"><path d="M0,0V71.458H71.458V0ZM34.305,25.559H22.034v31.39h-10.1V14.508h10.1v.949H34.305v10.1ZM61.322,56H49.051v.949H38.983V14.508h10.1V45.9H61.356V56Z"/><path d="M.1,241.6a.2.2,0,0,1,.2-.2H.744a.2.2,0,0,1,.2.2v3.39H5.659V241.6a.2.2,0,0,1,.2-.2H6.3a.2.2,0,0,1,.2.2v7.661a.2.2,0,0,1-.2.2H5.863a.2.2,0,0,1-.2-.2v-3.492H.981v3.492a.2.2,0,0,1-.2.2H.3a.2.2,0,0,1-.2-.2Z" transform="translate(-0.066 -159.569)"/><path d="M37.269,240.9a4.169,4.169,0,1,1-4.169,4.169,4.169,4.169,0,0,1,4.169-4.169Zm0,7.559a3.373,3.373,0,1,0-3.356-3.39v.034a3.342,3.342,0,0,0,3.356,3.356Z" transform="translate(-21.88 -159.239)"/><path d="M70.1,242.146h-2a.2.2,0,0,1-.2-.2V241.6a.2.2,0,0,1,.2-.2h4.915a.2.2,0,0,1,.2.2v.339a.2.2,0,0,1-.2.2h-2.03v7.119a.2.2,0,0,1-.2.2h-.441a.2.2,0,0,1-.2-.2l-.034-7.119Z" transform="translate(-44.883 -159.569)"/><path d="M95.9,241.6a.2.2,0,0,1,.2-.2h4.576a.2.2,0,0,1,.2.2v.339a.2.2,0,0,1-.2.2H96.815v2.814h3.322a.2.2,0,0,1,.2.2v.339a.2.2,0,0,1-.2.2H96.815v2.949h3.9a.2.2,0,0,1,.2.2v.339a.2.2,0,0,1-.2.2H96.137a.2.2,0,0,1-.2-.2V241.6Z" transform="translate(-63.392 -159.569)"/><path d="M124.734,241.6a.2.2,0,0,1,.2-.2h.441a.2.2,0,0,1,.2.2v7.119H128.9a.2.2,0,0,1,.2.2v.339a.2.2,0,0,1-.2.2h-4a.2.2,0,0,1-.2-.2l.034-7.661Z" transform="translate(-82.429 -159.569)"/><path d="M166.3,241.6a.2.2,0,0,1,.2-.2h3.017a2.525,2.525,0,0,1,2.542,2.475h0a2.581,2.581,0,0,1-1.729,2.373l1.593,2.949a.221.221,0,0,1-.068.3c-.034.034-.068.034-.136.034h-.61a.242.242,0,0,1-.2-.1l-1.525-3.085h-2.2V249.3a.2.2,0,0,1-.2.2h-.441a.2.2,0,0,1-.2-.2Zm3.153,3.932a1.661,1.661,0,0,0,0-3.322h-2.237v3.322Z" transform="translate(-109.927 -159.569)"/><path d="M197.4,241.6a.2.2,0,0,1,.2-.2h.441a.2.2,0,0,1,.2.2v7.119H201.6a.2.2,0,0,1,.2.2v.339a.2.2,0,0,1-.2.2h-4a.2.2,0,0,1-.2-.2V241.6Z" transform="translate(-130.485 -159.569)"/></svg>