<?xml version="1.0" encoding="utf-8"?>
<!-- Generator: Adobe Illustrator 23.0.1, SVG Export Plug-In . SVG Version: 6.00 Build 0)  -->
<svg version="1.1" id="Layer_1" xmlns="http://www.w3.org/2000/svg" xmlns:xlink="http://www.w3.org/1999/xlink" x="0px" y="0px"
	 viewBox="0 0 328.4 196.5" style="enable-background:new 0 0 328.4 196.5;" xml:space="preserve">
<style type="text/css">
	.st0{fill:#AE1E22;}
</style>
<path class="st0" d="M217.1,120h0.4C217.4,119.9,217.3,120,217.1,120z"/>
<path class="st0" d="M326.2,0H2.2C1,0,0,1,0,2.2v148.6c0,1.2,1,2.2,2.2,2.2h324c1.2,0,2.2-1,2.2-2.2V2.2C328.4,1,327.4,0,326.2,0z
	 M105.8,117.6c0.4,0.6,0.5,1.4,0.2,2.1c-0.3,0.5-0.8,0.8-1.4,0.8h-4c-0.9,0.1-1.8-0.5-2.1-1.3l-18.8-33l-3.5-5.7h0.7
	c11.6,0,24.4-8.8,24.4-21.5c0-11.4-10.1-20.7-22.6-20.7H52l-0.1,80c-0.1,1.2-1.1,2.1-2.2,2c-0.1,0-0.1,0-0.2,0h-2.3
	c-1.1,0-2-0.9-2.1-2V33.9c0-1.1,0.9-2,2.1-2c0,0,0,0,0,0h32c16.4,0,29.2,12,29.2,27.2c0,12.2-8.5,22.8-21.1,26.4L105.8,117.6z
	 M190.3,118.7c0,1.2-1.1,2.2-2.3,2.1c0,0-0.1,0-0.1,0h-48.8c-1.3,0-2.4-1.1-2.4-2.4V33.9c0-1.3,1.1-2.4,2.4-2.4h2.8
	c1.3,0.1,2.3,1.1,2.3,2.4V114h43.6c2.4,0,2.4,1.7,2.4,2.4L190.3,118.7L190.3,118.7z M283.3,118.3c0.1,1.3-0.9,2.3-2.2,2.4
	c-0.1,0-0.1,0-0.2,0h-2.7c-1.3,0-2.4-1.1-2.4-2.4V79.8h-56.2v38.5c0.1,1.3-0.9,2.3-2.2,2.4c-0.1,0-0.1,0-0.2,0h-2.7
	c-1.3,0-2.4-1.1-2.4-2.4V34.2c0-1.3,1.1-2.4,2.4-2.4h2.7c1.3-0.1,2.3,0.9,2.4,2.2c0,0.1,0,0.1,0,0.2v38.9h56.2V34.2
	c0-1.3,1.1-2.4,2.4-2.4h2.7c1.3-0.1,2.3,0.9,2.4,2.2c0,0.1,0,0.1,0,0.2L283.3,118.3z"/>
<path class="st0" d="M217.1,32.6L217.1,32.6z"/>
<path class="st0" d="M58.8,190.7h-3c-0.9,1.9-2.2,2.9-4,2.9c-0.7,0-1.3-0.2-1.9-0.5c-0.5-0.3-1-0.6-1.3-1.1
	c-0.4-0.5-0.7-1.1-0.8-1.8c-0.3-2.8-0.3-5.6,0-8.4c0.1-0.7,0.4-1.3,0.8-1.8c0.4-0.4,0.8-0.8,1.3-1.1c0.6-0.3,1.2-0.5,1.9-0.5
	c0.9,0,1.9,0.3,2.6,0.9c0.6,0.6,1.1,1.3,1.4,2.1h3c-0.3-1.6-1.1-3.1-2.3-4.2c-1.3-1.1-3-1.8-4.7-1.8c-1.4-0.1-2.8,0.4-3.9,1.2
	c-1,0.6-1.8,1.5-2.3,2.5c-0.3,0.6-0.6,1.3-0.7,2c-0.2,1.6-0.2,3.3-0.2,4.9c0,1.6,0,3.2,0.2,4.8c0.1,0.4,0.2,0.8,0.3,1.1
	s0.3,0.6,0.4,0.9c0.6,1,1.4,1.8,2.3,2.5c1.2,0.7,2.5,1.2,3.9,1.2c1.6,0,3.2-0.5,4.5-1.5C57.5,193.8,58.4,192.3,58.8,190.7z"/>
<path class="st0" d="M81.7,179.2c-0.5-1-1.3-1.9-2.3-2.5c-1.2-0.7-2.5-1.1-3.9-1.1c-1.4,0-2.7,0.3-3.9,1.1c-1,0.6-1.8,1.5-2.3,2.5
	c-0.3,0.6-0.6,1.3-0.7,2c-0.3,3.2-0.3,6.4,0,9.6c0.1,0.4,0.2,0.8,0.3,1.1c0.1,0.3,0.2,0.6,0.4,0.9c0.6,1,1.4,1.8,2.3,2.5
	c1.2,0.8,2.5,1.2,3.9,1.2c1.4,0.1,2.8-0.4,3.9-1.2c0.9-0.7,1.7-1.5,2.3-2.5c0.4-0.6,0.6-1.3,0.7-2c0.3-3.2,0.3-6.4,0-9.6
	C82.3,180.5,82,179.8,81.7,179.2z M79.5,190.2c-0.1,0.7-0.4,1.3-0.8,1.8c-0.3,0.5-0.8,0.8-1.3,1.1c-0.6,0.3-1.3,0.5-2,0.5
	c-0.7,0-1.3-0.2-1.9-0.5c-0.5-0.3-1-0.6-1.3-1.1c-0.4-0.5-0.7-1.1-0.8-1.8c-0.3-2.8-0.3-5.6,0-8.4c0.1-0.7,0.4-1.3,0.8-1.8
	c0.4-0.4,0.8-0.8,1.3-1.1c0.6-0.3,1.2-0.5,1.9-0.5c0.7,0,1.4,0.2,2,0.5c0.5,0.3,0.9,0.7,1.3,1.1c0.4,0.5,0.7,1.1,0.8,1.8
	C79.8,184.6,79.8,187.4,79.5,190.2z"/>
<path class="st0" d="M100.3,187.4l4.1,8.8h3.3l-4.6-9.2l0.1-0.1c2.4-0.8,4-3.2,3.8-5.7c0-1.7-0.7-3.3-2-4.3c-1.1-0.9-2.6-1.4-4-1.3
	h-7.8v20.6H96v-8.9L100.3,187.4L100.3,187.4z M96.1,184.8v-6.6h4.9c0.8-0.1,1.7,0.2,2.3,0.7c0.7,0.6,1.1,1.5,1.1,2.5
	c0,0.9-0.3,1.7-0.9,2.4c-0.7,0.8-1.7,1.2-2.7,1.1L96.1,184.8L96.1,184.8z"/>
<path class="st0" d="M130.6,186.1c1-1.1,1.6-2.6,1.6-4.1c0-1-0.2-2-0.6-2.9c-0.4-0.8-0.9-1.4-1.5-2c-0.6-0.6-1.4-1-2.2-1.2
	c-0.8-0.1-1.5-0.2-2.3-0.2h-7.2v20.6h2.8v-8.1h4.8C127.8,188.2,129.4,187.4,130.6,186.1z M121.3,185.4L121.3,185.4l-0.1-7h4.5
	c0.8,0,1.6,0.2,2.3,0.6c0.4,0.3,0.8,0.6,1,1.1c0.2,0.6,0.3,1.2,0.3,1.8c0,0.9-0.3,1.7-0.8,2.4c-0.7,0.8-1.7,1.2-2.7,1.1L121.3,185.4
	L121.3,185.4z"/>
<path class="st0" d="M153.7,179.2c-0.5-1-1.3-1.9-2.3-2.5c-1.2-0.7-2.5-1.1-3.9-1.1c-1.4,0-2.7,0.3-3.9,1.1c-1,0.6-1.8,1.5-2.3,2.5
	c-0.3,0.6-0.6,1.3-0.7,2c-0.3,3.2-0.3,6.4,0,9.6c0.1,0.4,0.2,0.8,0.3,1.1c0.1,0.3,0.2,0.6,0.4,0.9c0.6,1,1.4,1.8,2.3,2.5
	c1.2,0.8,2.5,1.2,3.9,1.2c1.4,0.1,2.8-0.4,3.9-1.2c0.9-0.7,1.7-1.5,2.3-2.5c0.4-0.6,0.6-1.3,0.7-2c0.3-3.2,0.3-6.4,0-9.6
	C154.4,180.5,154.1,179.8,153.7,179.2z M151.6,190.2c-0.1,0.7-0.4,1.3-0.8,1.8c-0.3,0.5-0.8,0.8-1.3,1.1c-0.6,0.3-1.3,0.5-2,0.5
	c-0.7,0-1.3-0.2-1.9-0.5c-0.5-0.3-1-0.6-1.3-1.1c-0.4-0.5-0.7-1.1-0.8-1.8c-0.3-2.8-0.3-5.6,0-8.4c0.1-0.7,0.4-1.3,0.8-1.8
	c0.4-0.4,0.8-0.8,1.3-1.1c0.6-0.3,1.2-0.5,1.9-0.5c0.7,0,1.4,0.2,2,0.5c0.5,0.3,0.9,0.7,1.3,1.1c0.4,0.5,0.7,1.1,0.8,1.8
	C151.9,184.6,151.9,187.4,151.6,190.2z"/>
<path class="st0" d="M172.1,187.4l4.1,8.8h3.3l-4.6-9.2l0.1-0.1c2.4-0.8,4-3.2,3.8-5.7c0-1.7-0.7-3.3-2-4.3c-1.1-0.9-2.6-1.4-4-1.3
	H165v20.6h2.8v-8.9L172.1,187.4L172.1,187.4z M167.9,184.8v-6.6h4.9c0.8-0.1,1.7,0.2,2.3,0.7c0.7,0.6,1.1,1.5,1.1,2.5
	c0,0.9-0.3,1.7-0.9,2.4c-0.7,0.8-1.7,1.2-2.7,1.1L167.9,184.8L167.9,184.8z"/>
<path class="st0" d="M198.7,191.6l1.6,4.7h3l-7.2-20.6h-2.4l-7.2,20.6h3l1.6-4.7H198.7z M191.7,188.9l2.9-9.2h0.2v0.1l3,9.3h-6.2
	L191.7,188.9z"/>
<path class="st0" d="M220.6,175.7h-13.9v2.5h5.5v18.1h2.8v-18.1h5.6V175.7z"/>
<rect x="230.3" y="175.7" class="st0" width="2.8" height="20.6"/>
<path class="st0" d="M258.3,179.2c-0.5-1-1.3-1.9-2.3-2.5c-1.2-0.7-2.5-1.1-3.9-1.1c-1.4,0-2.7,0.3-3.9,1.1c-1,0.6-1.8,1.5-2.3,2.5
	c-0.3,0.6-0.6,1.3-0.7,2c-0.3,3.2-0.3,6.4,0,9.6c0.1,0.4,0.2,0.8,0.3,1.1c0.1,0.3,0.2,0.6,0.4,0.9c0.6,1,1.4,1.8,2.3,2.5
	c1.2,0.8,2.5,1.2,3.9,1.2c1.4,0.1,2.8-0.4,3.9-1.2c0.9-0.7,1.7-1.5,2.3-2.5c0.4-0.6,0.6-1.3,0.7-2c0.3-3.2,0.3-6.4,0-9.6
	C258.9,180.5,258.6,179.8,258.3,179.2z M256.1,190.2c-0.1,0.7-0.4,1.3-0.8,1.8c-0.3,0.5-0.8,0.8-1.3,1.1c-0.6,0.3-1.3,0.5-2,0.5
	c-0.7,0-1.3-0.2-1.9-0.5c-0.5-0.3-1-0.6-1.3-1.1c-0.4-0.5-0.7-1.1-0.8-1.8c-0.2-1.4-0.3-2.8-0.2-4.2c0-1.4,0-2.8,0.2-4.2
	c0.1-0.7,0.4-1.3,0.8-1.8c0.4-0.4,0.8-0.8,1.3-1.1c0.6-0.3,1.2-0.5,1.9-0.5c0.7,0,1.4,0.2,2,0.5c0.5,0.3,0.9,0.7,1.3,1.1
	c0.4,0.5,0.7,1.1,0.8,1.8c0.1,1.4,0.2,2.8,0.2,4.2C256.4,187.4,256.3,188.8,256.1,190.2L256.1,190.2z"/>
<path class="st0" d="M271.8,181.5l9.1,14.8h2.7v-20.6h-2.8v14.8h-0.2l-0.1-0.1l-9.1-14.7h-2.6v20.6h2.8v-14.8H271.8z"/>
</svg>
