<svg id="Layer_1" data-name="Layer 1" xmlns="http://www.w3.org/2000/svg" viewBox="0 0 328.40002 196.51268"><title>rlh_white</title><path d="M217.1,120h.4C217.4,119.9,217.3,120,217.1,120Z" fill="#fff"/><path d="M326.2,0H2.2A2.21953,2.21953,0,0,0,0,2.2V150.8A2.21953,2.21953,0,0,0,2.2,153h324a2.21953,2.21953,0,0,0,2.2-2.2V2.2A2.21957,2.21957,0,0,0,326.2,0ZM105.8,117.6a2.23224,2.23224,0,0,1,.2,2.1,1.59592,1.59592,0,0,1-1.4.8h-4a2.0834,2.0834,0,0,1-2.1-1.3l-18.8-33-3.5-5.7h.7c11.6,0,24.4-8.8,24.4-21.5,0-11.4-10.1-20.7-22.6-20.7H52l-.1,80a2.1077,2.1077,0,0,1-2.2,2H47.2a2.16479,2.16479,0,0,1-2.1-2V33.9a2.02959,2.02959,0,0,1,2.1-2h32c16.4,0,29.2,12,29.2,27.2,0,12.2-8.5,22.8-21.1,26.4Zm84.5,1.1a2.15934,2.15934,0,0,1-2.3,2.1H139.1a2.43339,2.43339,0,0,1-2.4-2.4V33.9a2.4334,2.4334,0,0,1,2.4-2.4h2.8a2.41389,2.41389,0,0,1,2.3,2.4V114h43.6c2.4,0,2.4,1.7,2.4,2.4l.1,2.3Zm93-.4a2.26255,2.26255,0,0,1-2.2,2.4h-2.9a2.43339,2.43339,0,0,1-2.4-2.4V79.8H219.6v38.5a2.26253,2.26253,0,0,1-2.2,2.4h-2.9a2.43338,2.43338,0,0,1-2.4-2.4V34.2a2.4334,2.4334,0,0,1,2.4-2.4h2.7a2.26254,2.26254,0,0,1,2.4,2.2V73.1h56.2V34.2a2.4334,2.4334,0,0,1,2.4-2.4h2.7a2.26257,2.26257,0,0,1,2.4,2.2v.2Z" fill="#fff"/><path d="M217.1,32.6Z" fill="#fff"/><path d="M58.8,190.7h-3c-.9,1.9-2.2,2.9-4,2.9a4.13619,4.13619,0,0,1-1.9-.5,3.482,3.482,0,0,1-1.3-1.1,3.70413,3.70413,0,0,1-.8-1.8,39.31241,39.31241,0,0,1,0-8.4,3.70417,3.70417,0,0,1,.8-1.8,6.88567,6.88567,0,0,1,1.3-1.1,4.05666,4.05666,0,0,1,4.5.4,5.9568,5.9568,0,0,1,1.4,2.1h3a7.617,7.617,0,0,0-2.3-4.2,7.434,7.434,0,0,0-4.7-1.8,6.02942,6.02942,0,0,0-3.9,1.2,6.141,6.141,0,0,0-2.3,2.5,6.78854,6.78854,0,0,0-.7,2,40.154,40.154,0,0,0-.2,4.9,38.53737,38.53737,0,0,0,.2,4.8c.1.4.2.8.3,1.1s.3.6.4.9a9.15375,9.15375,0,0,0,2.3,2.5,7.76149,7.76149,0,0,0,3.9,1.2,7.38249,7.38249,0,0,0,4.5-1.5A9.40485,9.40485,0,0,0,58.8,190.7Z" fill="#fff"/><path d="M81.7,179.2a6.14107,6.14107,0,0,0-2.3-2.5,7.65473,7.65473,0,0,0-3.9-1.1,6.79474,6.79474,0,0,0-3.9,1.1,6.141,6.141,0,0,0-2.3,2.5,6.78825,6.78825,0,0,0-.7,2,51.3125,51.3125,0,0,0,0,9.6c.1.4.2.8.3,1.1a3.5514,3.5514,0,0,0,.4.9,9.15359,9.15359,0,0,0,2.3,2.5,6.89391,6.89391,0,0,0,3.9,1.2,6.02942,6.02942,0,0,0,3.9-1.2,9.15375,9.15375,0,0,0,2.3-2.5,4.79254,4.79254,0,0,0,.7-2,51.3125,51.3125,0,0,0,0-9.6A6.78854,6.78854,0,0,0,81.7,179.2Zm-2.2,11a3.70417,3.70417,0,0,1-.8,1.8,3.48225,3.48225,0,0,1-1.3,1.1,4.55187,4.55187,0,0,1-2,.5,4.13622,4.13622,0,0,1-1.9-.5,3.48214,3.48214,0,0,1-1.3-1.1,3.70417,3.70417,0,0,1-.8-1.8,39.3112,39.3112,0,0,1,0-8.4,3.70408,3.70408,0,0,1,.8-1.8,6.88609,6.88609,0,0,1,1.3-1.1,4.13619,4.13619,0,0,1,1.9-.5,4.55187,4.55187,0,0,1,2,.5,6.88541,6.88541,0,0,1,1.3,1.1,3.70426,3.70426,0,0,1,.8,1.8A39.3125,39.3125,0,0,1,79.5,190.2Z" fill="#fff"/><path d="M100.3,187.4l4.1,8.8h3.3l-4.6-9.2.1-.1a5.61836,5.61836,0,0,0,3.8-5.7,5.36164,5.36164,0,0,0-2-4.3,5.84516,5.84516,0,0,0-4-1.3H93.2v20.6H96v-8.9l4.3.1Zm-4.2-2.6v-6.6H101a3.1658,3.1658,0,0,1,2.3.7,3.25014,3.25014,0,0,1,1.1,2.5,3.58342,3.58342,0,0,1-.9,2.4,3.1698,3.1698,0,0,1-2.7,1.1l-4.7-.1Z" fill="#fff"/><path d="M130.6,186.1a6.197,6.197,0,0,0,1.6-4.1,7.17294,7.17294,0,0,0-.6-2.9,7.49176,7.49176,0,0,0-1.5-2,4.76747,4.76747,0,0,0-2.2-1.2,17.85047,17.85047,0,0,0-2.3-.2h-7.2v20.6h2.8v-8.1H126A6.22161,6.22161,0,0,0,130.6,186.1Zm-9.3-.7h0l-.1-7h4.5a4.64517,4.64517,0,0,1,2.3.6,2.66041,2.66041,0,0,1,1,1.1,5.66249,5.66249,0,0,1,.3,1.8,4.06878,4.06878,0,0,1-.8,2.4,3.16978,3.16978,0,0,1-2.7,1.1l-4.5,0Z" fill="#fff"/><path d="M153.7,179.2a6.14107,6.14107,0,0,0-2.3-2.5,7.65472,7.65472,0,0,0-3.9-1.1,6.79468,6.79468,0,0,0-3.9,1.1,6.14107,6.14107,0,0,0-2.3,2.5,6.78823,6.78823,0,0,0-.7,2,51.3108,51.3108,0,0,0,0,9.6c.1.4.2.8.3,1.1a3.55237,3.55237,0,0,0,.4.9,9.15378,9.15378,0,0,0,2.3,2.5,6.89388,6.89388,0,0,0,3.9,1.2,6.02939,6.02939,0,0,0,3.9-1.2,9.15394,9.15394,0,0,0,2.3-2.5,4.79266,4.79266,0,0,0,.7-2,51.3108,51.3108,0,0,0,0-9.6A3.72153,3.72153,0,0,0,153.7,179.2Zm-2.1,11a3.70419,3.70419,0,0,1-.8,1.8,3.48214,3.48214,0,0,1-1.3,1.1,4.55194,4.55194,0,0,1-2,.5,4.13611,4.13611,0,0,1-1.9-.5,3.48225,3.48225,0,0,1-1.3-1.1,3.70436,3.70436,0,0,1-.8-1.8,39.3125,39.3125,0,0,1,0-8.4,3.70417,3.70417,0,0,1,.8-1.8,6.88615,6.88615,0,0,1,1.3-1.1,4.13615,4.13615,0,0,1,1.9-.5,4.55194,4.55194,0,0,1,2,.5,6.88566,6.88566,0,0,1,1.3,1.1,3.70428,3.70428,0,0,1,.8,1.8A39.31511,39.31511,0,0,1,151.6,190.2Z" fill="#fff"/><path d="M172.1,187.4l4.1,8.8h3.3l-4.6-9.2.1-.1a5.61837,5.61837,0,0,0,3.8-5.7,5.36164,5.36164,0,0,0-2-4.3,5.84519,5.84519,0,0,0-4-1.3H165v20.6h2.8v-8.9l4.3.1Zm-4.2-2.6v-6.6h4.9a3.16581,3.16581,0,0,1,2.3.7,3.25015,3.25015,0,0,1,1.1,2.5,3.58347,3.58347,0,0,1-.9,2.4,3.16977,3.16977,0,0,1-2.7,1.1l-4.7-.1Z" fill="#fff"/><path d="M198.7,191.6l1.6,4.7h3l-7.2-20.6h-2.4l-7.2,20.6h3l1.6-4.7Zm-7-2.7,2.9-9.2h.2v.1l3,9.3h-6.2Z" fill="#fff"/><path d="M220.6,175.7H206.7v2.5h5.5v18.1H215V178.2h5.6v-2.5Z" fill="#fff"/><rect x="230.3" y="175.7" width="2.8" height="20.60001" fill="#fff"/><path d="M258.3,179.2a6.14093,6.14093,0,0,0-2.3-2.5,7.65472,7.65472,0,0,0-3.9-1.1,6.79468,6.79468,0,0,0-3.9,1.1,6.14107,6.14107,0,0,0-2.3,2.5,6.78823,6.78823,0,0,0-.7,2,51.3108,51.3108,0,0,0,0,9.6c.1.4.2.8.3,1.1a3.55237,3.55237,0,0,0,.4.9,9.15378,9.15378,0,0,0,2.3,2.5,6.89388,6.89388,0,0,0,3.9,1.2,6.02939,6.02939,0,0,0,3.9-1.2,9.15378,9.15378,0,0,0,2.3-2.5,4.793,4.793,0,0,0,.7-2,51.3142,51.3142,0,0,0,0-9.6A6.78827,6.78827,0,0,0,258.3,179.2Zm-2.2,11a3.70419,3.70419,0,0,1-.8,1.8,3.48214,3.48214,0,0,1-1.3,1.1,4.55194,4.55194,0,0,1-2,.5,4.13611,4.13611,0,0,1-1.9-.5,3.48225,3.48225,0,0,1-1.3-1.1,3.70436,3.70436,0,0,1-.8-1.8,19.7228,19.7228,0,0,1-.2-4.2,29.5375,29.5375,0,0,1,.2-4.2,3.70417,3.70417,0,0,1,.8-1.8,6.88615,6.88615,0,0,1,1.3-1.1,4.13615,4.13615,0,0,1,1.9-.5,4.55194,4.55194,0,0,1,2,.5,6.88566,6.88566,0,0,1,1.3,1.1,3.70428,3.70428,0,0,1,.8,1.8c.1,1.4.2,2.8.2,4.2a19.72607,19.72607,0,0,1-.2,4.2Z" fill="#fff"/><path d="M271.8,181.5l9.1,14.8h2.7V175.7h-2.8v14.8h-.2l-.1-.1-9.1-14.7h-2.6v20.6h2.8V181.5Z" fill="#fff"/></svg>