<?xml version="1.0" encoding="utf-8"?>
<!-- Generator: Adobe Illustrator 23.0.2, SVG Export Plug-In . SVG Version: 6.00 Build 0)  -->
<svg version="1.1" id="Layer_1" xmlns="http://www.w3.org/2000/svg" xmlns:xlink="http://www.w3.org/1999/xlink" x="0px" y="0px"
	 viewBox="0 0 512 512" style="enable-background:new 0 0 512 512;" xml:space="preserve">
<style type="text/css">
	.st0{fill:#AE1E22;}
	.st1{fill:#FFFFFF;}
</style>
<g transform="translate(-6.61252 -6)">
	<path class="st0" d="M515.2,6H10c-1.9,0-3.4,3.3-3.4,7.4v497.3c0,4,1.6,7.4,3.4,7.4h505.1c1.9,0,3.4-3.3,3.4-7.4V13.4
		C518.6,9.3,517.1,6,515.2,6z"/>
	<path class="st0" d="M345.9,247.9h0.6C346.4,247.8,346.2,247.9,345.9,247.9z"/>
	<g>
		<path class="st1" d="M150.4,341.7c0.8,1.2,0.9,2.7,0.4,4c-0.6,1-1.6,1.5-2.7,1.5h-7.7c-1.7,0.1-3.4-0.9-4-2.5l-36.1-63.4l-6.7-11
			h1.3c22.3,0,46.9-16.9,46.9-41.3c0-21.9-19.4-39.8-43.4-39.8H47L46.8,343c-0.1,2.2-2,3.9-4.2,3.8h-4.8c-2.1-0.1-3.9-1.7-4-3.8
			V180.8c0-2.2,1.8-3.9,4-3.8c0,0,0.1,0,0.1,0h61.5c31.5,0,56.1,23.1,56.1,52.3c0,23.4-16.3,43.8-40.5,50.7L150.4,341.7z"/>
		<path class="st1" d="M312.8,343.8c-0.1,2.3-2,4.1-4.3,4c-0.1,0-0.1,0-0.2,0h-94c-2.5,0-4.6-2.1-4.6-4.6V180.8
			c0-2.5,2.1-4.6,4.6-4.6h5.4c2.5,0.1,4.4,2.1,4.4,4.6v153.9H308c4.6,0,4.6,3.3,4.6,4.6L312.8,343.8L312.8,343.8z"/>
		<path class="st1" d="M491.5,343c0.1,2.4-1.7,4.5-4.1,4.6h0c-0.1,0-0.1,0-0.2,0h-5.6c-2.5,0-4.6-2.1-4.6-4.6v-74h-108v74
			c0.1,2.4-1.7,4.5-4.1,4.6h0c-0.1,0-0.1,0-0.2,0h-5.6c-2.5,0-4.6-2.1-4.6-4.6V181.4c0-2.5,2.1-4.6,4.6-4.6h5.2
			c2.4-0.1,4.5,1.7,4.6,4.1c0,0,0,0,0,0c0,0.1,0,0.1,0,0.2v75.1h108v-74.8c0-2.5,2.1-4.6,4.6-4.6h5.2c2.4-0.1,4.5,1.7,4.6,4.1
			c0,0,0,0,0,0c0,0.1,0,0.1,0,0.2v0.4L491.5,343z"/>
	</g>
</g>
</svg>
