<?xml version="1.0" encoding="utf-8"?>
<!-- Generator: Adobe Illustrator 25.2.1, SVG Export Plug-In . SVG Version: 6.00 Build 0)  -->
<svg version="1.1" id="Layer_1" xmlns="http://www.w3.org/2000/svg" xmlns:xlink="http://www.w3.org/1999/xlink" x="0px" y="0px"
	 viewBox="0 0 466.8 178.9" style="enable-background:new 0 0 466.8 178.9;" xml:space="preserve">
<style type="text/css">
	.st0{fill:#787474;}
</style>
<g>
	<path class="st0" d="M434.5,115.4l-307,0.5l12.2,33.6l-40.1-28.6l-41.2,30.6l16.9-48.1L32.6,75l51.7,0.8l0.1-0.4L103,21.7
		l15.5,51.6l322.8,0.1L434.5,115.4z M147,13.6l23.3,49h-9l-4.2-9h-20.3l-4.2,9h-8.9L147,13.6z M172.9,14.4l24.1,28.9L221,14.4v48.3
		h-8.3V36.2l-15.8,19l-15.8-19v26.5h-8.3V14.4z M227.5,15.9h30v7.6H236v11.1h20.2v7.6H236v12.9H258v7.6h-30.5V15.9z M262.7,15.9H281
		c4.3,0,7.8,1.4,10.8,4.3c3,2.8,4.5,6.3,4.5,10.5c0,6.1-3.5,11.1-8.6,13.3l11.4,18.6h-9.5L279.5,46h-0.1h-8.3v16.6h-8.4V15.9z
		 M302,15.9h8.5v46.7H302V15.9z M321.9,22c4.9-4.6,10.8-6.9,17.8-6.9c5.7,0,10.6,1.6,14.7,4.9v8.9c-4.1-4.2-9-6.2-14.7-6.2
		c-4.7,0-8.7,1.6-11.9,4.8c-3.2,3.1-4.7,7.1-4.7,11.9s1.5,8.7,4.7,11.9c3.2,3.2,7.2,4.7,11.9,4.7c5.7,0,10.5-2.1,14.7-6.2v8.9
		c-4,3.3-8.9,4.9-14.7,4.9c-7,0-12.9-2.3-17.8-6.8c-4.8-4.6-7.2-10.4-7.2-17.3C314.7,32.4,317.1,26.6,321.9,22 M378.7,13.6l23.3,49
		h-9l-4.2-9h-20.3l-4.2,9h-8.9L378.7,13.6z M401.6,49.7c4.3,4.1,9.4,6.2,15.3,6.2c5.7,0,9.1-2.6,9.1-5.8c0-1.9-0.8-3.4-2.2-4.6
		c-1.4-1.1-4.2-2.6-8.3-4.2c-8.1-3.4-12.5-7.1-12.5-13.8c0-3.8,1.5-6.8,4.5-9c3-2.3,6.8-3.4,11.4-3.4c4.4,0,8.3,1.1,11.4,3.2v8.5
		c-3.2-2.7-6.9-4.1-11.2-4.1c-4.8,0-7.6,1.9-7.6,4.8c-0.3,1.5,1.1,2.9,2.3,3.9c0.6,0.5,2.7,1.5,3.5,1.9l2.2,1
		c1.1,0.5,1.8,0.7,2.2,0.9c4.5,1.9,7.8,4,9.8,6.2c2,2.2,3,5.1,3,8.6c0,3.8-1.5,7-4.5,9.5c-3,2.5-7.2,3.8-12.5,3.8
		c-6,0-11.3-1.6-15.8-4.8V49.7z M466.8,0H98.7L74.9,64.7L0,64.1l61.5,43.7l-23.7,71L99.7,135l60.2,40.5l-16.7-49.7h301L466.8,0z"/>
	<polygon class="st0" points="378.6,31.1 371.7,46.3 385.6,46.3 	"/>
	<polygon class="st0" points="146.9,31.1 140,46.3 153.9,46.3 	"/>
	<path class="st0" d="M287.9,30.9c0-4.3-3-7.4-7.1-7.4h-9.7v15h9C284.7,38.5,287.9,35.4,287.9,30.9"/>
	<path class="st0" d="M124.4,80.2c-0.9-1.7-6.5-1.7-10.7-0.6c-7.5,2-18.3,23.8-19.5,26.3v0c-0.1,0.1-0.1,0.2-0.2,0.3
		c-0.2-0.3-0.6-1-1.1-1.8c-0.6-1-1.3-2.4-2.4-4.1c-0.7-1.1-1.6-1.8-2.6-2c-1.7-0.3-3.7,0.6-6.5,2.9c-2.1,1.6-0.7,3.5,1,5.9l0.3,0.5
		c2.2,3,3.7,5,4.8,6.2c0.3,0.3,0.6,0.6,0.9,1c0.9,1,1.8,2.1,2.8,3c0.9,0.8,1.8,1.2,2.7,1.2c0.1,0,0.3,0,0.4,0
		c0.9-0.1,1.8-0.7,2.4-1.7c11.6-18.3,15.2-23.8,27.1-35.1C124.7,81.2,124.6,80.5,124.4,80.2"/>
	<path class="st0" d="M144.6,108.6V82.1h10.5c2.1,0,3.9,0.7,5.4,2c1.5,1.3,2.2,2.9,2.2,4.8c0,2.6-1.3,4.6-3.4,5.3
		c3.4,0.6,5.3,3.2,5.3,6.6c0,2.2-0.8,4.1-2.3,5.6c-1.5,1.5-3.4,2.2-5.7,2.2H144.6z M150.4,92.7h3.8c1.7,0,2.9-1.2,2.9-2.8
		c0-1.6-1.2-2.7-2.8-2.7h-3.9V92.7z M150.4,103.5h5.1c2,0,3.4-1.4,3.4-3.2c0-1.8-1.4-3.1-3.5-3.1h-5V103.5z"/>
	<polygon class="st0" points="167.2,108.6 167.2,82.1 185.3,82.1 185.3,87.4 173.1,87.4 173.1,92.4 184.5,92.4 184.5,97.6 
		173.1,97.6 173.1,103.2 185.6,103.2 185.6,108.6 	"/>
	<path class="st0" d="M187.9,100.5c2.4,2.1,5.4,3.2,8.9,3.2c2.9,0,4.6-1.1,4.6-2.6c0-0.9-0.4-1.6-1.2-2.1c-0.8-0.5-2.4-1.2-4.7-2
		c-4.5-1.6-7.1-4-7.1-7.9c0-2.3,0.9-4.1,2.7-5.4c1.8-1.3,4.1-2,6.8-2c2.7,0,5.1,0.6,7.1,1.8v5.8c-1.8-1.5-4.1-2.2-6.9-2.2
		c-2.4,0-3.8,0.8-3.8,2.1c0,0.8,0.3,1.3,1.4,1.9l1.3,0.6l1.8,0.7l1.7,0.6c2.6,1,4.3,2.1,5.4,3.3c1.1,1.2,1.6,2.8,1.6,4.8
		c0,4.7-3.6,7.9-10.2,7.9c-3.4,0-6.5-0.8-9.2-2.4V100.5z"/>
	<polygon class="st0" points="213.7,108.6 213.7,87.4 206.5,87.4 206.5,82.1 226.6,82.1 226.6,87.4 219.5,87.4 219.5,108.6 	"/>
	<polygon class="st0" points="248.9,109.9 235.3,82.1 241.6,82.1 248.9,97.6 256.3,82.1 262.6,82.1 	"/>
	<path class="st0" d="M255.3,108.6l13.8-28l13.8,28h-6.2l-2-4.2h-11.1l-2.1,4.2H255.3z M265.7,99.4h6.7l-3.4-7L265.7,99.4z"/>
	<polygon class="st0" points="284.6,108.6 284.6,82.1 290.5,82.1 290.5,103.2 300.8,103.2 300.8,108.6 	"/>
	<path class="st0" d="M301.8,82.1h5.9v15.2c0,4.3,1.8,6.4,5.4,6.4c3.6,0,5.4-2.1,5.4-6.4V82.1h5.9v15.8c0,3.6-1.1,6.3-3.2,8.2
		c-2.1,1.9-4.8,2.9-8.1,2.9c-3.3,0-6-1-8.1-2.9c-2.1-1.9-3.2-4.7-3.2-8.3V82.1z"/>
	<polygon class="st0" points="328,108.6 328,82.1 346.1,82.1 346.1,87.4 333.8,87.4 333.8,92.4 345.2,92.4 345.2,97.6 333.8,97.6 
		333.8,103.2 346.3,103.2 346.3,108.6 	"/>
	<rect x="363.6" y="82.1" class="st0" width="5.9" height="26.5"/>
	<polygon class="st0" points="373.6,108.6 373.6,81.1 391.4,97.2 391.4,82.1 397.2,82.1 397.2,109.6 379.4,93.6 379.4,108.6 	"/>
	<polygon class="st0" points="401.1,108.6 401.1,81.1 418.9,97.2 418.9,82.1 424.6,82.1 424.6,109.6 406.9,93.6 406.9,108.6 	"/>
</g>
</svg>
