<?xml version="1.0" encoding="utf-8"?>
<!-- Generator: Adobe Illustrator 25.2.1, SVG Export Plug-In . SVG Version: 6.00 Build 0)  -->
<svg version="1.1" id="Layer_1" xmlns="http://www.w3.org/2000/svg" xmlns:xlink="http://www.w3.org/1999/xlink" x="0px" y="0px"
	 viewBox="0 0 461.8 195.3" style="enable-background:new 0 0 461.8 195.3;" xml:space="preserve">
<style type="text/css">
	.st0{fill:#787474;}
</style>
<g>
	<polygon class="st0" points="381.3,64.9 374.4,80 388.2,80 	"/>
	<polygon class="st0" points="300.6,64.9 293.7,80 307.5,80 	"/>
	<polygon class="st0" points="207.6,80 221.4,80 214.5,64.9 	"/>
	<path class="st0" d="M356.5,73.1c0-9.8-5-15.8-16.8-15.8H332v31.3h7.8C351.4,88.6,356.5,82.6,356.5,73.1"/>
	<path class="st0" d="M151.1,153.8c-8.5-5.6-20.6-9.5-26.1-3.5c-6.2,6.8-5.1,35.6-5,36.5h-9.7c0-17.8,0.9-28.5-5.6-34.1
		c-5.3-4.5-14.8-0.1-19.9,3.1c0.5-5.6,1.7-13.5-2.5-17.9c-6.2-6.5-16.1-6-35.1,5.2c10.1-14.7,3-29.9-18.5-36.5
		c20.6,1.3,31.4-5.8,33.5-22.8c33.7,40.8,57.3,13.6,22.8-32c19.9,5.7,26.7-6.7,29.7-18.9c3.7,12,16.9,26.7,31.4,18.3
		c-7.4,17.6-11.4,31-11.7,40.6c4.3-0.7,12.8-1.4,15.7,3.8c1.2,2.1,1.5,5.6-1.6,8.5c-1.6,1.5-3,2.8-4.3,4.1c1.4,0.3,2.9,0.7,6,0.7
		h290.1l-8,45C432.4,153.9,151.1,153.9,151.1,153.8 M160.3,55.8c4.8-4.6,10.7-6.8,17.7-6.8c5.7,0,10.5,1.6,14.6,4.8v8.9
		c-4.1-4.1-8.9-6.2-14.6-6.2c-4.7,0-8.7,1.6-11.8,4.7c-3.2,3.1-4.7,7-4.7,11.8c0,4.7,1.5,8.6,4.7,11.8c3.1,3.1,7.1,4.7,11.8,4.7
		c5.6,0,10.5-2.1,14.6-6.2v8.8c-4,3.3-8.8,4.9-14.6,4.9c-6.9,0-12.8-2.3-17.7-6.8c-4.8-4.6-7.2-10.3-7.2-17.1
		C153.1,66.2,155.6,60.4,160.3,55.8 M237.5,48.1l31.9,31V49.8h8.4v45.9l23-48.2l22.9,48.2V49.8h16.7c7.7,0,13.8,2.1,18.1,6.4
		c4.4,4.3,6.5,9.8,6.5,16.8c0,7-2.1,12.6-6.4,16.8c-4.3,4.2-10.3,6.3-18.1,6.3h-16.6l-0.2-0.4v0.4h-8.7l-4.2-9h-20.1l-4.2,9h-8.7
		v1.7L245.8,67v29.1h-8.2l-0.2-0.4v0.4h-8.7l-4.2-9h-20.1l-4.2,9h-8.9l23.2-48.6l22.9,48.2V48.1z M404.5,96.2h-8.9l-4.2-9h-20.1
		l-4.2,9h-8.9l23.2-48.6L404.5,96.2z M405.3,83.3c4.2,4.1,9.3,6.2,15.2,6.2c5.6,0,9-2.6,9-5.7c0-1.9-0.7-3.4-2.2-4.5
		c-1.4-1.1-4.2-2.5-8.3-4.2c-8-3.4-12.4-7.1-12.4-13.7c0-3.8,1.5-6.8,4.4-9c3-2.3,6.7-3.4,11.3-3.4c4.4,0,8.2,1.1,11.3,3.2v8.4
		c-3.1-2.7-6.8-4.1-11.1-4.1c-4.8,0-7.5,1.9-7.5,4.8c-0.3,1.5,1.1,2.9,2.3,3.9c0.6,0.5,2.7,1.5,3.4,1.9l2.2,1
		c1.1,0.5,1.8,0.7,2.1,0.9c4.5,1.9,7.7,4,9.7,6.2c2,2.2,3,5.1,3,8.6c0,3.8-1.5,6.9-4.4,9.5c-3,2.5-7.1,3.7-12.4,3.7
		c-6,0-11.2-1.6-15.6-4.7V83.3z M461.8,33.9H155.5l-5.9,5.4c-5,4.3-9.8,5.5-14.6,3.9c-8.1-2.8-15-13.9-16.8-22.5
		c0,0-2.2-10.1-4.3-20.7c-3.5,25-9.8,64.3-48.9,34.1c42.4,64.4,31,80.2-11.2,27.4C60,91,47.1,102.6,0,100.1
		c33.1,14.9,57.8,25.1,29.9,58.5c55-29.4,52.2-13.2,44.6,12.8c13.9-10.4,25.1-15.7,26.2-9.9c1.6,8.4,0.8,33.8,0.8,33.8h26.7
		c0,0-0.5-32.1,1.8-36.7c4-7.9,13.4-2.3,24.1,5.6c0,0,7.9,6.1,12,11.4c-1.1-3.7-6.9-13.6-7-13.8h280L461.8,33.9z"/>
	<polygon class="st0" points="277.5,96.2 277.7,96.2 277.7,95.7 	"/>
	<path class="st0" d="M160,145.6v-26.2h10.4c2.1,0,3.9,0.7,5.3,1.9c1.5,1.2,2.2,2.9,2.2,4.8c0,2.5-1.2,4.5-3.3,5.3
		c3.3,0.6,5.3,3.1,5.3,6.5c0,2.2-0.7,4.1-2.3,5.5c-1.5,1.5-3.4,2.2-5.7,2.2H160z M165.6,129.9h3.8c1.7,0,2.8-1.2,2.8-2.8
		c0-1.5-1.2-2.7-2.8-2.7h-3.8V129.9z M165.6,140.7h5c2,0,3.4-1.4,3.4-3.2c0-1.8-1.4-3.1-3.4-3.1h-4.9V140.7z"/>
	<polygon class="st0" points="181.7,145.6 181.7,119.5 199.6,119.5 199.6,124.8 187.5,124.8 187.5,129.7 198.8,129.7 198.8,134.8 
		187.5,134.8 187.5,140.4 199.8,140.4 199.8,145.6 	"/>
	<path class="st0" d="M201.5,137.7c2.4,2.1,5.3,3.1,8.8,3.1c2.9,0,4.6-1,4.6-2.6c0-0.9-0.4-1.5-1.2-2c-0.8-0.5-2.4-1.2-4.7-2
		c-4.5-1.6-7.1-3.9-7.1-7.8c0-2.3,0.9-4.1,2.7-5.4c1.8-1.3,4-2,6.7-2c2.7,0,5,0.6,7,1.8v5.7c-1.8-1.5-4.1-2.2-6.8-2.2
		c-2.4,0-3.7,0.8-3.7,2c0,0.7,0.3,1.3,1.3,1.9l1.3,0.6l1.7,0.7l1.6,0.7c2.5,1,4.3,2.1,5.3,3.3c1,1.2,1.6,2.7,1.6,4.7
		c0,4.6-3.5,7.8-10.1,7.8c-3.3,0-6.4-0.8-9.1-2.4V137.7z"/>
	<polygon class="st0" points="226.4,145.6 226.4,124.8 219.3,124.8 219.3,119.5 239.1,119.5 239.1,124.8 232.1,124.8 232.1,145.6 	
		"/>
	<polygon class="st0" points="260,146.9 246.5,119.5 252.7,119.5 260,134.8 267.3,119.5 273.5,119.5 	"/>
	<path class="st0" d="M263.8,145.7l13.6-27.7l13.6,27.7h-6.1l-2-4.2H272l-2,4.2H263.8z M274.1,136.6h6.6l-3.3-6.9L274.1,136.6z"/>
	<polygon class="st0" points="292.2,145.6 292.2,119.5 298,119.5 298,140.4 308.2,140.4 308.2,145.6 	"/>
	<path class="st0" d="M308.6,119.5h5.8v15c0,4.2,1.8,6.3,5.4,6.3c3.6,0,5.3-2.1,5.3-6.3v-15h5.8v15.6c0,3.5-1,6.2-3.1,8.2
		c-2.1,1.9-4.8,2.9-8,2.9c-3.2,0-5.9-0.9-8-2.8c-2.1-1.9-3.2-4.6-3.2-8.2V119.5z"/>
	<polygon class="st0" points="333.8,145.6 333.8,119.5 351.6,119.5 351.6,124.8 339.5,124.8 339.5,129.7 350.8,129.7 350.8,134.8 
		339.5,134.8 339.5,140.4 351.9,140.4 351.9,145.6 	"/>
	<rect x="367.8" y="119.5" class="st0" width="5.8" height="26.1"/>
	<polygon class="st0" points="375.5,145.6 375.5,118.5 393,134.4 393,119.5 398.8,119.5 398.8,146.7 381.2,130.8 381.2,145.6 	"/>
	<polygon class="st0" points="400.5,145.6 400.5,118.5 418.1,134.4 418.1,119.5 423.8,119.5 423.8,146.7 406.2,130.8 406.2,145.6 	
		"/>
	<path class="st0" d="M145.4,98c-1.2-2.2-8-1.9-12.4-0.7c-8.6,2.3-21,27.2-22.4,30c0,0,0,0,0,0c0,0,0,0.1,0,0.1
		c-0.3-0.4-0.7-1.1-1-1.8c-0.6-1.2-1.5-2.8-2.7-4.7c-0.8-1.3-1.9-2.1-3.1-2.3c-1.9-0.3-4.3,0.7-7.6,3.3c-2.5,2-0.5,4.9,1.4,7.6
		c0,0,7.7,9.5,9.8,11.4c1,0.9,2.2,1.4,3.2,1.4c0.2,0,0.3,0,0.5,0c1.1-0.2,2.1-0.9,2.9-2.1c13.3-20.8,17.3-27.1,30.9-39.9
		C145.9,99.2,145.6,98.4,145.4,98"/>
</g>
</svg>
