<?xml version="1.0" encoding="utf-8"?>
<!-- Generator: Adobe Illustrator 25.2.1, SVG Export Plug-In . SVG Version: 6.00 Build 0)  -->
<svg version="1.1" id="Layer_1" xmlns="http://www.w3.org/2000/svg" xmlns:xlink="http://www.w3.org/1999/xlink" x="0px" y="0px"
	 viewBox="0 0 200 200" style="enable-background:new 0 0 200 200;" xml:space="preserve">
<style type="text/css">
	.st0{opacity:0.22;clip-path:url(#SVGID_2_);}
	.st1{filter:url(#Adobe_OpacityMaskFilter);}
	.st2{clip-path:url(#SVGID_4_);fill:url(#SVGID_6_);}
	.st3{clip-path:url(#SVGID_4_);mask:url(#SVGID_5_);}
	.st4{clip-path:url(#SVGID_8_);}
	.st5{fill:#787474;}
</style>
<g>
	<defs>
		<path id="SVGID_1_" d="M184.9,1.1c-1.2,0-86.2,0-86.2,0v51c5.2-9.1,14-16.3,28.3-16.3c19.9,0,31.4,13.4,31.4,32v47.6h-7.5V69.2
			c0-16-9.1-26.5-24.9-26.5c-15.4,0-27.2,11.6-27.2,27.8v45h-7.5V1.1H15.4c-1.8,0-3.5,1.7-3.5,3.5v68.9c7.2-8.8,18.3-13.8,29.5-13.8
			c15.7,0,26.3,8.2,32.8,17.4V61.6h7.5v65.7c0,11.3-3.7,20.1-10,26.4c-3,2.9-6.6,5.3-10.7,7h123.9c2,0,3.6-1.6,3.6-3.4V4.7
			C188.4,2.7,186.8,1.2,184.9,1.1L184.9,1.1z"/>
	</defs>
	<clipPath id="SVGID_2_">
		<use xlink:href="#SVGID_1_"  style="overflow:visible;"/>
	</clipPath>
	<g class="st0">
		<g>
			<defs>
				<rect id="SVGID_3_" x="89.3" y="-1.1" width="107.5" height="31.5"/>
			</defs>
			<clipPath id="SVGID_4_">
				<use xlink:href="#SVGID_3_"  style="overflow:visible;"/>
			</clipPath>
			<defs>
				<filter id="Adobe_OpacityMaskFilter" filterUnits="userSpaceOnUse" x="89.3" y="-1.1" width="107.5" height="31.5">
					<feFlood  style="flood-color:white;flood-opacity:1" result="back"/>
					<feBlend  in="SourceGraphic" in2="back" mode="normal"/>
				</filter>
			</defs>
			<mask maskUnits="userSpaceOnUse" x="89.3" y="-1.1" width="107.5" height="31.5" id="SVGID_5_">
				<g class="st1">
					
						<linearGradient id="SVGID_6_" gradientUnits="userSpaceOnUse" x1="-294.3266" y1="411.6913" x2="-293.4826" y2="411.6913" gradientTransform="matrix(-11.3969 64.6348 64.6348 11.3969 -29816.1309 14319.1113)">
						<stop  offset="0" style="stop-color:#FFFFFF"/>
						<stop  offset="0.1512" style="stop-color:#FFFFFF"/>
						<stop  offset="0.1932" style="stop-color:#D2D2D2"/>
						<stop  offset="0.2501" style="stop-color:#9B9B9B"/>
						<stop  offset="0.3075" style="stop-color:#6B6B6B"/>
						<stop  offset="0.3641" style="stop-color:#454545"/>
						<stop  offset="0.4199" style="stop-color:#272727"/>
						<stop  offset="0.4745" style="stop-color:#111111"/>
						<stop  offset="0.5275" style="stop-color:#040404"/>
						<stop  offset="0.577" style="stop-color:#000000"/>
						<stop  offset="0.9402" style="stop-color:#000000"/>
						<stop  offset="1" style="stop-color:#000000"/>
					</linearGradient>
					<polygon class="st2" points="202.2,-0.1 193.6,48.8 83.9,29.5 92.5,-19.4 					"/>
				</g>
			</mask>
			<g class="st3">
				<g>
					<defs>
						<rect id="SVGID_7_" x="89.3" y="-1.1" width="107.5" height="31.5"/>
					</defs>
					<clipPath id="SVGID_8_">
						<use xlink:href="#SVGID_7_"  style="overflow:visible;"/>
					</clipPath>
					<g class="st4">
						<polygon points="189.2,29.6 189.2,-0.2 185.6,-0.2 96.9,-0.2 96.9,29.6 						"/>
					</g>
				</g>
			</g>
		</g>
	</g>
</g>
<g>
	<g>
		<path class="st5" d="M145.5,124.3c-1.4,0-2.4,1.1-2.6,2.7l5.1,0C147.9,125.5,147.1,124.3,145.5,124.3z"/>
		<path class="st5" d="M106.9,144.9L106.9,144.9c0,1,0.9,1.6,2,1.6c1.4,0,2.6-0.9,2.6-2.1l0-0.8c-0.6-0.2-1.4-0.3-2.3-0.3
			C107.7,143.3,106.9,144,106.9,144.9z"/>
		<path class="st5" d="M118.2,124.2c-1.4,0-2.4,1.1-2.6,2.7l5.1,0C120.6,125.5,119.8,124.2,118.2,124.2z"/>
		<path class="st5" d="M136.1,124.3c-1.5,0-2.8,1.1-2.8,3v0c0,1.9,1.3,3,2.8,3c1.5,0,2.8-1.2,2.8-3v0
			C138.9,125.6,137.5,124.3,136.1,124.3z"/>
		<path class="st5" d="M42.2,126.4c16.3,0,32.5-11.9,32.5-29.6v-0.3c0-18-16.2-29.6-32.5-29.6c-16.2,0-29.9,11-30.3,28.7v1.7
			C12.2,114.5,26.2,126.4,42.2,126.4z"/>
		<path class="st5" d="M74.2,126.9v-11.3c-6.8,9.6-17.2,18-32.8,18c-11.2,0-22.3-5-29.5-13.7v26c0,0.1,0,0.2,0,0.4
			c9.3,7.1,20,10.8,31.5,10.8C61.4,157.1,74.2,146.9,74.2,126.9z"/>
		<path class="st5" d="M184.9,1.1c-1.2,0-86.2,0-86.2,0v51c5.2-9.2,14-16.3,28.3-16.3c19.9,0,31.4,13.4,31.4,32v47.6h-7.5V69.2
			c0-16-9.1-26.5-24.9-26.5c-15.4,0-27.2,11.6-27.2,27.8v45h-7.5V1.1H15.4c-1.8,0-3.5,1.7-3.5,3.5v68.9c7.2-8.8,18.3-13.8,29.5-13.8
			c15.7,0,26.3,8.2,32.8,17.4V61.6h7.5v65.7c0,11.3-3.7,20.1-10,26.4c-3,2.9-6.6,5.3-10.7,7h123.9c2,0,3.6-1.6,3.6-3.4V4.7
			C188.4,2.7,186.8,1.1,184.9,1.1z M100.5,123.4l1.3,0l2.3,3.1l2.3-3.1l1.3,0l-3,3.8l3.1,4l-1.4,0l-2.4-3.2l-2.5,3.2l-1.3,0l3.1-4
			L100.5,123.4z M98.7,144.4c0,1.8-1.5,3-3.6,3c-1.7,0-3.1-0.6-4.3-1.7l0.7-0.9c1.1,1,2.2,1.5,3.6,1.5c1.4,0,2.4-0.8,2.4-1.8v0
			c0-1-0.5-1.6-2.8-2c-2.4-0.5-3.6-1.3-3.6-3.1v0c0-1.7,1.5-2.9,3.5-2.9c1.6,0,2.7,0.4,3.7,1.3l-0.7,0.9c-1-0.8-2-1.2-3.1-1.2
			c-1.4,0-2.3,0.8-2.3,1.7v0c0,1,0.5,1.6,2.9,2.1C97.6,141.9,98.7,142.8,98.7,144.4L98.7,144.4z M99.2,131.2l-7.8,0l0-10.6l7.7,0
			l0,1.1l-6.5,0l0,3.6l5.8,0l0,1.1l-5.8,0l0,3.7l6.6,0L99.2,131.2z M104.6,140.5l-2.5,0l0,4.6c0,1,0.5,1.3,1.3,1.3
			c0.4,0,0.7-0.1,1.1-0.3l0,1c-0.4,0.2-0.9,0.3-1.4,0.3c-1.3,0-2.2-0.6-2.2-2.2l0-4.7l-1.1,0l0-1l1.1,0l0-2.4l1.2,0l0,2.4l2.5,0
			L104.6,140.5z M112.6,147.3l-1.1,0l0-1.2c-0.5,0.7-1.5,1.4-2.8,1.3c-1.5,0-2.9-0.8-2.9-2.5v0c0-1.7,1.4-2.5,3.4-2.5
			c1,0,1.7,0.1,2.4,0.3v-0.3c0-1.4-0.9-2.1-2.3-2.1c-0.9,0-1.7,0.2-2.4,0.6l-0.3-1c0.9-0.4,1.7-0.7,2.9-0.6c1.1,0,2,0.3,2.5,0.9
			c0.5,0.5,0.8,1.3,0.8,2.3L112.6,147.3z M113.5,124.4l-2.5,0l0,4.6c0,1,0.5,1.3,1.3,1.3c0.4,0,0.7-0.1,1.1-0.3l0,1
			c-0.4,0.2-0.9,0.3-1.4,0.3c-1.3,0-2.2-0.6-2.2-2.2l0-4.7l-1.1,0l0-1l1.1,0l0-2.4l1.2,0l0,2.4l2.5,0L113.5,124.4z M118.2,147.6
			c-0.7,1.6-1.4,2.2-2.6,2.2c-0.7,0-1.1-0.1-1.7-0.4l0.4-0.9c0.4,0.2,0.7,0.3,1.2,0.3c0.7,0,1.1-0.4,1.6-1.5l-3.6-7.8l1.3,0l2.8,6.6
			l2.5-6.5l1.2,0L118.2,147.6z M121.9,127.8l-6.2,0c0.2,1.7,1.4,2.7,2.8,2.7c1.1,0,1.8-0.4,2.5-1.1l0.7,0.7
			c-0.8,0.9-1.7,1.5-3.2,1.5c-2.2,0-3.9-1.7-3.9-4.1v0c0-2.3,1.6-4.1,3.8-4.1c2.3,0,3.7,1.9,3.7,4.2
			C121.9,127.6,121.9,127.7,121.9,127.8z M130.4,131.3l-1.2,0l0-4.6c0-1.5-0.8-2.4-2.2-2.4c-1.4,0-2.4,1-2.4,2.5l0,4.5l-1.2,0l0-7.9
			l1.2,0l0,1.4c0.5-0.8,1.3-1.5,2.7-1.5c1.9,0,3,1.3,3,3.2L130.4,131.3z M140,131.3l-1.2,0l0-1.6c-0.6,0.9-1.6,1.7-3,1.7
			c-1.9,0-3.8-1.5-3.7-4.1v0c0-2.6,1.9-4.1,3.8-4.1c1.5,0,2.4,0.8,3,1.7l0-4.7l1.2,0L140,131.3z M149.2,127.8l-6.2,0
			c0.2,1.7,1.4,2.7,2.8,2.7c1.1,0,1.8-0.4,2.5-1.1l0.7,0.7c-0.8,0.9-1.7,1.5-3.2,1.5c-2.2,0-3.9-1.7-3.9-4.1v0
			c0-2.3,1.6-4.1,3.8-4.1c2.3,0,3.7,1.9,3.7,4.2C149.2,127.6,149.2,127.7,149.2,127.8z M158.3,131.3l-1.2,0l0-1.6
			c-0.6,0.9-1.6,1.7-3,1.7c-1.9,0-3.8-1.5-3.7-4.1v0c0-2.6,1.9-4.1,3.8-4.1c1.5,0,2.4,0.8,3,1.7l0-4.7l1.2,0L158.3,131.3z"/>
		<path class="st5" d="M154.4,124.4c-1.5,0-2.8,1.1-2.8,3v0c0,1.9,1.3,3,2.8,3c1.5,0,2.8-1.2,2.8-3v0
			C157.2,125.6,155.8,124.4,154.4,124.4z"/>
	</g>
	<g>
		<path class="st5" d="M11.6,187.4L11.6,187.4c0-5.9,4.2-11.2,10.6-11.2c3.5,0,5.7,1,7.9,2.8l-1,1.2c-1.7-1.5-3.7-2.6-6.9-2.6
			c-5.2,0-8.9,4.4-8.9,9.6v0.1c0,5.6,3.5,9.7,9.2,9.7c2.7,0,5.3-1.1,6.9-2.5v-6.2h-7.2V187h8.7v8.3c-1.9,1.7-4.9,3.2-8.5,3.2
			C15.6,198.5,11.6,193.5,11.6,187.4z"/>
		<path class="st5" d="M34.9,192v-9.6h1.5v9.3c0,3.2,1.8,5.3,5,5.3c3.1,0,5.4-2.3,5.4-5.6v-9.1h1.5v15.7h-1.5v-2.9
			c-1,1.8-2.8,3.3-5.7,3.3C37.2,198.5,34.9,195.8,34.9,192z"/>
		<path class="st5" d="M51.8,190.3L51.8,190.3c0-4.6,3.2-8.2,7.4-8.2c4.4,0,7.2,3.6,7.2,8.2c0,0.3,0,0.4,0,0.6h-13
			c0.3,3.9,3.1,6.2,6.1,6.2c2.4,0,4.1-1.1,5.4-2.5l1,0.9c-1.6,1.7-3.5,3-6.5,3C55.3,198.5,51.8,195.2,51.8,190.3z M64.8,189.5
			c-0.2-3.2-2-6.1-5.6-6.1c-3.1,0-5.5,2.6-5.8,6.1H64.8z"/>
		<path class="st5" d="M70,196.1l0.9-1.2c1.7,1.3,3.6,2.1,5.6,2.1c2.1,0,3.8-1.2,3.8-3V194c0-1.8-2-2.5-4.1-3.1
			c-2.6-0.7-5.4-1.5-5.4-4.3v-0.1c0-2.5,2.1-4.3,5.2-4.3c1.9,0,4,0.7,5.6,1.7l-0.8,1.3c-1.4-1-3.2-1.6-4.8-1.6
			c-2.2,0-3.6,1.2-3.6,2.7v0.1c0,1.8,2.1,2.4,4.4,3c2.5,0.7,5.2,1.6,5.2,4.4v0.1c0,2.8-2.4,4.6-5.4,4.6
			C74.1,198.4,71.6,197.5,70,196.1z"/>
		<path class="st5" d="M87.7,194.1v-10.3h-2.3v-1.4h2.3v-5h1.5v5h5.5v1.4h-5.5v10.1c0,2.2,1.3,3,3.1,3c0.8,0,1.4-0.2,2.3-0.6v1.4
			c-0.8,0.4-1.6,0.6-2.6,0.6C89.6,198.4,87.7,197.1,87.7,194.1z"/>
		<path class="st5" d="M99.2,176.6h1.6v10h13.8v-10h1.6v21.5h-1.6V188h-13.8v10.1h-1.6V176.6z"/>
		<path class="st5" d="M120.8,190.3L120.8,190.3c0-4.5,3.4-8.3,8.1-8.3c4.6,0,8,3.7,8,8.1v0.1c0,4.4-3.4,8.2-8.1,8.2
			C124.2,198.5,120.8,194.7,120.8,190.3z M135.3,190.3L135.3,190.3c0-3.8-2.8-6.9-6.5-6.9c-3.7,0-6.4,3-6.4,6.7v0.1
			c0,3.8,2.8,6.8,6.5,6.8C132.6,197.1,135.3,194,135.3,190.3z"/>
		<path class="st5" d="M140.9,192v-9.6h1.5v9.3c0,3.2,1.8,5.3,5,5.3c3.1,0,5.4-2.3,5.4-5.6v-9.1h1.5v15.7h-1.5v-2.9
			c-1,1.8-2.8,3.3-5.7,3.3C143.2,198.5,140.9,195.8,140.9,192z"/>
		<path class="st5" d="M158.4,196.1l0.9-1.2c1.7,1.3,3.6,2.1,5.6,2.1c2.1,0,3.8-1.2,3.8-3V194c0-1.8-2-2.5-4.1-3.1
			c-2.6-0.7-5.4-1.5-5.4-4.3v-0.1c0-2.5,2.1-4.3,5.2-4.3c1.9,0,4,0.7,5.6,1.7l-0.8,1.3c-1.4-1-3.2-1.6-4.8-1.6
			c-2.2,0-3.6,1.2-3.6,2.7v0.1c0,1.8,2.1,2.4,4.4,3c2.5,0.7,5.2,1.6,5.2,4.4v0.1c0,2.8-2.4,4.6-5.4,4.6
			C162.6,198.4,160.1,197.5,158.4,196.1z"/>
		<path class="st5" d="M173.7,190.3L173.7,190.3c0-4.6,3.2-8.2,7.4-8.2c4.4,0,7.2,3.6,7.2,8.2c0,0.3,0,0.4,0,0.6h-13
			c0.3,3.9,3.1,6.2,6.1,6.2c2.4,0,4.1-1.1,5.4-2.5l1,0.9c-1.6,1.7-3.5,3-6.5,3C177.2,198.5,173.7,195.2,173.7,190.3z M186.7,189.5
			c-0.2-3.2-2-6.1-5.6-6.1c-3.1,0-5.5,2.6-5.8,6.1H186.7z"/>
	</g>
</g>
</svg>
