<?xml version="1.0" encoding="utf-8"?>
<!-- Generator: Adobe Illustrator 25.2.1, SVG Export Plug-In . SVG Version: 6.00 Build 0)  -->
<svg version="1.1" id="Layer_1" xmlns="http://www.w3.org/2000/svg" xmlns:xlink="http://www.w3.org/1999/xlink" x="0px" y="0px"
	 viewBox="0 0 200 200" style="enable-background:new 0 0 200 200;" xml:space="preserve">
<style type="text/css">
	.st0{fill:#787474;}
</style>
<g>
	<path class="st0" d="M157.3,126h-27.4v2.1h-22.6V33.3h22.6v70.2h27.4V126z M96.8,58H69.4v70.2H46.8V33.3h22.6v2.1h27.4V58z
		 M20.1,160.6h159.8V0.8H20.1V160.6z"/>
	<path class="st0" d="M39.1,180.2h-1c-0.8,0-1.4,0.6-1.4,1.4v6.2h-8v-6.2c0-0.8-0.6-1.4-1.4-1.4h-1c-0.8,0-1.4,0.7-1.4,1.4v16.1
		c0,0.8,0.7,1.4,1.4,1.4h1c0.8,0,1.4-0.6,1.4-1.4v-6.4h8v6.4c0,0.8,0.6,1.4,1.4,1.4h1c0.8,0,1.4-0.7,1.4-1.4v-16.1
		C40.5,180.9,39.9,180.2,39.1,180.2"/>
	<path class="st0" d="M63,189.5c0,3.4-2.7,6.1-6.1,6.1c-3.3,0-6.1-2.7-6.1-6.1c0-3.4,2.7-6.1,6.1-6.1C60.2,183.4,63,186.1,63,189.5
		 M56.9,179.7c-5.3,0-9.7,4.4-9.7,9.7c0,5.4,4.3,9.7,9.7,9.7c5.5,0,9.7-4.3,9.7-9.7C66.6,184.1,62.2,179.7,56.9,179.7"/>
	<path class="st0" d="M82.6,180.2H72.3c-0.8,0-1.4,0.6-1.4,1.4v0.7c0,0.8,0.6,1.4,1.4,1.4h3.3v14c0,0.8,0.7,1.4,1.4,1.4h0.9
		c0.8,0,1.4-0.7,1.4-1.4v-14h3.3c0.8,0,1.4-0.6,1.4-1.4v-0.7C84.1,180.9,83.4,180.2,82.6,180.2"/>
	<path class="st0" d="M101.9,183.8c0.8,0,1.4-0.6,1.4-1.4v-0.7c0-0.8-0.6-1.4-1.4-1.4h-9.6c-0.8,0-1.4,0.6-1.4,1.4v16.1
		c0,0.8,0.6,1.4,1.4,1.4h9.6c0.8,0,1.4-0.6,1.4-1.4v-0.7c0-0.8-0.6-1.4-1.4-1.4h-7.2v-4.3h6c0.8,0,1.4-0.7,1.4-1.4v-0.7
		c0-0.8-0.7-1.4-1.4-1.4h-6v-4H101.9z"/>
	<path class="st0" d="M121.3,195.6h-6v-14c0-0.8-0.7-1.4-1.4-1.4h-0.9c-0.8,0-1.4,0.6-1.4,1.4v16.1c0,0.8,0.6,1.4,1.4,1.4h8.4
		c0.8,0,1.4-0.6,1.4-1.4v-0.7C122.7,196.3,122,195.6,121.3,195.6"/>
	<path class="st0" d="M152.4,186.4c0,1.4-1.1,2.6-2.5,2.6h-3.8v-5.1h3.8C151.2,183.9,152.4,185.1,152.4,186.4 M153,191.8
		c2-1.2,3.2-3.2,3.2-5.4c0-3.4-2.8-6.1-6.3-6.1h-6.3c-0.8,0-1.4,0.6-1.4,1.4v16.1c0,0.8,0.6,1.4,1.4,1.4h0.9c0.8,0,1.4-0.6,1.4-1.4
		v-5.2h3.1l3,5.9c0.2,0.3,0.6,0.7,1.3,0.7h1.2c0.5,0,1-0.2,1.2-0.7c0.3-0.4,0.3-1,0-1.4L153,191.8z"/>
	<path class="st0" d="M174.3,195.6h-6v-14c0-0.8-0.7-1.4-1.4-1.4h-0.9c-0.8,0-1.4,0.6-1.4,1.4v16.1c0,0.8,0.6,1.4,1.4,1.4h8.4
		c0.8,0,1.4-0.6,1.4-1.4v-0.7C175.7,196.3,175,195.6,174.3,195.6"/>
</g>
</svg>
