<?xml version="1.0" encoding="utf-8"?>
<!-- Generator: Adobe Illustrator 25.2.1, SVG Export Plug-In . SVG Version: 6.00 Build 0)  -->
<svg version="1.1" id="Layer_1" xmlns="http://www.w3.org/2000/svg" xmlns:xlink="http://www.w3.org/1999/xlink" x="0px" y="0px"
	 viewBox="0 0 200 200" style="enable-background:new 0 0 200 200;" xml:space="preserve">
<style type="text/css">
	.st0{fill:#787474;}
</style>
<g>
	<g>
		<path class="st0" d="M30.6,197.8v-15.7h4.2v15.7H30.6z M44.3,197.8h-4.8l-4.6-8.4l4.7-7.3h4.4l-4.7,7L44.3,197.8z"/>
		<path class="st0" d="M52.4,197.8l-4-11.8c0.2,1.5,0.5,3.6,0.5,6.5v5.3h-3.7v-15.7h5.1l4.1,11.9c-0.2-1.6-0.6-3.5-0.6-6.2v-5.7h3.7
			v15.7H52.4z"/>
		<path class="st0" d="M59.8,197.8v-15.7H64v15.7H59.8z"/>
		<path class="st0" d="M78.7,183.7l-2.1,2.2c-1-0.8-1.8-1.2-3-1.2c-2.2,0-3.6,1.6-3.6,5.3c0,4,0.9,5.2,2.9,5.2
			c0.7,0,1.3-0.1,1.8-0.5v-3.2h-1.8l-0.4-2.9h6.2v7.8c-1.6,1.1-3.8,1.7-5.8,1.7c-5,0-7.3-2.9-7.3-8.3c0-5.3,3.3-8.2,7.7-8.2
			C75.6,181.7,77.4,182.5,78.7,183.7z"/>
		<path class="st0" d="M85.2,191.2v6.5H81v-15.7h4.2v5.9h4.2v-5.9h4.2v15.7h-4.2v-6.5H85.2z"/>
		<path class="st0" d="M103,185.3v12.5h-4.2v-12.5h-3.9v-3.2h12.2l-0.4,3.2H103z"/>
		<path class="st0" d="M119.1,183.8l-1.9,2.2c-1.1-0.9-2.1-1.3-3.4-1.3c-1.2,0-1.9,0.5-1.9,1.3c0,0.9,0.6,1.2,2.9,2
			c3.1,1,4.7,2.3,4.7,5.1c0,3-2.4,5-6.4,5c-2.9,0-4.8-1-6.1-2.3l2.1-2.3c1.1,1,2.4,1.6,3.9,1.6c1.4,0,2.2-0.7,2.2-1.7
			c0-1-0.5-1.5-2.7-2.1c-3.7-1.2-4.8-2.7-4.8-5c0-2.9,2.5-4.7,5.9-4.7C116,181.7,117.7,182.4,119.1,183.8z"/>
		<path class="st0" d="M127,197.8v-15.7h4.2v15.7H127z"/>
		<path class="st0" d="M140.8,197.8l-4-11.8c0.2,1.5,0.5,3.6,0.5,6.5v5.3h-3.7v-15.7h5.1l4.1,11.9c-0.2-1.6-0.6-3.5-0.6-6.2v-5.7
			h3.7v15.7H140.8z"/>
		<path class="st0" d="M155.8,197.8l-4-11.8c0.2,1.5,0.5,3.6,0.5,6.5v5.3l-3.7,0v-15.7h5.1l4.1,11.9c-0.2-1.6-0.6-3.5-0.6-6.2v-5.7
			h3.7v15.7H155.8z"/>
	</g>
	<g>
		<g>
			<path class="st0" d="M166.5,184.9v1.1h-0.4v-2.7h0.7c0.7,0,1,0.3,1,0.8c0,0.4-0.2,0.6-0.6,0.7l0.7,1.2h-0.4l-0.6-1.1H166.5z
				 M167.4,184.1c0-0.3-0.2-0.5-0.6-0.5h-0.3v1h0.4C167.2,184.6,167.4,184.5,167.4,184.1z"/>
		</g>
		<g>
			<path class="st0" d="M166.9,187.2c-1.4,0-2.6-1.2-2.6-2.6s1.2-2.6,2.6-2.6s2.6,1.2,2.6,2.6S168.3,187.2,166.9,187.2z
				 M166.9,182.4c-1.2,0-2.2,1-2.2,2.2c0,1.2,1,2.2,2.2,2.2c1.2,0,2.2-1,2.2-2.2C169.1,183.4,168.1,182.4,166.9,182.4z"/>
		</g>
	</g>
	<path class="st0" d="M160.1,33.3c-42.4,11.5-85.8,12.2-128,0.5c-0.8-0.2-1.5,0.1-1.5,0.7c0,1.2,0,17.8,0,21.1
		c10.4,4.1,20.6,6.6,30.3,7.9c0,6.5,0,95.5,0,99.6c7.8,1.8,17.3,2.9,24.2,3.2c0-0.1-23.1-55.9-23.1-55.9s26.3-44.1,26.3-44.1
		c16.3,0.3,26.5-0.9,35.8-2c-7.9,13.5-29.1,47.3-29.1,47.3s18.9,35.4,28.3,52.8c13.4-1.8,28.9-7,37.3-10.5c0.6-0.2,0.7-0.4,0.7-1
		c0-5.6,0-107.3,0-118.9C161.3,33.5,160.7,33.1,160.1,33.3z"/>
	<path class="st0" d="M31.7,25.8c46.9,11.5,85.9,10.5,128.5-0.4c0.5-0.3,1-0.9,1-1.4c0-7.1,0-16.4,0-21.2c0-0.4-0.2-0.7-0.4-0.9
		c-0.3-0.2-0.6-0.2-1-0.1c-10.7,1.9-21.4,3.4-32.3,4.4c-0.3,0-0.6,0.2-0.8,0.5c-0.2,0.3-0.3,0.6-0.3,1c0,1.2,0,14.6,0,14.6
		c-2.8,0.5-8.8,1.1-13.5,1.1c0-5.6,0-9.1,0-14.8c0-0.7-0.4-1.4-1.4-1.3c-9.6,0.8-20,0.8-31.9,0c-0.7,0-1.2,0.6-1.2,1.4
		c0,5.9,0,9.3-0.1,14.9c-5.1-0.1-8.7-0.4-13.2-1.1c0.1-5.6,0.1-8.4,0.2-14.1c0-0.7-0.5-1.4-1.1-1.4c-10.7-0.9-21.4-3-32-4.8
		c-1.1-0.1-1.7,0.6-1.7,1.3c0,3.4,0,15.1,0,21C30.5,24.9,30.9,25.6,31.7,25.8z"/>
</g>
</svg>
