<?xml version="1.0" encoding="utf-8"?>
<!-- Generator: Adobe Illustrator 25.2.1, SVG Export Plug-In . SVG Version: 6.00 Build 0)  -->
<svg version="1.1" id="Layer_1" xmlns="http://www.w3.org/2000/svg" xmlns:xlink="http://www.w3.org/1999/xlink" x="0px" y="0px"
	 viewBox="0 0 200 200" style="enable-background:new 0 0 200 200;" xml:space="preserve">
<style type="text/css">
	.st0{fill:#787474;}
</style>
<g>
	<path class="st0" d="M186.7,186.7H46.3H13.3V13.3h173.4V186.7z M1.9,198.1h196.2V1.9H1.9V198.1z"/>
	<path class="st0" d="M67.9,152.2c-0.8,0-1.7,0.3-2.2,0.9c-0.7,0.8-0.9,1.6-0.9,5.2c0,3.7,0.2,4.5,0.9,5.2c0.5,0.6,1.3,0.9,2.2,0.9
		c0.9,0,1.7-0.3,2.2-0.9c0.7-0.8,0.9-1.6,0.9-5.2c0-3.7-0.2-4.4-0.9-5.2C69.6,152.6,68.8,152.2,67.9,152.2"/>
	<path class="st0" d="M52.8,40.5H42.3v14.7h10.5c4.7,0,7.9-2.7,7.9-7.3C60.7,43.3,57.5,40.5,52.8,40.5"/>
	<path class="st0" d="M145.4,40.5h-8.6v34.1h8.6c3.4,0,6-1,8-3.2c2.4-2.7,2.5-7.8,2.5-14.2c0-6.4-0.1-10.8-2.5-13.5
		C151.4,41.5,148.7,40.5,145.4,40.5"/>
	<path class="st0" d="M163.6,58.4c0,6.4,0,13.6-4.9,18.6c-3,3-7.3,4.6-12.6,4.6H129V33.5h17.1c5.2,0,9.5,1.6,12.6,4.6
		c5,5,5,11.6,4.9,18V58.4z M161.5,133.7h-6.3l-16.4-25v25h-7.1V94.6h6.3l16.4,24.9V94.6h7.1V133.7z M151.6,168.4
		c-3.1,0-5.1-0.8-7-2.6l-0.5-0.5l2.8-2.8l0.5,0.5c1.1,1.1,2.3,1.5,4.2,1.5c1.2,0,3.1-0.3,3.1-2.1c0-0.6-0.2-1.1-0.5-1.4
		c-0.3-0.3-0.6-0.5-1.7-0.6l-2.1-0.3c-1.6-0.2-2.9-0.8-3.8-1.6c-1-1-1.6-2.3-1.6-4c0-3.6,2.7-6,6.8-6c2.6,0,4.4,0.7,6.1,2.3l0.5,0.5
		l-2.7,2.7l-0.5-0.5c-0.9-0.9-2-1.2-3.5-1.2c-1.7,0-2.7,0.8-2.7,2.2c0,0.5,0.1,0.9,0.5,1.2c0.4,0.3,1,0.6,1.7,0.7l2.1,0.3
		c1.8,0.3,2.9,0.7,3.8,1.5c1.1,1,1.7,2.5,1.7,4.3C158.9,165.9,156,168.4,151.6,168.4 M138,168.2h-12.9v-19.6h4.1v15.8h8.8V168.2z
		 M121.2,120.7c-0.3-1.8-1.1-3.5-2.4-4.9c0,0-0.1-0.1-0.1-0.1l-1.4-1.3l0.7,1.8c2,5.9,0.2,10.7-2.2,13.1c0.6-1.6,0.6-3.2,0.1-5.1
		l-0.6-2.4l-0.3,2.4c-0.5,3.4-2.8,8.4-7.2,9.5c0.8-1,1.2-2.4,1.2-3.8l0-2.6l-0.9,2.5c-1,2.7-3.5,4.6-5.2,4.6c-1.7,0-4.2-1.8-5.2-4.6
		l-0.9-2.5l0,2.6c0,1.4,0.4,2.8,1.2,3.8c-4.4-1.1-6.7-6.1-7.2-9.5l-0.4-2.4l-0.6,2.4c-0.5,1.8-0.4,3.5,0.1,5.1
		c-2.4-2.4-4.3-7.2-2.2-13.1l0.7-2l-1.5,1.5l-0.1,0.1c-1.3,1.4-2.1,3.1-2.4,4.9c-1.4-3.8-1.1-9,2.1-13.3l0.3-0.4l-0.4-0.3
		c-0.2-0.1-0.8-0.7-1.1-1.5c-0.1-0.3-0.3-1.6,0.7-2.5c0.5-0.4,1.2-0.7,1.9-0.7c0.8,0,1.5,0.3,2.2,0.8c0.7,0.5,1.2,1.9,1.4,2.6
		l0.1,0.6l0.6-0.2c0.1,0,0.2,0,0.3-0.1c-2,2.8-2.6,6.3-2.5,7.2l0,1l0.7-0.6c0.1,0,0.1-0.1,0.2-0.2c0.2-0.2,0.6-0.6,1.1-0.8
		c-0.7,2.5-0.8,5.8,0.3,7l0.8,0.9l0.1-1.2c0.1-0.6,0.2-0.9,0.4-1.2c0.7,1.3,2.5,4.5,2.9,5.1c0,0.1,0.1,1,0.2,1.7
		c0.1,0.9,0.2,2,0.3,2.6c0.2,0.9,0.7,1,0.9,1c3.2,0.6,4.8,0.7,5.1,0.7c0.3,0,1.9-0.1,5-0.7c0.2,0,0.8-0.1,1-1
		c0.1-0.6,0.2-1.7,0.3-2.6c0.1-0.7,0.2-1.6,0.2-1.7c0.3-0.7,2.2-3.9,2.9-5.1c0.2,0.3,0.3,0.6,0.4,1.2l0.1,1.2l0.8-0.9
		c1.1-1.3,1.1-4.5,0.3-7c0.4,0.3,0.9,0.6,1.1,0.8l0.9,0.8l0.1-1c0.1-0.8-0.5-4.3-2.5-7.1c0.1,0,0.2,0.1,0.3,0.1l0.5,0.2l0.1-0.6
		c0.2-0.6,0.7-2.1,1.4-2.6c0.7-0.5,1.4-0.8,2.2-0.8c0.7,0,1.4,0.3,1.9,0.7c1,0.9,0.8,2.2,0.7,2.5c-0.3,0.8-1,1.4-1.1,1.5l-0.5,0.3
		l0.3,0.4C122.2,111.6,122.5,116.9,121.2,120.7 M116.8,152.4H108v4h7.6v3.8H108v4.2h8.9v3.8h-13v-19.6h13V152.4z M95.7,152.4h-5
		v15.8h-4.1v-15.8h-5v-3.9h14.2V152.4z M75.1,158.6c0,3.4,0,5.6-2,7.6c-1.4,1.4-3.2,2.2-5.3,2.2c-2.1,0-3.8-0.7-5.3-2.2
		c-2-2-2-4.2-2-7.7c0-3.7,0-6,2-7.9c1.4-1.4,3.2-2.1,5.3-2.1c2.1,0,3.9,0.7,5.3,2.1c2,1.9,2,4.2,2,7.6V158.6z M75,133.7h-7.1V94.6
		H75V133.7z M50.7,61.9h-7.8v19.7h-8.5V33.5h18.8c9.1,0,15.2,5.8,15.2,14.4c0,6.1-3.4,11-9,12.8l10.9,21h-9.8L50.7,61.9z
		 M60.1,133.7H34.8V94.6h7.1v32.6h18.2V133.7z M52.1,168.2H48v-8h-6.1v8h-4.1v-19.6h4.1v7.8H48v-7.8h4.1V168.2z M96.9,111.3
		c-0.7-0.1-1.9,0.5-2.6,0.2c-0.4-0.2-1.1-1.4-1.3-1.8c-0.1-0.1,0-0.2,0-0.2l0.8-0.5c0,0,0.1,0,0.2,0c0.5-0.1,1.7,0,1.8,0
		c0.1,0,0.2,0.1,0.2,0.1l2.1,2.7C98.1,111.8,97.2,111.4,96.9,111.3 M112.3,109.7c-0.2,0.4-0.9,1.6-1.4,1.9c-0.6,0.3-1.9-0.3-2.5-0.2
		c-0.3,0-1.3,0.4-1.3,0.4l2.1-2.7c0,0,0.1-0.1,0.2-0.1c0.1,0,1.3-0.1,1.8,0c0,0,0.2,0.1,0.2,0.1l0.8,0.5
		C112.3,109.5,112.3,109.6,112.3,109.7 M109.8,102.9c0.7,0.7,2.1,4.5,2.1,4.5h-4.1l-1.7,2.3l0,8l-2.7,1.5l-0.3,0.5v2.1l2.7,1.4
		l1.8-0.7l-0.1,0.5l-1.9,0.8l-2.9-0.7l-2.9,0.7l-1.9-0.8l-0.1-0.5l1.8,0.7l2.6-1.4v-2.1l-0.3-0.5l-2.7-1.5l0-8l-1.8-2.3h-4.1
		c0,0,1.4-3.7,2.1-4.5c-1.5,0-3.1,0.7-3.1,0.7c-0.2-0.6-0.6-1.3-1.2-1.8c-0.2-0.1-0.3-0.2-0.5-0.4c0.9-1,2.9-3.4,5.8-3.6
		c2.4-0.2,3.8,1.8,3.8,1.8s0-2.7-4.3-2.8c2.2-1,4.3-1.7,6.6-1.7c2.4,0,4.5,0.7,6.7,1.7c-4.2,0.1-4.3,2.8-4.3,2.8s1.5-2,3.8-1.8
		c2.9,0.2,4.9,2.6,5.8,3.6c-0.2,0.2-0.4,0.2-0.6,0.4c-0.6,0.5-1,1.2-1.2,1.8C112.8,103.6,111.2,102.9,109.8,102.9 M83.4,33.5h31.3
		v7.7H91.9v12.3h19.4v7.7H91.9v12.7h22.8v7.7H83.4V33.5z M16.7,183.4h166.7V16.7H16.7V183.4z"/>
</g>
</svg>
