<?xml version="1.0" encoding="utf-8"?>
<!-- Generator: Adobe Illustrator 25.2.1, SVG Export Plug-In . SVG Version: 6.00 Build 0)  -->
<svg version="1.1" id="Layer_1" xmlns="http://www.w3.org/2000/svg" xmlns:xlink="http://www.w3.org/1999/xlink" x="0px" y="0px"
	 viewBox="0 0 200 200" style="enable-background:new 0 0 200 200;" xml:space="preserve">
<style type="text/css">
	.st0{fill:#787474;}
</style>
<g>
	<path class="st0" d="M187,187H46.1H13V13h174V187z M1.5,198.5h196.9V1.5H1.5V198.5z"/>
	<path class="st0" d="M79.6,163.6c-0.9,0-1.6-0.6-1.6-1.5c0-0.8,0.5-1.2,1.2-1.7l2.1,2.5C80.7,163.4,80.2,163.6,79.6,163.6
		 M79.7,156.8c0.5,0,0.9,0.4,0.9,0.9c0,0.4-0.3,0.7-0.6,0.9c0,0-0.3,0.2-0.4,0.3c-0.5-0.5-0.7-0.8-0.7-1.2
		C78.9,157.2,79.2,156.8,79.7,156.8 M83.5,162.8c0.5-0.7,0.7-1.6,0.8-2.7l0-0.4h-2.1v0.4c0,0.4,0,0.8-0.1,1l-1.2-1.4
		c0.1-0.1,0.3-0.2,0.3-0.2c0.8-0.5,1.2-1.1,1.2-1.9c0-1.4-1.1-2.4-2.5-2.4c-1.5,0-2.6,1-2.6,2.4c0,0.8,0.4,1.4,0.7,1.8
		c-0.8,0.6-1.6,1.4-1.6,2.6c0,1.9,1.3,3.1,3.3,3.1c1.2,0,2-0.5,2.4-0.8l0.7,0.7h2.5L83.5,162.8z M114.9,163.9c0,1.6-0.9,2.6-2.5,2.6
		c-1.5,0-2.5-1-2.5-2.6V154h-3.2v10c0,3.2,2.4,5.5,5.7,5.5c3.3,0,5.7-2.3,5.7-5.5v-10h-3.2V163.9z M121.9,169.3h3.2V154h-3.2V169.3z
		 M164.8,161.4c-0.7-0.7-1.5-1-3-1.2l-1.6-0.3c-0.6-0.1-1.1-0.3-1.4-0.6c-0.3-0.2-0.4-0.5-0.4-0.9c0-1.1,0.8-1.7,2.1-1.7
		c1.2,0,2,0.3,2.7,1l0.3,0.3l2.1-2l-0.4-0.4c-1.3-1.2-2.8-1.8-4.8-1.8c-3.2,0-5.3,1.8-5.3,4.7c0,1.3,0.4,2.4,1.2,3.1
		c0.7,0.7,1.8,1.1,3,1.3l1.7,0.2c0.7,0.1,1,0.2,1.3,0.5s0.4,0.6,0.4,1.1c0,1.5-1.5,1.7-2.5,1.7c-1.5,0-2.5-0.3-3.3-1.2l-0.3-0.4
		l-2.2,2.2l0.4,0.4c1.4,1.4,3.1,2,5.5,2c3.4,0,5.6-1.9,5.6-4.7C166.1,163.3,165.6,162.2,164.8,161.4 M76.7,167.6c-0.5,0-1,0.4-1,1
		c0,0.5,0.4,1,1,1h8.6c0.5,0,1-0.4,1-1c0-0.5-0.4-1-1-1H76.7z M141.7,169.3h10.2v-3h-7v-3.3h6v-3h-6v-3.2h7v-3h-10.2V169.3z
		 M127.9,156.9h4v12.4h3.2v-12.4h4v-3h-11.1V156.9z M99.8,160.3l-1.6-0.3c-0.6-0.1-1.1-0.3-1.4-0.6c-0.1-0.1-0.3-0.4-0.3-0.9
		c0-1.1,0.8-1.7,2.1-1.7c1.2,0,2.1,0.3,2.8,1l0.3,0.3l2.1-2.1l-0.4-0.4c-1.3-1.2-2.7-1.8-4.8-1.8c-3.2,0-5.3,1.9-5.3,4.7
		c0,1.3,0.4,2.4,1.2,3.1c0.7,0.7,1.7,1.1,3,1.3l1.7,0.2c0.8,0.1,1,0.2,1.3,0.5c0.3,0.3,0.4,0.7,0.4,1.1c0,1.5-1.5,1.7-2.5,1.7
		c-1.5,0-2.5-0.3-3.3-1.2l-0.4-0.4l-2.1,2.2l0.3,0.3c1.4,1.4,3,2,5.4,2c3.4,0,5.7-1.9,5.7-4.7c0-1.4-0.5-2.6-1.3-3.3
		C102.1,160.8,101.2,160.4,99.8,160.3 M34.3,169.3h3.2V154h-3.2V169.3z M65.5,162.9l-5.9-8.9h-2.8v15.4h3.2v-8.9l5.9,8.9h2.8V154
		h-3.2V162.9z M49.7,162.9l-5.9-8.9H41v15.4h3.2v-8.9l5.9,8.9h2.7V154h-3.2V162.9z M163.8,55.9c0-6.4,0-13-4.9-18
		c-3-3-7.4-4.6-12.6-4.6h-17.2v48.3h17.2c5.2,0,9.6-1.6,12.6-4.6c5-5,5-12.3,4.9-18.7V55.9z M161.8,94.6h-7.1v25l-16.5-25h-6.3v39.3
		h7.1v-25.1l16.5,25.1h6.3V94.6z M119.1,107.4l-0.3-0.5l0.5-0.3c0.1-0.1,0.8-0.7,1.1-1.5c0.1-0.3,0.3-1.6-0.7-2.5
		c-0.5-0.4-1.2-0.7-1.9-0.7c-0.7,0-1.5,0.3-2.2,0.8c-0.7,0.5-1.3,2-1.4,2.6l-0.1,0.6l-0.5-0.2c-0.1,0-0.2-0.1-0.3-0.1
		c2,2.8,2.6,6.4,2.5,7.2l-0.1,1l-0.9-0.8c-0.2-0.2-0.7-0.6-1.1-0.8c0.8,2.5,0.8,5.8-0.3,7.1l-0.8,0.9l-0.1-1.2
		c-0.1-0.5-0.2-0.9-0.4-1.2c-0.7,1.3-2.5,4.5-2.9,5.2c0,0.1-0.1,1-0.2,1.7c-0.1,0.9-0.2,2-0.3,2.6c-0.2,0.9-0.7,1-1,1
		c-3.2,0.6-4.7,0.7-5,0.7c-0.3,0-1.9-0.1-5.1-0.7c-0.2,0-0.8-0.1-0.9-1c-0.1-0.6-0.2-1.7-0.3-2.6c-0.1-0.7-0.2-1.6-0.2-1.7
		c-0.3-0.6-2.1-3.8-2.9-5.1c-0.2,0.2-0.3,0.6-0.4,1.2l-0.1,1.2l-0.8-0.9c-1.1-1.3-1.1-4.5-0.3-7.1c-0.4,0.3-0.8,0.6-1.1,0.8
		c-0.1,0.1-0.2,0.1-0.2,0.2l-0.7,0.6l0-1c-0.1-0.8,0.5-4.4,2.5-7.2c-0.1,0.1-0.2,0.1-0.3,0.1l-0.6,0.2l-0.1-0.6
		c-0.2-0.7-0.7-2.1-1.4-2.6c-0.7-0.5-1.4-0.8-2.2-0.8c-0.7,0-1.4,0.3-1.9,0.7c-1,0.9-0.8,2.2-0.7,2.5c0.3,0.8,1,1.4,1.1,1.5l0.4,0.3
		l-0.3,0.4c-3.2,4.3-3.5,9.6-2.1,13.4c0.2-1.8,1-3.5,2.4-4.9l0.1-0.1l1.5-1.5l-0.7,2c-2,5.9-0.2,10.8,2.2,13.2
		c-0.6-1.6-0.6-3.2-0.1-5.1l0.6-2.4l0.4,2.5c0.5,3.4,2.8,8.4,7.2,9.5c-0.8-1-1.2-2.4-1.2-3.8l0-2.6l0.9,2.5c1,2.7,3.5,4.6,5.2,4.6
		c1.7,0,4.2-1.9,5.2-4.6l0.9-2.5l0,2.6c0,1.5-0.4,2.8-1.2,3.8c4.4-1.1,6.8-6.1,7.2-9.5l0.3-2.5l0.6,2.4c0.5,1.8,0.4,3.5-0.1,5.1
		c2.4-2.4,4.3-7.3,2.2-13.2l-0.7-1.9l1.4,1.3c0,0,0.1,0.1,0.1,0.1c1.3,1.4,2.2,3.1,2.4,4.9C122.6,117,122.3,111.7,119.1,107.4
		 M67.8,133.9h7.1V94.6h-7.1V133.9z M60.4,81.5h9.8l-11-21.1c5.6-1.9,9.1-6.7,9.1-12.9c0-8.6-6.1-14.4-15.2-14.4H34.2v48.3h8.5V61.8
		h7.8L60.4,81.5z M59.9,127.3H41.7V94.6h-7.1v39.3h25.4V127.3z M98.1,111.8l-2-2.7c0,0-0.1-0.1-0.2-0.1c-0.1,0-1.4-0.1-1.8,0
		c-0.1,0-0.2,0-0.2,0l-0.8,0.5c0,0-0.1,0,0,0.2c0.2,0.4,0.9,1.7,1.3,1.9c0.6,0.3,1.9-0.3,2.6-0.2C97.2,111.4,98.1,111.8,98.1,111.8
		 M112.3,109.5l-0.8-0.5c0,0-0.2-0.1-0.2-0.1c-0.5-0.1-1.7,0-1.8,0c-0.1,0-0.2,0.1-0.2,0.1l-2.1,2.7c0,0,0.9-0.4,1.3-0.5
		c0.6-0.1,1.9,0.5,2.5,0.2c0.5-0.2,1.1-1.4,1.4-1.9C112.4,109.6,112.3,109.5,112.3,109.5 M112.8,103.6c0.3-0.6,0.6-1.3,1.2-1.8
		c0.2-0.1,0.3-0.2,0.6-0.4c-0.9-1-2.9-3.5-5.8-3.7c-2.4-0.2-3.9,1.8-3.9,1.8s0-2.7,4.3-2.8c-2.2-1-4.3-1.7-6.7-1.7
		c-2.3,0-4.5,0.7-6.7,1.7c4.2,0.1,4.3,2.8,4.3,2.8s-1.5-2-3.8-1.8c-2.9,0.2-4.9,2.6-5.8,3.7c0.2,0.2,0.4,0.2,0.5,0.4
		c0.6,0.5,1,1.2,1.2,1.8c0,0,1.6-0.7,3.1-0.7c-0.7,0.7-2.2,4.5-2.2,4.5h4.1l1.8,2.3l0,8.1l2.7,1.5l0.3,0.5v2.2l-2.6,1.4l-1.8-0.8
		l0.1,0.5l1.9,0.8l2.9-0.7l3,0.7l1.9-0.8l0.1-0.5l-1.8,0.8l-2.7-1.4v-2.2l0.3-0.5l2.7-1.5l0-8.1l1.7-2.3h4.1c0,0-1.5-3.8-2.2-4.5
		C111.2,102.9,112.8,103.6,112.8,103.6 M83.4,81.5h31.4v-7.8H91.9V61h19.5v-7.7H91.9V41h22.9v-7.8H83.4V81.5z M183.7,183.7H16.3
		V16.3h167.3V183.7z M145.6,40.3h-8.7v34.2h8.7c3.4,0,6-1,8-3.2c2.4-2.7,2.5-7.8,2.5-14.3c0-6.5-0.1-10.9-2.5-13.6
		C151.5,41.3,148.9,40.3,145.6,40.3 M60.6,47.7c0,4.6-3.2,7.3-8,7.3H42.1V40.3h10.5C57.3,40.3,60.6,43.1,60.6,47.7"/>
</g>
</svg>
