<?xml version="1.0" encoding="utf-8"?>
<!-- Generator: Adobe Illustrator 25.2.1, SVG Export Plug-In . SVG Version: 6.00 Build 0)  -->
<svg version="1.1" id="Layer_1" xmlns="http://www.w3.org/2000/svg" xmlns:xlink="http://www.w3.org/1999/xlink" x="0px" y="0px"
	 viewBox="0 0 344.5 199" style="enable-background:new 0 0 344.5 199;" xml:space="preserve">
<style type="text/css">
	.st0{fill:#787474;}
</style>
<g>
	<path class="st0" d="M77.9,71.3c4.4-6.6,7.4-14.3,6.8-20.4C84,44.8,78.7,40.7,69.2,43c-21.7,5.1-55.9,39.3-53.7,61.8
		c2.1,20.8,32.2,17.2,33.1,27.1c0.6,5.6-7.8,12-18.7,14.6c-11.7,2.8-20.2-0.8-26-5.8c-0.7-0.5-1.2-0.4-1.6,0.8
		c-0.5,1.5-0.6,4-0.4,6.2c0.4,4.2,2.4,6.7,6.6,8.3c4.7,2.1,12.6,2,18.5,0.6c18.7-4.4,30.4-18.5,29.4-28.8
		c-1.4-14.6-28.3-11.6-29.8-26.1C25.1,86,52.3,54.9,68.1,51.2c3.9-0.9,6.3,0.6,6.6,3.9c0.5,5.3-3.2,13-7.8,20
		c-6.3,9.6-10.1,11.3-10.1,12.3c0.1,0.7,1.8,0.6,3.8,0.1C66.5,86,73,78.7,77.9,71.3"/>
	<path class="st0" d="M82.2,87.5c0.2,2.6,1.6,3.9,3.8,3.4c4.5-1,8.7-7.8,8.3-12.9c-0.2-2.5-1.5-3.8-3.7-3.3
		C85.8,75.8,81.8,83.4,82.2,87.5"/>
	<path class="st0" d="M342.2,47.6c-0.3-0.8-0.8-0.6-1.3,0.2c-3.1,5.6-11.3,18.8-21.8,21.2c-4.1,0.9-6.3-1.4-6.4-5.3
		c-0.1-0.8,0-1.6,0.2-2.5c13.2-2.5,23-13.2,22.9-20.7c-0.1-4-2.5-6.2-7.4-5c-10.7,2.4-21.7,13.8-25.4,26.3
		c-3.7,6-7.5,10.4-11.3,11.2c-1,0.2-1.7-0.3-1.7-1.2c-0.4-4.5,3.9-14.1,7.3-18.8c1.1-1.8,1.8-2.7,1.7-4.4c-0.1-1.4-0.1-2.6-0.6-4.4
		c-0.4-1.6-1.1-4.2-3.8-2c-3.3,2.7-7.6,6.8-11.8,8.1c0.6-2.2,1.4-5.3,1.3-6.7c-0.1-1.5-0.8-2.2-1.8-1.9c-2.7,0.6-7.8,7.8-7.4,12.8
		c0.1,1.8,0.9,3.2,2.1,3.9c-0.6,1.7-1.5,3.4-2.2,4.6c-3.5,6.5-9.9,16.3-15.2,17.5c-1,0.2-1.7-0.2-1.7-1.3
		c-0.4-3.5,4.3-12.4,6.3-17.9c0.5-1.6,0.3-2.6-0.2-3.7c-0.5-1.1-1.3-2.2-2-2.7c-0.7-0.5-1.1-0.5-1.5,0.4
		c-3.8,7.7-15.1,27.3-19.7,28.4c-0.9,0.2-1.4-0.2-1.5-1.3c-0.4-4.7,5.7-15.2,8.7-22.3c1-2.3,0.8-3.8,0.2-5.2c-0.5-1-1.4-2.2-2.3-2.8
		c-0.5-0.4-0.9-0.2-1.2,0.3c-4.8,7.3-10.4,16.9-13.8,25.1c-3.9,5.9-9.3,12.3-14.7,13.6c-1.6,0.4-2.7-0.4-2.8-2
		c-0.5-5.6,3.9-13.6,8.4-23.9c3.8-0.9,8.3-1.1,10.3-4.4c0.8-1.3,1.4-2.8,2.1-4.2c0.4-0.9,0.1-1.4-0.6-1.4c-1.5,0.1-5.7,1.2-8.8,2
		c0,0,2.9-6.1,4.1-9c2.3-5.6,3.2-7.9,1.4-10c-1-1.1-1.3-1.4-2.5-2c-0.8-0.4-1.4,0.4-1.9,1.2c-2.5,5.6-5.6,13.7-9.3,21.2
		c-3.6,1-6.3,1.7-9.5,2.8c-0.6,0.2-1.4,1.3-1,2c1.3,2.2,3.3,3.4,6.2,3.3c-1.8,5.4-3.5,9.9-6.2,14.5c-3.7,6.1-9,13.3-13,14.2
		c-0.7,0.2-1.3-0.2-1.4-1.1c-0.2-1.9,1.8-5.5,3.2-8.8c1-2.4-0.2-4.1-1.3-5.2c-1.1-1.1-2-0.8-2.8,0.4c-1.7,2.4-3.9,6.3-6.3,9.4
		c-3.3,4.6-8,8.6-10.5,9.1c-1.1,0.2-2-0.1-2.2-2c-0.6-7.8,13.1-25.8,17.8-26.9c0.5-0.1,0.8,0.1,0.8,0.5c0.1,1.2-0.7,2.7-0.6,4.1
		c0.1,1.6,1.4,2.7,4.2,1.8c3.6-1.2,5.7-6,5.6-9.4c-0.2-2.2-2.3-3.7-6.7-2.7c-11.6,2.6-28.5,16.6-32.2,35.1c-2.2,3.5-4.6,5.9-8.2,5.9
		c-1.7,0-2.2-1.3-2.3-2.4c-0.5-4.6,4.6-11.9,7.4-18.1c0.7-1.7,1-3.2,0.9-4.5c-0.1-1.6-1.3-4.6-2.4-5.7c-0.7-0.8-1.4-0.8-2.5,0.2
		c-5.6,4.8-10.3,11.9-17.6,19.7c2.1-4.2,2.4-5.3,3.5-8.7c0.6-1.8,0.4-3.1-0.5-4.3c-0.6-0.8-2.3-2.1-3.1-2.6c-0.7-0.4-1-0.3-1.4,0.8
		c-2.3,6.5-4.1,16-11.9,26.3c-3.5,4.6-5,6.8-8.5,11c1.6-3.3,2.3-5.4,2.8-6.9c0.6-2,1.2-3.8,0.4-5.3c-0.6-1-1.4-1.7-2.3-2.2
		c-1.1-0.6-1.7-0.6-2.5,0.4c-3.1,3.8-8.3,11-12.6,11.9c-1.7,0.4-2.6-0.4-2.7-2.1c-0.6-7.6,11.1-22.7,15.5-23.7c0.6-0.2,1,0,1.1,0.7
		c0,1.5-1.4,3.3-1.2,5.4c0.1,1.6,1.6,2.1,3.5,1.7c3.5-0.8,7.3-5.6,6.9-9.8c-0.3-3.1-2.5-5.3-7.1-4.3c-10.8,2.5-26.1,18.5-29.7,29.6
		c-3.2,5.1-6.6,9-10.6,9.9c-1.5,0.3-2.3-0.4-2.4-2.1c-0.3-3.9,4.3-11.3,6.2-16c0.8-2.3,1.1-3.8,0.3-5.6c-0.5-1-1.4-2.1-2.4-2.8
		c-0.7-0.4-1.2-0.2-1.7,0.7c-5.8,8.3-13,21.7-12.5,28.8c0.4,5.5,3.6,7.4,8.4,6.3c5-1.1,9.6-6,13.4-11.2c0,0.2,0,0.3,0,0.5
		c0.4,5.4,4.2,6.6,7.9,5.8c5.7-1.3,12.6-7.6,16.2-12.1c-4.3,15.1-21.9,34.3-27,48.1c-2.3,6.2-2.2,9.4-0.4,11.2c1,1.1,2,1.7,3.1,2.2
		c1.2,0.4,1.8,0,2.3-1.4c5.9-17.3,14.5-35.7,23.7-47.7c2.7-3.6,7.6-9.2,9.5-11.3c0.6,2.6,5.2,7,6.2,4.3
		c5.4-14.1,13.7-24.5,20.9-30.7c-4.8,7.3-7.3,13.7-6.6,20.1c0.4,4,3.3,6.3,7,5.4c4.7-1.1,9.1-5.2,12.8-9.9c0,0.3,0,0.6,0,0.8
		c0.4,4.3,3.2,5.6,6.3,4.9c5.8-1.3,11.4-7,15.3-12.7c-1.1,5.4,2,7.3,6.4,6.3c6-1.4,11.2-7.4,15.2-13.3c0,0.5,0,1.1,0,1.6
		c0.5,5.8,3.7,8.5,8.8,7.4c5.9-1.4,11.1-6.3,15-11.6c0,0.6,0,1.1,0.1,1.6c0.5,3.9,2.5,5.5,6.2,4.7c5-1.1,10.8-7.3,14.4-13.3
		c-0.8,6.2,2.9,9.1,7,8.2c9.3-2.1,16.6-15.2,20.4-21.9c1.5-2.8,3.1-5.9,4.2-8.9c4.8-1.2,11.5-5.4,11.5-5.4
		c-5.7,7.4-11.6,16.7-11,23.6c0.3,4.1,3.5,6.1,7.2,5.2c5.7-1.3,10.7-7.1,14.5-12.9v0.1c0.5,6.8,5.3,10.6,13.2,8.8
		c13.8-3.1,22.9-18.8,26.5-25.6C343,50.9,342.8,49.1,342.2,47.6 M326.5,41c1.1-0.2,1.6,1.5,1.3,2.6c-1.1,4.1-6.4,9.8-13.9,13.6
		C316.4,49.7,322.8,41.9,326.5,41"/>
	<polygon class="st0" points="155.7,122.7 153.8,145.6 157.5,144.8 159.3,121.9 	"/>
	<polygon class="st0" points="163,143.5 164.8,120.5 168.2,119.7 171.6,131.7 171.7,131.7 172.7,118.6 176,117.8 174.2,140.8 
		171,141.5 167.5,128.3 167.4,128.3 166.3,142.7 	"/>
	<polygon class="st0" points="179.1,139.6 181,116.6 184.4,115.8 187.8,127.9 187.8,127.9 188.9,114.7 192.2,114 190.3,136.9 
		187.2,137.6 183.6,124.4 183.6,124.5 182.4,138.8 	"/>
	<path class="st0" d="M201.3,57.5l-0.4,0.7L173.6,7.7l-33.1,65.7c0,0-0.6,0.6-0.6-0.1c0-0.1,33.9-73.2,33.9-73.2L201.3,57.5z"/>
	<path class="st0" d="M137.8,128.8l0.5-0.8l32.4,61.6l39.4-80.2c0,0,0.7-0.8,0.7,0.2c0,0.1-40.3,89.4-40.3,89.4L137.8,128.8z"/>
</g>
</svg>
