<svg viewBox="0 0 288 180"
    role="img"
    aria-labelledby="hellorewards"
    xmlns="http://www.w3.org/2000/svg">
    <title id="hellorewards">Hello Rewards</title>
    <path d="m0 0h288v180h-288z" fill="#272010"/>
    <g fill="#fff">
        <path d="m134.07 219v-2.42h-4.39v22.27h4.48v-13.53c0-3.07 2-5 4.43-5a4.14 4.14 0 0 1 3.34 1.5l3.38-3.39a6.91 6.91 0 0 0 -5.32-2.1 7.38 7.38 0 0 0 -5.92 2.67z" transform="translate(-89.69 -90.02)"/>
        <path d="m164.5 216.32c-5.71 0-9.45 4.17-9.45 11.37 0 8.48 4.44 11.42 10 11.42a10.47 10.47 0 0 0 8.34-3.46l-2.83-2.65a6.63 6.63 0 0 1 -5.41 2.29c-3.64 0-5.66-2.42-5.66-6.24h14.45v-2c0-6.34-3.47-10.73-9.44-10.73zm-5 9.57a7 7 0 0 1 .57-3 4.65 4.65 0 0 1 4.44-2.81 4.59 4.59 0 0 1 4.39 2.81 7 7 0 0 1 .61 3z" transform="translate(-89.69 -90.02)"/>
        <path d="m118.15 142.24-5.14-15.68h-3.46l-5.19 15.68-4.3-15.68h-4.75l6.9 22.27h3.86l5.19-15.55 5.22 15.55h3.82l6.94-22.27h-4.78z"/>
        <path d="m236.7 216.32c-3.68 0-5.88.75-8 3.21l2.94 2.76c1.23-1.58 2.42-2.15 4.88-2.15 3.47 0 4.87 1.36 4.87 4.17v1.58h-5.88c-5.1 0-7.69 2.68-7.69 6.41a6.84 6.84 0 0 0 1.76 4.79c1.36 1.36 3.21 2 6 2a7.32 7.32 0 0 0 5.92-2.28v2h4.39v-14.81c-.01-5.09-3.08-7.68-9.19-7.68zm4.7 14.49a4.49 4.49 0 0 1 -1 3.3c-1.19 1.14-2.46 1.27-4.17 1.27-2.81 0-4.09-1.14-4.09-3.16s1.37-3.21 4-3.21h5.22z" transform="translate(-89.69 -90.02)"/>
        <path d="m265.82 219v-2.42h-4.38v22.27h4.48v-13.53c0-3.07 2-5 4.43-5a4.14 4.14 0 0 1 3.34 1.5l3.38-3.39a6.91 6.91 0 0 0 -5.31-2.1 7.42 7.42 0 0 0 -5.94 2.67z" transform="translate(-89.69 -90.02)"/>
        <path d="m300.65 218.82a6.89 6.89 0 0 0 -5.84-2.5 7.61 7.61 0 0 0 -5.41 2c-2.24 2.24-2.5 6-2.5 9.39s.26 7.2 2.5 9.45a7.77 7.77 0 0 0 5.45 2 6.85 6.85 0 0 0 5.89-2.63v2.37h4.39v-34.24h-4.48zm-4.65 16.29c-4 0-4.66-3.47-4.66-7.42s.62-7.38 4.66-7.38 4.61 3.43 4.61 7.38-.53 7.42-4.61 7.42z" transform="translate(-89.69 -90.02)"/>
        <path d="m330.74 225.76-3.51-.31c-2.38-.21-3.08-1.23-3.08-2.55 0-1.66 1.36-2.85 4-2.85a8.4 8.4 0 0 1 5.49 1.63l2.81-2.86c-2.06-1.8-4.92-2.5-8.26-2.5-4.65 0-8.38 2.46-8.38 6.81 0 3.91 2.41 5.79 6.58 6.14l3.56.31c2.15.18 3 1.14 3 2.64 0 2.11-2.15 3.07-4.87 3.07a8.62 8.62 0 0 1 -6.42-2.33l-2.94 2.95c2.63 2.59 5.71 3.2 9.36 3.2 5.31 0 9.26-2.41 9.26-7.07.03-3.95-2.43-5.93-6.6-6.28z" transform="translate(-89.69 -90.02)"/>
        <path d="m46.07 70.63h26.93v25.9h6.05v-56.74h-6.05v25.42h-26.93v-25.42h-6.06v56.74h6.06z"/>
        <path d="m249.43 175.87v-46.06h-5.73v46.3c0 6 3.1 10.44 10 10.44h4.14v-4.94h-3.11c-4.02 0-5.3-1.91-5.3-5.74z" transform="translate(-89.69 -90.02)"/>
        <path d="m277.08 175.87v-46.06h-5.74v46.3c0 6 3.11 10.44 10 10.44h4.14v-4.94h-3.1c-4.03 0-5.3-1.91-5.3-5.74z" transform="translate(-89.69 -90.02)"/>
        <path d="m337.71 158.18c0-12 0-17.61-5.33-23a20.81 20.81 0 0 0 -29 0c-5.34 5.34-5.34 10.92-5.34 23s0 17.61 5.34 22.95a20.78 20.78 0 0 0 29 0c5.33-5.34 5.33-10.92 5.33-22.95zm-10 19.37a13.86 13.86 0 0 1 -19.6 0c-3.59-3.67-4-7.5-4-19.37s.39-15.7 4-19.36a13.83 13.83 0 0 1 19.6 0c3.59 3.66 4 7.49 4 19.36s-.45 15.7-4.04 19.37z" transform="translate(-89.69 -90.02)"/>
        <path d="m221.32 135.23a20.79 20.79 0 0 0 -29 0c-4.89 4.89-5.3 10-5.34 20h-7v5.38h7c0 10.35.38 15.52 5.34 20.48a20.05 20.05 0 0 0 14.5 5.9l11.88.01v-5.42l-11.88.05a13.69 13.69 0 0 1 -9.8-4.06c-3.33-3.4-3.91-7-4-16.9h33.62v-5.38c-.03-10.03-.44-15.18-5.32-20.06zm-24.32 3.59a13.83 13.83 0 0 1 19.6 0c3.26 3.33 3.88 6.9 4 16.45h-27.6c.12-9.61.74-13.11 4-16.45z" transform="translate(-89.69 -90.02)"/>
    </g>
</svg>