<svg xmlns="http://www.w3.org/2000/svg" viewBox="0 0 150 154.23"><defs><style>.a{fill:#cf0a2c;fill-rule:evenodd;}</style></defs><g transform="translate(0 0.1)"><path class="a" d="M68.412,145.629V105.958a4.048,4.048,0,1,1,8.1,0v39.671H87.842V99.482A11,11,0,0,1,84.6,93H60.316a11,11,0,0,1-3.238,6.477v46.148Zm-56.268-50.6c2.429,0,4.048-1.214,4.048-4.048V58.192a4.048,4.048,0,1,1,8.1,0V90.981a11.6,11.6,0,0,1-3.238,8.5v46.148H40.076a4.048,4.048,0,0,1,0,8.1H16.6a4.056,4.056,0,0,1-4.048-4.048V103.125A11.789,11.789,0,0,1,0,90.981V58.192A19.476,19.476,0,0,1,14.978,39.166l7.691-2.024a4.4,4.4,0,0,1,4.858,2.834c.4,2.024-.81,4.453-2.834,4.858L17,46.857A11.677,11.677,0,0,0,8.1,58.192V90.981a3.824,3.824,0,0,0,4.048,4.048ZM27.122,23.783A3.573,3.573,0,0,1,25.5,29.046a3.981,3.981,0,0,1-5.667-1.214c-1.214-2.834-2.429-6.072-2.429-9.31A18.488,18.488,0,0,1,36.027.3,18.725,18.725,0,0,1,48.981,5.567a3.913,3.913,0,0,1,0,5.667,3.913,3.913,0,0,1-5.667,0A9.755,9.755,0,0,0,36.027,8.4,10.37,10.37,0,0,0,25.5,18.521a8.136,8.136,0,0,0,1.619,5.262Zm36.027,0a3.573,3.573,0,0,1-1.619,5.262,3.573,3.573,0,0,1-5.262-1.619,18.8,18.8,0,0,1-2.429-9.31,18.216,18.216,0,1,1,36.432,0,18.8,18.8,0,0,1-2.429,9.31,3.893,3.893,0,0,1-6.882-3.643,11.205,11.205,0,0,0,1.214-5.262,10.525,10.525,0,0,0-21.05,0c.81,2.024,1.214,3.643,2.024,5.262Zm32.384,79.341v46.957a4.056,4.056,0,0,1-4.048,4.048H52.624a4.056,4.056,0,0,1-4.048-4.048V103.125c-6.477.4-12.144-4.858-12.144-12.144V58.192A19.476,19.476,0,0,1,51.41,39.166L59.1,37.142a3.883,3.883,0,0,1,4.048,1.214l9.31,9.31,9.715-9.715a3.865,3.865,0,0,1,4.048-.81l7.286,2.024c8.5,2.429,14.978,10.12,14.978,19.026V90.981a12.61,12.61,0,0,1-12.954,12.144Zm-47.362-8.1c-2.429,0-4.048-1.214-4.048-4.048V58.192a11.677,11.677,0,0,1,8.906-11.334l5.262-1.619,9.715,9.715v30.36h-8.1V58.6a4.048,4.048,0,1,0-8.1,0V91.385c.4,2.024-1.214,3.643-3.643,3.643Zm48.172,0c-2.429,0-4.048-1.214-4.048-4.048V58.192a4.048,4.048,0,0,0-8.1,0V85.313H76.1V54.953l9.715-9.715,5.262,1.619a11.677,11.677,0,0,1,8.906,11.334V90.981A3.524,3.524,0,0,1,96.343,95.029Z" transform="translate(0 0)"/><path class="a" d="M77.91,113.445,62.528,86.728V47.462A3.205,3.205,0,0,0,60.5,44.224L51.6,38.961a4.243,4.243,0,0,0-4.858.4,15.412,15.412,0,0,1-2.429,2.024A4.416,4.416,0,0,0,43.1,46.652a5.163,5.163,0,0,0,2.834,2.024,6.839,6.839,0,0,0,4.048-1.214L54.432,50.3V88.347a3.649,3.649,0,0,0,.4,2.024L67.385,112.23H48.36a4.056,4.056,0,0,0-4.048,4.048v29.146H37.835a4.056,4.056,0,0,0-4.048,4.048h0a3.824,3.824,0,0,0,4.048,4.048H48.36a4.056,4.056,0,0,0,4.048-4.048V119.922H74.267A4.2,4.2,0,0,0,77.91,113.445ZM45.931,17.911V28.436a4.048,4.048,0,1,0,8.1,0V17.507C54.027,7.386,46.336.1,36.215.1A17.55,17.55,0,0,0,24.881,4.148c-1.619,1.619-2.024,4.048-.4,5.667h0c1.214,1.214,3.643,1.619,4.858.4,1.619-1.619,4.453-2.429,7.691-2.429A10.117,10.117,0,0,1,45.931,17.911Z" transform="translate(71.462 0.61)"/></g></svg>