<svg xmlns="http://www.w3.org/2000/svg" viewBox="0 0 71.277 90"><defs><style>.a{fill:#cf0a2c;fill-rule:evenodd;}</style></defs><path class="a" d="M20.758,87.865a2.135,2.135,0,0,1-4.27,0V76.04l-4.927-4.927-2.792.821a6.159,6.159,0,0,0-4.6,5.912V87.865A2.174,2.174,0,0,1,2.035,90,2.174,2.174,0,0,1-.1,87.865V77.847a10.165,10.165,0,0,1,7.719-9.854l3.942-.985a1.664,1.664,0,0,1,2.135.328l4.927,4.927,4.927-4.927a2.368,2.368,0,0,1,2.135-.493l3.777.985a7.288,7.288,0,0,0,6.077-1.15A6.671,6.671,0,0,0,38,62.9a6.194,6.194,0,0,1,11.989,3.12,19.065,19.065,0,0,1-6.9,10.347A20.266,20.266,0,0,1,33.4,80.31V87.7a2.135,2.135,0,0,1-4.27,0V78.339A2.174,2.174,0,0,1,31.269,76.2a14.805,14.805,0,0,0,9.2-3.12,14.328,14.328,0,0,0,5.42-8.212,2.031,2.031,0,1,0-3.942-.985A11.475,11.475,0,0,1,38,69.8a11.332,11.332,0,0,1-9.69,1.971l-2.792-.821-4.927,4.927V87.865ZM47.035,48.449V45.821H42.929v2.628l2.135,2.135,1.971-2.135Zm-7.719,2.3a2.082,2.082,0,0,1-.657-1.478V44.836a5.776,5.776,0,0,1-2.792-4.927c0-1.478-.985-2.792-1.971-4.106-1.642-2.3-3.613-4.763-3.613-9.526a14.453,14.453,0,1,1,28.905,0A13.472,13.472,0,0,1,55.575,35.8c-.985,1.314-1.971,2.628-1.971,4.106a5.4,5.4,0,0,1-2.792,4.927v4.27a2.109,2.109,0,0,1-.657,1.642L46.05,54.854a2.082,2.082,0,0,1-2.956,0l-3.777-4.106Zm2.628-9.2h6.241a1.823,1.823,0,0,0,1.807-1.807c0-2.956,1.314-4.6,2.792-6.569,1.314-1.807,2.792-3.777,2.792-7.226a10.347,10.347,0,1,0-20.693,0c0,3.449,1.478,5.42,2.792,7.226,1.478,1.971,2.792,3.613,2.792,6.569a1.414,1.414,0,0,0,1.478,1.807Zm23.485-13.3a2.135,2.135,0,0,1,0-4.27h3.613a2.135,2.135,0,0,1,0,4.27Zm-44.507,0a2.135,2.135,0,1,1,0-4.27h3.613a2.135,2.135,0,0,1,0,4.27ZM60.831,13.139l2.628-2.628A2.09,2.09,0,0,0,60.5,7.555l-2.628,2.628a2.09,2.09,0,0,0,2.956,2.956ZM29.462,44.672l2.628-2.628a2.09,2.09,0,1,0-2.956-2.956l-2.628,2.628a2.09,2.09,0,0,0,2.956,2.956ZM47.035,5.748a2.135,2.135,0,1,1-4.27,0V2.135a2.135,2.135,0,1,1,4.27,0V5.748Zm10.839,36.3L60.5,44.672a2.09,2.09,0,0,0,2.956-2.956l-2.628-2.628a2.09,2.09,0,1,0-2.956,2.956ZM26.506,10.511l2.628,2.628a2.09,2.09,0,1,0,2.956-2.956L29.462,7.555a2.09,2.09,0,0,0-2.956,2.956ZM8.276,78.339V87.7a2.135,2.135,0,1,0,4.27,0V78.339A2.174,2.174,0,0,0,10.411,76.2a2.3,2.3,0,0,0-2.135,2.135Zm5.748-18.394a5.2,5.2,0,0,1-.657-2.628,5.42,5.42,0,0,1,10.839,0,4.819,4.819,0,0,1-.657,2.628,2.058,2.058,0,0,0,3.613,1.971,9.9,9.9,0,0,0,1.314-4.763,9.526,9.526,0,0,0-19.051,0,9.9,9.9,0,0,0,1.314,4.763,2.1,2.1,0,0,0,2.792.821A2.474,2.474,0,0,0,14.024,59.945Z" transform="translate(0.1)"/></svg>