<svg xmlns="http://www.w3.org/2000/svg" viewBox="0 0 88.787 90"><defs><style>.a{fill:#cf0a2c;fill-rule:evenodd;}</style></defs><path class="a" d="M86.49,90H2.334C.386,90-.588,87.857.386,86.1L17.334,56.688a2.238,2.238,0,0,1,2.143-1.169H30.386a2.338,2.338,0,1,1,0,4.675H20.841l-7.6,13.247H59.217l-3.7-13.052H50.061c-1.364,2.532-2.532,5.065-3.7,7.6a2.448,2.448,0,0,1-4.481,0c-2.922-7.208-7.208-14.026-11.3-20.455-2.727-4.286-5.455-8.571-7.792-13.052a23.064,23.064,0,0,1-2.532-10.909A23.544,23.544,0,0,1,27.269,6.818,25.938,25.938,0,0,1,44.412,0,23.544,23.544,0,0,1,61.165,7.013a23.891,23.891,0,0,1,7.013,16.753,27.053,27.053,0,0,1-2.532,10.909c-2.338,4.481-4.87,8.571-7.792,13.052-1.558,2.532-3.312,5.26-4.87,7.987H69.347a2.4,2.4,0,0,1,2.143,1.364l16.948,29.61A2.187,2.187,0,0,1,86.49,90Zm-26.1-11.494H46.75v6.818H62.334l-1.948-6.818ZM67.2,85.325h15L67.983,60.39h-7.4L67.2,85.325ZM41.879,78.506H10.321l-3.9,6.818H41.879V78.506Zm2.532-66.623A11.806,11.806,0,0,0,32.529,23.766,11.93,11.93,0,0,0,44.412,35.649,11.806,11.806,0,0,0,56.3,23.766,12.059,12.059,0,0,0,44.412,11.883Zm0,4.87a7.013,7.013,0,1,0,7.013,7.013,6.984,6.984,0,0,0-7.013-7.013Zm13.442-6.429a18.815,18.815,0,0,0-26.883,0,18.845,18.845,0,0,0-5.649,13.442,16.5,16.5,0,0,0,2.143,8.571c2.143,4.091,4.675,8.182,7.6,12.662a145.776,145.776,0,0,1,9.351,16.169A184.72,184.72,0,0,1,53.763,45c2.727-4.286,5.455-8.571,7.6-12.662A19.245,19.245,0,0,0,63.5,23.766,20.6,20.6,0,0,0,57.853,10.325Z" transform="translate(-0.004)"/></svg>