<svg xmlns="http://www.w3.org/2000/svg" viewBox="0 0 102.273 90"><defs><style>.a{fill:#ffffff;}</style></defs><g transform="translate(13.442 19.286)"><g transform="translate(0 39.74)"><path class="a" d="M23.886,48.836H19.21V24.875H9.275V48.836H4.6V20.2H23.886Z" transform="translate(-4.6 -20.2)"/></g><g transform="translate(28.052 22.208)"><path class="a" d="M33.486,60.369H28.81V18.875H18.875V60.369H14.2V14.2H33.486Z" transform="translate(-14.2 -14.2)"/></g><g transform="translate(56.104)"><path class="a" d="M43.086,74.977H38.41v-63.7H28.475v63.7H23.8V6.6H43.086Z" transform="translate(-23.8 -6.6)"/></g></g><g transform="translate(0 85.325)"><path class="a" d="M99.935,33.875H2.338A2.514,2.514,0,0,1,0,31.538,2.514,2.514,0,0,1,2.338,29.2h97.6a2.514,2.514,0,0,1,2.338,2.338A2.514,2.514,0,0,1,99.935,33.875Z" transform="translate(0 -29.2)"/></g><g transform="translate(10.519)"><path class="a" d="M23.47,33.019H5.938A2.514,2.514,0,0,1,3.6,30.682a2.514,2.514,0,0,1,2.338-2.338H21.425L44.8,0H82.788a2.514,2.514,0,0,1,2.338,2.338A2.81,2.81,0,0,1,82.5,4.675H46.847Z" transform="translate(-3.6)"/></g></svg>