<svg xmlns="http://www.w3.org/2000/svg" viewBox="0 0 80.947 90"><defs><style>.a{fill:#fff;fill-rule:evenodd;opacity:0.9;}</style></defs><path class="a" d="M76.307,45.967a9.394,9.394,0,0,1,4.3,10.31c-1.289,4.511-5.37,6.229-9.881,6.229V87.637a2.363,2.363,0,0,1-4.726,0V62.506H64.708a2.363,2.363,0,0,1,0-4.726H66v-.859a2.792,2.792,0,0,0-5.585,0v30.5a2.363,2.363,0,0,1-4.726,0v-30.5a5.946,5.946,0,0,1,.644-2.792H17.668a2.843,2.843,0,0,0-2.792,2.792v30.5a2.363,2.363,0,0,1-4.726,0V62.506c-4.511,0-8.592-1.933-9.881-6.659a9.514,9.514,0,0,1,4.3-10.525l33.508-21.05V21.695c0-3.222,1.074-4.511,3.437-6.659,1.718-1.5,3.222-2.792,3.222-5.37a5.227,5.227,0,0,0-5.155-5.155,5.6,5.6,0,0,0-3.652,1.5L32.489,9.451a2.336,2.336,0,0,1-3.222,0,2.336,2.336,0,0,1,0-3.222L32.7,2.792A9.936,9.936,0,0,1,39.577,0a9.81,9.81,0,0,1,9.881,9.666c0,4.081-1.933,6.229-4.726,8.592-1.074,1.074-1.933,1.718-1.933,3.437v2.578L76.307,45.967ZM73.73,49.833,40.436,28.353,7.143,49.189a4.633,4.633,0,0,0-2.363,5.37C5.424,57.351,7.787,58,10.15,58v-.859a7.611,7.611,0,0,1,7.518-7.518H63.419a7.611,7.611,0,0,1,7.518,7.518V58c2.363,0,4.726-.43,5.37-3.007a5.061,5.061,0,0,0-2.578-5.155ZM23.9,87.422v-5.8a2.384,2.384,0,0,0-2.363-2.363,2.551,2.551,0,0,0-2.148,2.578v5.8A2.384,2.384,0,0,0,21.749,90,2.763,2.763,0,0,0,23.9,87.422Zm9.021,0v-5.8a2.363,2.363,0,0,0-4.726,0v5.8a2.384,2.384,0,0,0,2.363,2.363,2.254,2.254,0,0,0,2.363-2.363Zm9.236,0v-5.8a2.363,2.363,0,0,0-4.726,0v5.8a2.363,2.363,0,0,0,4.726,0Zm9.021,0v-5.8a2.363,2.363,0,0,0-4.726,0v5.8a2.384,2.384,0,0,0,2.363,2.363A2.254,2.254,0,0,0,51.176,87.422Z" transform="translate(0.047)"/></svg>