<svg xmlns="http://www.w3.org/2000/svg" viewBox="0 0 94.286 80"><defs><style>.a{opacity:0.8;}.b,.c{fill:#333;}.b{fill-rule:evenodd;}</style></defs><g class="a"><path class="b" d="M47.819,57.224H25.438V17.7H47.819V57.224Zm5-41.9V59.843A2.642,2.642,0,0,1,50.2,62.462H22.819A2.642,2.642,0,0,1,20.2,59.843V15.319A2.642,2.642,0,0,1,22.819,12.7H50.2a2.642,2.642,0,0,1,2.619,2.619Z" transform="translate(27.895 17.538)"/><g transform="translate(56.429 38.81)"><path class="b" d="M27.033,16.3A3.333,3.333,0,1,1,23.7,19.633,3.405,3.405,0,0,1,27.033,16.3Z" transform="translate(-23.7 -16.3)"/><path class="b" d="M27.033,20.1A3.333,3.333,0,1,1,23.7,23.433,3.255,3.255,0,0,1,27.033,20.1Z" transform="translate(-23.7 -11.052)"/><path class="b" d="M31.033,16.3A3.333,3.333,0,1,1,27.7,19.633,3.405,3.405,0,0,1,31.033,16.3Z" transform="translate(-18.176 -16.3)"/><path class="b" d="M31.033,20.1A3.333,3.333,0,1,1,27.7,23.433,3.255,3.255,0,0,1,31.033,20.1Z" transform="translate(-18.176 -11.052)"/></g><g transform="translate(57.143 57.381)"><path class="c" d="M31.381,38.862a7.381,7.381,0,1,1,7.381-7.381A7.418,7.418,0,0,1,31.381,38.862Zm0-10.238A2.619,2.619,0,1,0,34,31.243,2.642,2.642,0,0,0,31.381,28.624Z" transform="translate(-24 -24.1)"/></g><g transform="translate(9.048 9.762)"><path class="c" d="M6.419,15.767a2.7,2.7,0,0,1-1.9-.714,2.3,2.3,0,0,1,0-3.333l6.9-6.9a2.3,2.3,0,0,1,3.333,0,2.3,2.3,0,0,1,0,3.333l-6.667,6.9A2.572,2.572,0,0,1,6.419,15.767Z" transform="translate(-3.8 -4.1)"/><g transform="translate(0.238 0)"><path class="c" d="M6.281,31.243a2.162,2.162,0,0,1-1.667-.714,2.3,2.3,0,0,1,0-3.333L27,4.814a2.3,2.3,0,0,1,3.333,0,2.3,2.3,0,0,1,0,3.333L7.948,30.529A2.572,2.572,0,0,1,6.281,31.243Z" transform="translate(-3.9 -4.1)"/></g></g><path class="b" d="M91.667,0H2.619A2.642,2.642,0,0,0,0,2.619v56.9a2.642,2.642,0,0,0,2.619,2.619H50.238v-5H5V5H89.048V56.9H78.333v5H91.667a2.642,2.642,0,0,0,2.619-2.619V2.619A2.814,2.814,0,0,0,91.667,0Z"/></g></svg>