<svg xmlns="http://www.w3.org/2000/svg" viewBox="0 0 25.228 25"><defs><style>.a{fill:#cf0a2c;}</style></defs><path class="a" d="M25.228,23.177a1.969,1.969,0,0,1-.684,1.367A3.239,3.239,0,0,1,23.177,25a3.239,3.239,0,0,1-1.367-.456l-5.046-5.273a9.668,9.668,0,0,1-5.957,1.823,11.219,11.219,0,0,1-4.134-.684A12.3,12.3,0,0,1,3.223,18.1,12.465,12.465,0,0,1,.944,14.648,12.131,12.131,0,0,1,0,10.547,13.5,13.5,0,0,1,.911,6.413,17.433,17.433,0,0,1,3.19,3.19,7.227,7.227,0,0,1,6.641.879,8.332,8.332,0,0,1,10.775,0a9.068,9.068,0,0,1,4.134.911,7.648,7.648,0,0,1,3.223,2.311A10.036,10.036,0,0,1,20.41,6.445a9.068,9.068,0,0,1,.911,4.134A10.185,10.185,0,0,1,19.5,16.536l5.046,5.273a1.624,1.624,0,0,1,.684,1.367m-9.863-7.812a6.684,6.684,0,0,0,0-9.635,6.44,6.44,0,0,0-4.59-1.823A7.439,7.439,0,0,0,5.957,5.729a6.684,6.684,0,0,0,0,9.635,6.63,6.63,0,0,0,4.818,2.051A5.565,5.565,0,0,0,15.365,15.365Z"/></svg>