<svg xmlns="http://www.w3.org/2000/svg" width="91.768" height="53.423" viewBox="0 0 91.768 53.423"><g transform="translate(-6.632 -9.726)"><g transform="translate(27.587 9.726)"><path d="M57.032,40.091H17.858a5.348,5.348,0,0,1-5.342-5.342,14.176,14.176,0,0,1,3.291-8.241,18.744,18.744,0,0,1,7.578-5.424,37.235,37.235,0,0,1,14.06-2.358A37.357,37.357,0,0,1,51.5,21.085a18.732,18.732,0,0,1,7.582,5.424,14.147,14.147,0,0,1,3.291,8.241A5.348,5.348,0,0,1,57.032,40.091ZM16.077,34.76a1.779,1.779,0,0,0,1.781,1.77H57.032a1.779,1.779,0,0,0,1.781-1.77,10.848,10.848,0,0,0-2.632-6.172c-3.469-4.124-9.947-6.3-18.736-6.3s-15.267,2.183-18.736,6.3A10.865,10.865,0,0,0,16.077,34.76Z" transform="translate(-12.516 13.328)" fill="#666"/><path d="M29.761,38.217A14.245,14.245,0,1,1,44.007,23.971,14.26,14.26,0,0,1,29.761,38.217Zm0-24.929A10.684,10.684,0,1,0,40.445,23.971,10.7,10.7,0,0,0,29.761,13.287Z" transform="translate(-4.832 -9.726)" fill="#666"/></g><g transform="translate(6.632 20.41)"><path d="M22.658,37.533H11.974a5.346,5.346,0,0,1-5.342-5.342,11.573,11.573,0,0,1,2.361-6.407,13.58,13.58,0,0,1,5.456-4.234,24.643,24.643,0,0,1,9.993-1.823c.637,0,1.264.018,1.873.05a1.783,1.783,0,0,1-.185,3.561c-.548-.032-1.111-.046-1.685-.046-13.871,0-14.238,8.472-14.245,8.914a1.781,1.781,0,0,0,1.781,1.77H22.665a1.781,1.781,0,0,1,0,3.561Z" transform="translate(-6.632 5.203)" fill="#666"/><path d="M19.316,34.094A10.684,10.684,0,1,1,30,23.41,10.695,10.695,0,0,1,19.316,34.094Zm0-17.807a7.123,7.123,0,1,0,7.123,7.123A7.13,7.13,0,0,0,19.316,16.287Z" transform="translate(-1.509 -12.726)" fill="#666"/></g><g transform="translate(69.909 20.41)"><path d="M31.746,37.533H42.43a5.349,5.349,0,0,0,5.342-5.342,11.606,11.606,0,0,0-2.361-6.407,13.567,13.567,0,0,0-5.459-4.234,24.625,24.625,0,0,0-9.989-1.823c-.637,0-1.268.018-1.877.05a1.783,1.783,0,0,0,.189,3.561c.545-.032,1.111-.046,1.685-.046,13.868,0,14.235,8.472,14.245,8.914a1.781,1.781,0,0,1-1.781,1.77H31.739a1.781,1.781,0,1,0,0,3.561Z" transform="translate(-19.282 5.203)" fill="#666"/><path d="M24.4,23.41A10.684,10.684,0,1,1,35.084,34.094,10.7,10.7,0,0,1,24.4,23.41Zm3.561,0a7.123,7.123,0,1,0,7.123-7.123A7.13,7.13,0,0,0,27.961,23.41Z" transform="translate(-24.4 -12.726)" fill="#666"/></g></g></svg>