<svg xmlns="http://www.w3.org/2000/svg" viewBox="0 0 78.94 49"><title>Reservations</title><defs><style>.a{fill:#595959;}</style></defs><g transform="translate(-1.2 -2)"><g transform="translate(-1470 -1681)"><path class="a" d="M1548.5,1725.47h-1.65v4.9a1.645,1.645,0,0,1-3.29,0v-4.9h-65.78v4.9a1.645,1.645,0,0,1-3.29,0v-4.9h-1.65a1.641,1.641,0,0,1-1.64-1.64v-13.06a4.921,4.921,0,0,1,4.93-4.9h1.65v-14.7A8.2,8.2,0,0,1,1486,1683h49.34a8.2,8.2,0,0,1,8.22,8.17v14.7h1.65a4.921,4.921,0,0,1,4.93,4.9v13.06a1.641,1.641,0,0,1-1.64,1.64Zm-74.01-3.27h72.36v-11.43a1.647,1.647,0,0,0-1.64-1.64h-69.08a1.647,1.647,0,0,0-1.64,1.64Zm65.78-31.03a4.914,4.914,0,0,0-4.93-4.9H1486a4.92,4.92,0,0,0-4.93,4.9v14.7h6.57v-8.17a4.929,4.929,0,0,1,4.94-4.9h9.87a4.921,4.921,0,0,1,4.93,4.9v8.17h6.58v-8.17a4.921,4.921,0,0,1,4.93-4.9h9.87a4.929,4.929,0,0,1,4.94,4.9v8.17h6.57Zm-36.18,6.53a1.639,1.639,0,0,0-1.64-1.63h-9.87a1.647,1.647,0,0,0-1.65,1.63v8.17h13.16Zm26.32,0a1.641,1.641,0,0,0-1.65-1.63h-9.87a1.639,1.639,0,0,0-1.64,1.63v8.17h13.16Z"/></g></g></svg>