<svg xmlns="http://www.w3.org/2000/svg" viewBox="0 0 87.345 90"><defs><style>.a{fill:#ffffff;fill-rule:evenodd;}</style></defs><path class="a" d="M82.566,69.292V11.416a6.573,6.573,0,0,0-6.637-6.637,7.154,7.154,0,0,0-3.982,1.327V67.965a11.689,11.689,0,0,1,10.619,1.327ZM40.885,78.053H11.947V30H60V78.053H45.664V73.274h9.558V61.327H45.664v4.779H40.885V56.549H55.221v-21.5H36.106V51.77H31.327V35.044h-14.6V44.6h9.558v4.779H16.726v7.168h9.558v4.779H16.726V73.274H31.062V56.549h4.779V73.274h4.779v4.779ZM67.168,5.044a1.892,1.892,0,0,1,.8-1.593A11.51,11.51,0,0,1,75.929,0,11.331,11.331,0,0,1,87.345,11.416V78.584A11.449,11.449,0,0,1,76.195,90H2.389A2.379,2.379,0,0,1,0,87.611V20.442a2.379,2.379,0,0,1,2.389-2.389H67.168V5.044Zm0,67.168a2.455,2.455,0,0,0,4.248,1.593,6.218,6.218,0,0,1,4.513-1.858,6.573,6.573,0,0,1,6.637,6.637,6.7,6.7,0,0,1-6.372,6.637H4.779V22.832H67.168Z"/></svg>