<svg xmlns="http://www.w3.org/2000/svg" viewBox="0 0 75.192 45"><defs><style>.a{fill:#fff;fill-rule:evenodd;}</style></defs><path class="a" d="M4.131,14.808v3.462H19.515V16.346c0-2.885-2.308-4.808-5-5.769a11.436,11.436,0,0,0-6.731-.192c-1.923.769-3.654,2.115-3.654,4.423Zm15.385,7.5H4.131v8.846H70.862V26.538H21.631a2.183,2.183,0,0,1-2.115-2.308V22.308Zm51.538.385h-47.5V18.077H70.862v4.615Zm0-8.654V8.462a2.134,2.134,0,0,1,2.115-2.115,1.977,1.977,0,0,1,1.923,2.115V42.885a2.115,2.115,0,1,1-4.231,0v-7.5H4.131v7.5A2.134,2.134,0,0,1,2.015,45,2.134,2.134,0,0,1-.1,42.885V2.115A2.458,2.458,0,0,1,2.208,0,2.134,2.134,0,0,1,4.323,2.115V7.692A5.241,5.241,0,0,1,6.631,6.538a15.139,15.139,0,0,1,9.231.192c3.654,1.154,6.538,3.654,7.5,7.308Z" transform="translate(0.1)"/></svg>