<svg xmlns="http://www.w3.org/2000/svg" viewBox="0 0 74.929 90"><defs><style>.a{fill:#cf0a2c;}</style></defs><g transform="translate(21.287)"><path class="a" d="M57.356,16.774H25V3.746A3.78,3.78,0,0,1,28.746,0H53.609a3.78,3.78,0,0,1,3.746,3.746Zm-29.8-2.554H54.8V3.746a1.164,1.164,0,0,0-1.192-1.192H28.746a1.164,1.164,0,0,0-1.192,1.192Z" transform="translate(-25)"/></g><g transform="translate(21.287 15.156)"><path class="a" d="M25,30.317V27.762A27.442,27.442,0,0,0,46.287,17.8l2.129,1.447A30.061,30.061,0,0,1,25,30.317Z" transform="translate(-25 -17.8)"/></g><g transform="translate(43.936 22.904)"><path class="a" d="M62.328,32.69A15.02,15.02,0,0,1,51.6,28.6l1.873-1.7c.085.17,3.15,3.321,8.855,3.321Z" transform="translate(-51.6 -26.9)"/></g><g transform="translate(19.683 14.986)"><path class="a" d="M40.9,52.255c-6.982,0-12.261-4.257-15.667-12.687A31.629,31.629,0,0,1,24.976,17.6l2.384.937c0,.085-3.832,9.877.255,20.095C30.6,46.039,35.023,49.785,40.9,49.785s10.3-3.746,13.283-11.154a29.56,29.56,0,0,0,.255-20.095L56.82,17.6a32.124,32.124,0,0,1-.255,21.968C53.159,48,47.88,52.255,40.9,52.255Z" transform="translate(-23.116 -17.6)"/></g><g transform="translate(0 46.183)"><path class="a" d="M2.554,98.056H0V81.538C0,70.384,10.473,62.124,19.839,62.124h3.15V55.568a1.384,1.384,0,0,1,.937-1.277,1.175,1.175,0,0,1,1.447.681,21.853,21.853,0,0,0,8.94,8.94A1.335,1.335,0,0,1,35.08,65.1v5.109H32.526V65.871a26.253,26.253,0,0,1-6.982-6.045V63.4a1.31,1.31,0,0,1-1.277,1.277H19.839c-8.174,0-17.285,7.237-17.285,16.859Z" transform="translate(0 -54.239)"/><g transform="translate(39.849 0.036)"><path class="a" d="M81.88,98.063H79.326V81.544c0-9.622-9.111-16.859-17.285-16.859H57.614a1.31,1.31,0,0,1-1.277-1.277V59.832a25,25,0,0,1-6.982,6.045V70.22H46.8V65.111a1.284,1.284,0,0,1,.766-1.192,21.853,21.853,0,0,0,8.94-8.94,1.374,1.374,0,0,1,1.447-.681,1.279,1.279,0,0,1,.937,1.277v6.556h3.15c9.366,0,19.839,8.344,19.839,19.413Z" transform="translate(-46.8 -54.281)"/></g></g><g transform="translate(23.16 70.587)"><circle class="a" cx="2.299" cy="2.299" r="2.299"/><circle class="a" cx="2.299" cy="2.299" r="2.299" transform="translate(0 11.154)"/><circle class="a" cx="2.299" cy="2.299" r="2.299" transform="translate(24.011)"/><circle class="a" cx="2.299" cy="2.299" r="2.299" transform="translate(24.011 11.154)"/></g></svg>