<svg xmlns="http://www.w3.org/2000/svg" viewBox="0 0 32 32.035"><defs><style>.a{fill:#404040;}</style></defs><g transform="translate(-0.003 0.032)"><g transform="translate(0.003 -0.032)"><path class="a" d="M510.074,756.182a1.513,1.513,0,0,1,1.886.994l8.8,27.9a1.486,1.486,0,0,1-1.006,1.863,1.513,1.513,0,0,1-1.886-.994l-8.8-27.9a1.486,1.486,0,0,1,1.006-1.863Zm15.475.766c5.818,3.257,8.435,2.172,9.6,1.874s1.76.023,2.012.869,3.36,10.744,3.7,11.864a2.386,2.386,0,0,1-.686,2.686c-.709.491-4.183,2.1-9.806-1.086s-9.383-1.3-10.366-.857a1.474,1.474,0,0,1-2.183-.971c-.343-1.029-3.543-11.3-3.955-12.629s0-2.514,2.286-3.337c2.172-.777,5.395-.469,9.395,1.6Z" transform="translate(-509.003 -754.968)"/></g></g></svg>