<svg xmlns="http://www.w3.org/2000/svg" viewBox="0 0 89.734 90"><defs><style>.a,.b{fill:#ffffff;}.a{fill-rule:evenodd;}</style></defs><path class="a" d="M30.112,13.728c7.254,0,12.9,5.1,12.9,12.358H37.366c0-4.3-3.224-6.716-7.254-6.716V32.8h1.612a12.358,12.358,0,1,1,0,24.716H30.112v8.328H24.47V57.519H22.858A12.5,12.5,0,0,1,10.5,45.161h5.642a6.651,6.651,0,0,0,6.716,6.716H24.47V38.445c-6.985,0-12.9-5.1-12.9-12.358s5.91-12.358,12.9-12.358V5.4h5.642v8.328Zm0,24.985h1.612a6.716,6.716,0,0,1,0,13.433H30.112V38.713ZM24.47,33.072c-4.03,0-7.254-2.418-7.254-6.716s3.224-6.716,7.254-6.716V33.072Z" transform="translate(17.709 9.107)"/><path class="b" d="M44.866,90A45,45,0,1,1,89.731,44.866,45,45,0,0,1,44.866,90Zm0-85.164a40.031,40.031,0,1,0,40.3,40.03A40.13,40.13,0,0,0,44.866,4.836Z"/></svg>