<svg xmlns="http://www.w3.org/2000/svg" viewBox="0 0 74.786 75.97"><title>Address</title><defs><style>.a{fill:#595959;}</style></defs><g transform="translate(-1.114 -1.99)"><g transform="translate(-973 -1665)"><path class="a" d="M1021.08,1686.84a9.455,9.455,0,1,1-9.6-9.62A9.611,9.611,0,0,1,1021.08,1686.84Zm-3.1,0a6.5,6.5,0,1,0-6.5,6.5,6.5,6.5,0,0,0,6.5-6.5Zm30.7,55.34a1.491,1.491,0,0,1-1.33.78H975.61a1.412,1.412,0,0,1-1.27-.71,1.8,1.8,0,0,1,.03-1.8l14.54-25.2a1.531,1.531,0,0,1,1.33-.79h9.27a1.56,1.56,0,1,1,0,3.12h-8.38l-7.12,12.36h40.73l-3.3-12.36h-5.27l-.14.26a66.214,66.214,0,0,0-3.11,6.58,1.546,1.546,0,0,1-2.87,0c-2.51-6.22-6.13-11.93-9.67-17.52-2.4-3.77-4.65-7.33-6.55-11.05a19.84,19.84,0,0,1,3.64-23.05,19.82,19.82,0,0,1,33.83,14.04,19.912,19.912,0,0,1-2.17,9.01c-1.9,3.74-4.16,7.3-6.55,11.07l-.07.1c-1.37,2.17-2.8,4.41-4.15,6.7l-.44.74h14.8a1.764,1.764,0,0,1,1.44.96l14.53,25.21a1.535,1.535,0,0,1,0,1.55Zm-28.7-36.98c2.39-3.76,4.64-7.31,6.4-10.76a16.71,16.71,0,1,0-29.8,0c1.76,3.45,4.02,7,6.43,10.81a144.059,144.059,0,0,1,8.02,13.78l.45.92.45-.92a144.924,144.924,0,0,1,8.05-13.83Zm-10.05,27.85H982.2l-3.92,6.8h31.64Zm17.47,6.8-1.82-6.8h-12.54v6.8Zm17.27,0-12.83-22.27h-7.19l5.96,22.26Z"/></g></g></svg>