<svg xmlns="http://www.w3.org/2000/svg" viewBox="0 0 63.97 75.94"><title>Front Desk</title><defs><style>.a{fill:#595959;}</style></defs><g transform="translate(-1.83 -2)"><g transform="translate(-478 -1665)"><path class="a" d="M520.49,1692.72a1.54,1.54,0,0,1,0,3.08h-3.27a1.54,1.54,0,0,1,0-3.08Zm-6.47,15.58a1.53,1.53,0,0,1,0,3.06h-4.41a1.53,1.53,0,0,1-.01-3.06Zm-7.61-15.58a1.54,1.54,0,0,1,0,3.08h-3.27a1.54,1.54,0,0,1,0-3.08Zm-15.16-7.58v-3.51A14.546,14.546,0,0,1,505.69,1667h21.46v3.43l.17.15a14.69,14.69,0,0,1,5.06,11.11v3.52a1.52,1.52,0,1,1-3.04,0v-3.52a11.566,11.566,0,0,0-1.89-6.37l-.57-.87-.32.99c-1.96,6.02-8.2,6.92-11.76,6.92H502.92a1.545,1.545,0,0,1,0-3.09H514.8c6.53,0,9.31-2.6,9.31-8.69v-.5H505.69a11.483,11.483,0,0,0-11.4,11.54v3.52a1.52,1.52,0,1,1-3.04,0Zm52.55,56.26a1.52,1.52,0,1,1-3.04,0c0-9.32-7.28-11.72-14.32-14.04l-1.45-.48-12.6,7.36,7.7,4.5v-4.73a1.51,1.51,0,1,1,3.02,0v7.39a1.533,1.533,0,0,1-.77,1.33,1.472,1.472,0,0,1-1.49,0l-9.05-5.29-8.88,5.19a1.728,1.728,0,0,1-1.73.04,1.4,1.4,0,0,1-.7-1.27V1734a1.515,1.515,0,1,1,3.03,0v4.73l7.7-4.5-12.6-7.36-1.48.5c-7.02,2.33-14.27,4.73-14.27,14.02a1.52,1.52,0,1,1-3.04,0c0-11.48,8.26-14.24,17.83-17.43l.65-.22v-7.56l-.13-.15a19.269,19.269,0,0,1-4.5-9.83l-.05-.25-.23-.1a9.73,9.73,0,0,1-4.99-6.05c-.65-2.12-.85-5.18.57-7.41a4.62,4.62,0,0,1,4.07-2.27,1.54,1.54,0,0,1,0,3.08,1.731,1.731,0,0,0-1.52.85c-.85,1.35-.65,3.45-.22,4.84a6.78,6.78,0,0,0,5.04,4.75c.58,4,1.48,8.11,4.93,11.17,2.53,2.25,6.08,3.4,10.53,3.4s8-1.15,10.54-3.4c3.44-3.06,4.35-7.18,4.92-11.17a6.78,6.78,0,0,0,5.05-4.75c.43-1.4.63-3.5-.22-4.84a1.75,1.75,0,0,0-1.52-.85,1.54,1.54,0,0,1,0-3.08,4.642,4.642,0,0,1,4.07,2.27c1.41,2.24,1.22,5.3.56,7.41a9.73,9.73,0,0,1-4.98,6.04l-.24.11-.04.25a19.168,19.168,0,0,1-4.53,9.85l-.13.15v7.54l.62.2c9.6,3.19,17.89,5.94,17.89,17.45Zm-21.55-22.7-.73.4a20.087,20.087,0,0,1-9.7,2.2,20.338,20.338,0,0,1-9.74-2.2l-.73-.4v6.23l10.45,6.11,10.45-6.11Z"/></g></g></svg>