<svg xmlns="http://www.w3.org/2000/svg" viewBox="0 0 112.635 80"><defs><style>.a{fill:#cf0a2c;}</style></defs><g transform="translate(0.014)"><g transform="translate(45.043)"><rect class="a" width="22.521" height="2.938"/></g><g transform="translate(54.834 1.469)"><rect class="a" width="2.938" height="9.106"/></g><g transform="translate(-0.014 6.842)"><g transform="translate(10.773 0)"><path class="a" d="M23.729,18.75a1.579,1.579,0,0,1-.881-.294L11.587,9.644a1.469,1.469,0,1,1,1.763-2.35l11.261,8.813a1.442,1.442,0,0,1,.294,2.056A1.53,1.53,0,0,1,23.729,18.75Z" transform="translate(-10.988 -6.988)"/></g><g transform="translate(0 17.036)"><path class="a" d="M14.688,32.919a1.242,1.242,0,0,1-.588-.1L.881,27.239A1.491,1.491,0,0,1,2.056,24.5l13.219,5.581a1.476,1.476,0,0,1,.783,1.958A1.8,1.8,0,0,1,14.688,32.919Z" transform="translate(0.014 -24.386)"/></g><g transform="translate(87.639)"><path class="a" d="M90.969,18.75a1.53,1.53,0,0,1-1.175-.588,1.431,1.431,0,0,1,.294-2.056l11.261-8.813a1.469,1.469,0,1,1,1.763,2.35L91.85,18.456A1.367,1.367,0,0,1,90.969,18.75Z" transform="translate(-89.487 -6.987)"/></g><g transform="translate(96.45 17.036)"><path class="a" d="M99.968,32.919a1.477,1.477,0,0,1-1.371-.881,1.509,1.509,0,0,1,.783-1.958L112.6,24.5a1.491,1.491,0,0,1,1.175,2.742l-13.219,5.581C100.36,32.821,100.164,32.919,99.968,32.919Z" transform="translate(-98.486 -24.386)"/></g></g><g transform="translate(15.373 51.897)"><rect class="a" width="81.958" height="2.938"/></g><g transform="translate(35.24 28.872)"><path class="a" d="M37.469,43.894h-.2A1.426,1.426,0,0,1,36,42.327c0-.294.979-8.421,10.575-12.73a1.491,1.491,0,0,1,1.175,2.742c-8.029,3.623-8.813,10.282-8.813,10.379A1.581,1.581,0,0,1,37.469,43.894Z" transform="translate(-35.989 -29.486)"/></g><g transform="translate(17.527 17.038)"><path class="a" d="M95.452,55.2c-2.252,0-6.952-1.567-8.323-7.54l-.588-2.644c-1.175-5.386-2.056-9.988-6.659-15.667-4.308-5.483-9.988-9.106-23.3-9.106-13.219,0-18.7,3.427-23.207,9.106-4.6,5.679-5.483,10.379-6.659,15.667l-.588,2.644C24.852,53.63,20.152,55.2,17.9,55.2h0V52.259c.392,0,4.308-.2,5.386-5.19.2-.881.392-1.763.588-2.546,1.175-5.483,2.252-10.673,7.246-16.94C36.994,20.24,44.142,17.4,56.578,17.4c12.534,0,19.78,2.84,25.655,10.184,4.994,6.267,6.071,11.457,7.246,16.94.2.881.392,1.665.588,2.546,1.175,5.19,5.288,5.19,5.386,5.19V55.2Z" transform="translate(-17.9 -17.4)"/></g><g transform="translate(12.338 62.277)"><path class="a" d="M99.063,81.323H14.069A1.506,1.506,0,0,1,12.6,79.855V73.784a1.477,1.477,0,0,1,.881-1.371c5.875-2.84,5.875-7.246,5.875-7.246a1.473,1.473,0,0,1,.392-1.077,1.572,1.572,0,0,1,1.077-.49H92.5a1.572,1.572,0,0,1,1.077.49,1.473,1.473,0,0,1,.392,1.077c0,.2,0,4.5,5.875,7.246a1.535,1.535,0,0,1,.881,1.371v6.071A1.865,1.865,0,0,1,99.063,81.323ZM15.538,78.386H97.594V74.763c-4.7-2.546-6.169-6.071-6.561-8.127H22c-.392,1.958-1.763,5.483-6.561,8.127v3.623Z" transform="translate(-12.6 -63.6)"/></g></g></svg>