<svg xmlns="http://www.w3.org/2000/svg" viewBox="0 0 32 32"><defs><style>.a,.b{fill:#404040;}.a{fill-rule:evenodd;}</style></defs><g transform="translate(0.269 0)"><path class="a" d="M17.473,8.361a4.37,4.37,0,0,1,4.587,4.394H20.052a2.358,2.358,0,0,0-2.579-2.388v4.775h.573a4.394,4.394,0,1,1,0,8.788h-.573v2.961H15.467v-2.96h-.573A4.444,4.444,0,0,1,10.5,19.537h2.006a2.365,2.365,0,0,0,2.388,2.388h.573V17.149a4.4,4.4,0,1,1,0-8.788V5.4h2.006Zm0,8.884h.573a2.388,2.388,0,0,1,0,4.776h-.573Zm-2.006-2.006a2.4,2.4,0,1,1,0-4.776Z" transform="translate(-0.643 -0.242)"/><path class="b" d="M15.779,32A16,16,0,1,1,31.731,15.952,16,16,0,0,1,15.779,32Zm0-30.281A14.268,14.268,0,1,0,25.895,5.865,14.233,14.233,0,0,0,15.779,1.72Z" transform="translate(0 0)"/></g></svg>