<svg xmlns="http://www.w3.org/2000/svg" viewBox="0 0 42.056 90"><defs><style>.a,.b{fill:#ffffff;}.b{fill-rule:evenodd;}</style></defs><g transform="translate(0.2)"><g transform="translate(22.09 27.757)"><path class="a" d="M25.961,17.406H12.5a1.987,1.987,0,0,1-2.1-2.1,1.987,1.987,0,0,1,2.1-2.1H25.961a1.987,1.987,0,0,1,2.1,2.1A1.987,1.987,0,0,1,25.961,17.406Z" transform="translate(-10.4 -13.2)"/></g><g transform="translate(22.09 67.5)"><path class="a" d="M27.222,36.306H12.5a2.1,2.1,0,0,1,0-4.206h14.72a2.1,2.1,0,1,1,0,4.206Z" transform="translate(-10.4 -32.1)"/></g><g transform="translate(11.155)"><path class="a" d="M23.074,17.033a1.987,1.987,0,0,1-2.1-2.1V7.36a3.234,3.234,0,0,0-3.154-3.154H12.56A3.234,3.234,0,0,0,9.406,7.36v7.57a1.987,1.987,0,0,1-2.1,2.1,1.987,1.987,0,0,1-2.1-2.1V7.36A7.451,7.451,0,0,1,12.56,0h5.467a7.451,7.451,0,0,1,7.36,7.36v7.57A2.471,2.471,0,0,1,23.074,17.033Z" transform="translate(-5.2)"/></g><g transform="translate(-0.2 13.037)"><path class="a" d="M33.445,83.163a8.741,8.741,0,0,1-6.308-2.734,8.393,8.393,0,0,1-6.308,2.734,8.741,8.741,0,0,1-6.308-2.734,8.393,8.393,0,0,1-6.308,2.734A8.392,8.392,0,0,1-.2,74.962h0V57.719c0-4.836,1.893-7.78,3.364-10.3.21-.421.631-1.051.841-1.472a5.859,5.859,0,0,0,0-5.888,4.4,4.4,0,0,0-.841-1.262C1.9,36.9.221,34.378.221,30.8V28.279A22.611,22.611,0,0,1,3.164,18.4c1.893-3.364,7.78-11.145,7.991-11.565A20.366,20.366,0,0,1,13.468,6.2H28.4a1.912,1.912,0,0,1,1.682.841c.21.421,6.1,7.991,7.991,11.565a21.858,21.858,0,0,1,2.944,9.883v2.523c0,3.575-1.682,6.1-2.944,7.991-.21.421-.631.841-.841,1.262a5.835,5.835,0,0,0,0,5.888,9.143,9.143,0,0,1,.841,1.472,18.044,18.044,0,0,1,3.364,10.3V75.172h0A7.731,7.731,0,0,1,33.445,83.163Zm-6.308-9.883h0a2.236,2.236,0,0,1,2.1,1.893,4.149,4.149,0,0,0,4.206,3.785,4.218,4.218,0,0,0,4.206-4.206V57.508c0-3.575-1.472-5.888-2.734-7.991-.421-.631-.631-1.051-1.051-1.682h0a10.306,10.306,0,0,1,0-9.883,9.143,9.143,0,0,0,.841-1.472c1.051-1.682,2.1-3.364,2.1-5.678V28.279a16.649,16.649,0,0,0-2.523-7.78,123.035,123.035,0,0,0-7.15-10.093H14.52A123.035,123.035,0,0,0,7.37,20.5a16.649,16.649,0,0,0-2.523,7.78V30.8c0,2.313,1.051,4,2.1,5.678.21.421.631,1.051.841,1.472a10.308,10.308,0,0,1,0,9.883,19.394,19.394,0,0,1-1.051,1.682c-1.262,2.1-2.734,4.416-2.734,7.991V74.751a4.218,4.218,0,0,0,4.206,4.206,4.3,4.3,0,0,0,4.206-3.785,2.075,2.075,0,0,1,2.1-1.893,2.236,2.236,0,0,1,2.1,1.893,4.229,4.229,0,0,0,8.411,0A2.236,2.236,0,0,1,27.136,73.279Zm14.72,1.472Zm-2.1,0Z" transform="translate(0.2 -6.2)"/></g><path class="b" d="M9.354,12.7a2.944,2.944,0,0,1,0,5.888,2.944,2.944,0,1,1,0-5.888Z" transform="translate(7.268 14.006)"/><path class="b" d="M9.354,31.7a2.944,2.944,0,0,1,0,5.888,2.875,2.875,0,0,1-2.944-2.944A2.759,2.759,0,0,1,9.354,31.7Z" transform="translate(7.268 34.959)"/></g></svg>