<svg xmlns="http://www.w3.org/2000/svg" viewBox="0 0 77.408 90"><defs><style>.a{fill:#cf0a2c;fill-rule:evenodd;}</style></defs><path class="a" d="M61.864,32.826a1.958,1.958,0,0,1,1.623.721L67.635,37.7c.541.541,2.525-1.984,2.705-2.345a13.519,13.519,0,0,0,1.8-3.607c.541-1.623.9-3.066.361-3.246L47.8,13.888a2.534,2.534,0,0,1-.9-3.246,2.534,2.534,0,0,1,3.246-.9l24.89,14.79c2.705,1.623,2.886,5.23,1.623,8.838-1.082,2.886-3.246,6.673-5.952,8.3-2.164,1.263-4.329,1.443-5.952-.361l-3.788-3.788H50.5c.541,4.689,3.788,8.116,7.034,11.543,5.23,5.591,10.281,10.822,5.591,20.02l5.952,9.2a3.344,3.344,0,0,1,.361,1.263v8.116A2.387,2.387,0,0,1,67.094,90H18.938a2.345,2.345,0,1,1,0-4.689H64.75v-4.87H18.938a2.345,2.345,0,1,1,0-4.689H62.044l-3.066-4.87H25.611a2.345,2.345,0,0,1,0-4.689H59.339c2.525-6.132-1.082-10.1-5.05-14.248-3.788-4.148-7.936-8.477-8.3-14.79-4.509-.721-7.936-3.788-10.281-7.575a2.383,2.383,0,0,1,4.148-2.345c1.984,3.246,4.509,5.591,8.477,5.591ZM48.878,0a2.387,2.387,0,0,1,2.345,2.345,2.387,2.387,0,0,1-2.345,2.345H37.7a2.387,2.387,0,0,1-2.345-2.345A2.387,2.387,0,0,1,37.7,0ZM20.922,56.994H9.2a2.345,2.345,0,0,0,0,4.689H20.922a2.345,2.345,0,1,0,0-4.689Zm-2.345-9.559H4.509a2.345,2.345,0,1,0,0,4.689H18.577a2.345,2.345,0,1,0,0-4.689Zm.18-9.379H2.345a2.345,2.345,0,1,0,0,4.689H18.758A2.387,2.387,0,0,0,21.1,40.4a2.273,2.273,0,0,0-2.345-2.345ZM21.1,28.5H4.689a2.345,2.345,0,1,0,0,4.689H21.1a2.345,2.345,0,1,0,0-4.689Zm5.411-9.559H10.1a2.345,2.345,0,1,0,0,4.689H26.513a2.345,2.345,0,1,0,0-4.689ZM37.7,9.559H21.283a2.345,2.345,0,1,0,0,4.689H37.7A2.387,2.387,0,0,0,40.04,11.9,2.273,2.273,0,0,0,37.7,9.559ZM51.4,21.1a2.345,2.345,0,1,0,2.345,2.345A2.273,2.273,0,0,0,51.4,21.1Z"/></svg>