<svg xmlns="http://www.w3.org/2000/svg" viewBox="0 0 90 90"><defs><style>.a{opacity:0.9;}.b{fill:#d32140;}</style></defs><g class="a"><path class="b" d="M45,90A45,45,0,1,1,90,45,45.077,45.077,0,0,1,45,90ZM45,2.866A42.134,42.134,0,1,0,87.134,45,42.2,42.2,0,0,0,45,2.866Z"/><g transform="translate(43.185 15.955)"><rect class="b" width="2.866" height="59.236"/></g><g transform="translate(24.936 24.554)"><path class="b" d="M45.495,47.483c-11.465,0-19.395-4.3-19.395-10.51,0-5.446,6.21-11.274,19.777-11.274,12.42,0,18.917,6.975,19.2,7.357a1.42,1.42,0,1,1-2.1,1.911c-.1-.1-6.019-6.4-17.1-6.4s-16.911,4.2-16.911,8.408c0,4.395,7.166,7.643,16.529,7.643a1.433,1.433,0,0,1,0,2.866Z" transform="translate(-26.1 -25.7)"/></g><g transform="translate(24.933 43.662)"><path class="b" d="M45.686,67.483c-12.42,0-18.917-6.975-19.2-7.357a1.42,1.42,0,0,1,2.1-1.911c.1.1,6.019,6.4,17.1,6.4S62.6,60.413,62.6,56.21c0-4.395-7.166-7.643-16.529-7.643a1.433,1.433,0,0,1,0-2.866c11.465,0,19.395,4.3,19.395,10.51C65.367,61.655,59.253,67.483,45.686,67.483Z" transform="translate(-26.097 -45.7)"/></g></g></svg>