<svg xmlns="http://www.w3.org/2000/svg" viewBox="0 0 81.353 90"><defs><style>.a{fill:#cf0a2c;}</style></defs><g transform="translate(29.559)"><path class="a" d="M44.618,22.235A11.118,11.118,0,1,1,55.735,11.118,11.128,11.128,0,0,1,44.618,22.235Zm0-19.588a8.471,8.471,0,1,0,8.471,8.471A8.473,8.473,0,0,0,44.618,2.647Z" transform="translate(-33.5)"/></g><g transform="translate(1.853 9.971)"><path class="a" d="M13.218,33.535A11.118,11.118,0,1,1,24.335,22.418,11.128,11.128,0,0,1,13.218,33.535Zm0-19.588a8.471,8.471,0,1,0,8.471,8.471A8.473,8.473,0,0,0,13.218,13.947Z" transform="translate(-2.1 -11.3)"/></g><g transform="translate(0 38.382)"><path class="a" d="M10.147,95.118H7.5V76.853C3,76.324,0,73.235,0,68.912V52.324C0,47.912,2.647,43.5,7.765,43.5h9.265v2.647H7.765c-4.059,0-5.118,4.059-5.118,6.176V68.912c0,3.882,3.353,5.294,6.176,5.294h1.324Z" transform="translate(0 -43.5)"/></g><g transform="translate(57.265 9.971)"><path class="a" d="M76.018,33.535A11.118,11.118,0,1,1,87.135,22.418,11.128,11.128,0,0,1,76.018,33.535Zm0-19.588a8.471,8.471,0,1,0,8.471,8.471A8.473,8.473,0,0,0,76.018,13.947Z" transform="translate(-64.9 -11.3)"/></g><g transform="translate(23.824 28.5)"><path class="a" d="M52.941,93.8H50.294V68.035h1.324c3,0,6.441-1.412,6.441-5.471V42.182c0-2.029-1.059-7.235-5.912-7.235H35.559c-4.853,0-5.912,5.206-5.912,7.235V62.653c0,4.059,3.529,5.471,6.441,5.471h1.324V93.8H34.765V70.682C30.088,70.153,27,67.065,27,62.653V42.182c0-3.794,2.294-9.882,8.559-9.882H52.235c6.176,0,8.559,6,8.559,9.882V62.653c0,4.412-3.088,7.5-7.765,8.029V93.8Z" transform="translate(-27 -32.3)"/></g><g transform="translate(64.324 38.382)"><path class="a" d="M82.429,95.118H79.782V74.206h1.324c2.824,0,6.176-1.412,6.176-5.294V52.324c0-2.118-1.059-6.176-5.118-6.176H72.9V43.5h9.265c5.118,0,7.765,4.412,7.765,8.824V68.912c0,4.235-3,7.324-7.5,7.853V95.118Z" transform="translate(-72.9 -43.5)"/></g></svg>