<svg xmlns="http://www.w3.org/2000/svg" viewBox="0 0 32 28.444"><defs><style>.a{fill:#404040;}</style></defs><path class="a" d="M31.111,3.556A.889.889,0,0,0,32,2.667V.889A.889.889,0,0,0,31.111,0H.889A.889.889,0,0,0,0,.889V2.667a.889.889,0,0,0,.889.889h.888V24.889H.889A.889.889,0,0,0,0,25.778v1.778a.889.889,0,0,0,.889.889H14.222V24a.892.892,0,0,1,.889-.889h1.778a.892.892,0,0,1,.889.889v4.444H31.111A.889.889,0,0,0,32,27.556V25.778a.889.889,0,0,0-.889-.889h-.889V3.556ZM14.222,6.044a.765.765,0,0,1,.711-.711h2.133a.765.765,0,0,1,.711.711V8.178a.765.765,0,0,1-.711.711H14.933a.765.765,0,0,1-.711-.711V6.044Zm0,5.333a.765.765,0,0,1,.711-.711h2.133a.765.765,0,0,1,.711.711v2.133a.765.765,0,0,1-.711.711H14.933a.765.765,0,0,1-.711-.711V11.378ZM7.111,6.044a.765.765,0,0,1,.711-.711H9.956a.765.765,0,0,1,.711.711V8.178a.765.765,0,0,1-.711.711H7.822a.765.765,0,0,1-.711-.711V6.044Zm2.844,8.178H7.822a.765.765,0,0,1-.711-.711V11.378a.765.765,0,0,1,.711-.711H9.956a.765.765,0,0,1,.711.711v2.133a.765.765,0,0,1-.711.711Zm.711,7.111a5.333,5.333,0,1,1,10.667,0Zm14.222-7.822a.765.765,0,0,1-.711.711H22.044a.765.765,0,0,1-.711-.711V11.378a.765.765,0,0,1,.711-.711h2.133a.765.765,0,0,1,.711.711v2.133Zm0-5.333a.765.765,0,0,1-.711.711H22.044a.765.765,0,0,1-.711-.711V6.044a.765.765,0,0,1,.711-.711h2.133a.765.765,0,0,1,.711.711Z"/></svg>