<svg xmlns="http://www.w3.org/2000/svg" viewBox="0 0 165.274 150"><defs><style>.a{fill:#cf0a2c;fill-rule:evenodd;}</style></defs><path class="a" d="M56.4,52.089H76.762A14.4,14.4,0,0,1,91.645,66.971V86.945h15.274c3.133,12.141,8.616,26.632,22.715,29.373V86.945h21.149c3.916,0,6.658-2.35,6.658-6.658v-65.4c0-3.916-2.35-6.658-6.658-6.658H63.055c-3.916,0-6.658,2.35-6.658,6.658V52.089Zm20.366,8.225H56.4V80.287c0,3.916,2.35,6.658,6.658,6.658H75.2V95.17H63.055A14.4,14.4,0,0,1,48.172,80.287v-65.4A14.4,14.4,0,0,1,63.055,0h87.337a14.4,14.4,0,0,1,14.883,14.883v65.8a14.4,14.4,0,0,1-14.883,14.882H137.859v29.765h-4.308c-17.624,0-28.2-14.491-32.9-29.765H91.645V112.4a12.555,12.555,0,0,1-12.924,12.924H55.614C51.306,138.251,42.689,150,27.807,150H23.5V125.326H12.924A12.555,12.555,0,0,1,0,112.4V65.013A12.555,12.555,0,0,1,12.924,52.089H39.948v8.225H12.924q-4.7,0-4.7,4.7V112.4q0,4.7,4.7,4.7h18.8v24.282C42.3,138.642,46.606,126.5,49.347,117.1H78.721a4.321,4.321,0,0,0,4.7-4.7V66.971C83.42,62.663,81.07,60.313,76.762,60.313Z"/></svg>