<svg xmlns="http://www.w3.org/2000/svg" viewBox="0 0 45.833 90"><defs><style>.a{fill:#cf0a2c;}</style></defs><path class="a" d="M33.333,90H12.583C4.583,90,0,85.333,0,77.083v-26c0-4.25.667-8.667,5.583-11.917,2.333-1.5,5.75-3.333,9.667-5.417,2.583-1.333,5.417-2.833,8.333-4.5,3.25-1.833,5.333-4.25,6.083-7.167.75-3.167-.083-7.083-3.917-8.333-5.25-1.667-8.917,2.583-10.667,5.333a11,11,0,0,1-6.917,5A6.941,6.941,0,0,1,2.583,22.75,6.037,6.037,0,0,1,.417,18.167C.25,14.5,2.583,10,6.417,6.333,12.25,1,17.083,0,23.917,0A22.109,22.109,0,0,1,38.583,5.25c4.75,4.167,7.25,10.417,7.25,18.083v53.75C45.833,85.333,41.25,90,33.333,90Zm-10-79a9.944,9.944,0,0,1,3.083.5c5.167,1.667,6.75,6.917,5.667,11.25-.583,2.5-2.417,6-7.25,8.667C21.917,33,19,34.583,16.417,35.917,12.5,38,9.167,39.75,6.917,41.25,3.25,43.75,2.5,46.833,2.5,51.083V77.167C2.5,85.667,8,87.5,12.583,87.5h20.75c4.583,0,10-1.833,10-10.417V23.333C43.333,7.917,32.917,2.5,24,2.5c-6.417,0-10.667.917-15.833,5.75-3.333,3.083-5.417,7-5.25,9.917a3.732,3.732,0,0,0,1.25,2.75,4.494,4.494,0,0,0,3.583.833,7.967,7.967,0,0,0,5.167-3.833C15.75,13.417,19.417,11,23.333,11Z"/><g transform="translate(7.667 46.583)"><path class="a" d="M24.45,86.4A15.25,15.25,0,1,1,39.7,71.15,15.257,15.257,0,0,1,24.45,86.4Zm0-28A12.75,12.75,0,1,0,37.2,71.15,12.8,12.8,0,0,0,24.45,58.4Z" transform="translate(-9.2 -55.9)"/></g><g transform="translate(15.583 56.917)"><path class="a" d="M24.283,78.55a1.253,1.253,0,0,1-.917-.333L18.7,73.55l1.75-1.75,3.833,3.833L31.617,68.3l1.75,1.75-8.25,8.25A1.408,1.408,0,0,1,24.283,78.55Z" transform="translate(-18.7 -68.3)"/></g></svg>