<svg xmlns="http://www.w3.org/2000/svg" viewBox="0 0 32 31.719"><defs><style>.a{fill:#404040;}</style></defs><path class="a" d="M32,29.4a2.5,2.5,0,0,1-.868,1.734,4.108,4.108,0,0,1-1.734.578,4.108,4.108,0,0,1-1.734-.578l-6.4-6.688a12.262,12.262,0,0,1-7.555,2.312,14.229,14.229,0,0,1-5.243-.868,15.6,15.6,0,0,1-4.376-2.93A15.809,15.809,0,0,1,1.2,18.581a15.386,15.386,0,0,1-1.2-5.2A17.122,17.122,0,0,1,1.155,8.136a22.11,22.11,0,0,1,2.89-4.088A9.166,9.166,0,0,1,8.423,1.117,10.568,10.568,0,0,1,13.666,0a11.5,11.5,0,0,1,5.243,1.155A9.7,9.7,0,0,1,23,4.089a12.729,12.729,0,0,1,2.889,4.088,11.5,11.5,0,0,1,1.155,5.243,12.918,12.918,0,0,1-2.31,7.555l6.4,6.688A2.06,2.06,0,0,1,32,29.4M19.49,19.489a8.477,8.477,0,0,0,0-12.22,8.168,8.168,0,0,0-5.822-2.312A9.435,9.435,0,0,0,7.555,7.269a8.477,8.477,0,0,0,0,12.22,8.409,8.409,0,0,0,6.111,2.6,7.058,7.058,0,0,0,5.822-2.6Z" transform="translate(0 0.009)"/></svg>