<svg xmlns="http://www.w3.org/2000/svg" viewBox="0 0 45.714 32"><defs><style>.a{fill:#404040;}</style></defs><path class="a" d="M6.857,45.714a4.571,4.571,0,1,0-4.571-4.571A4.576,4.576,0,0,0,6.857,45.714Zm32,0a4.571,4.571,0,1,0-4.571-4.571A4.576,4.576,0,0,0,38.857,45.714ZM41.143,48H36.571a4.558,4.558,0,0,0-3.221,1.329,10.448,10.448,0,0,1,5.364,7.814h4.714a2.283,2.283,0,0,0,2.286-2.286V52.571A4.576,4.576,0,0,0,41.143,48ZM22.857,48a8,8,0,1,0-8-8A8,8,0,0,0,22.857,48Zm5.486,2.286H27.75a11.045,11.045,0,0,1-9.786,0h-.593a8.231,8.231,0,0,0-8.229,8.229v2.057A3.429,3.429,0,0,0,12.571,64H33.143a3.429,3.429,0,0,0,3.429-3.429V58.514A8.231,8.231,0,0,0,28.343,50.286Zm-15.979-.957A4.558,4.558,0,0,0,9.143,48H4.571A4.576,4.576,0,0,0,0,52.571v2.286a2.283,2.283,0,0,0,2.286,2.286H6.993a10.474,10.474,0,0,1,5.371-7.814Z" transform="translate(0 -32)"/></svg>