<svg xmlns="http://www.w3.org/2000/svg" viewBox="0 0 32 32"><defs><style>.a{fill:#404040;}</style></defs><g transform="translate(0.02 -0.03)"><g transform="translate(-0.02 0.03)"><path class="a" d="M703.98,2270.03a16,16,0,1,1-16-16A16,16,0,0,1,703.98,2270.03Zm-12.338,5.957a.529.529,0,0,0-.714-.135c-.911.578-2.172,1.274-1.982.154.123-.757,1.785-6.382,1.754-7.618s-.615-1.557-1.618-1.292a17.6,17.6,0,0,0-5.477,2.892.554.554,0,0,0-.172.677.561.561,0,0,0,.763.264c.96-.511,2.123-1.058,2.031-.529-.1.628-1.717,6.548-1.618,7.938s1.058,1.477,2.258,1.169a13.179,13.179,0,0,0,4.708-2.806.538.538,0,0,0,.068-.714Zm.277-13.9a1.908,1.908,0,0,0-1.957-1.908,2.554,2.554,0,0,0-2.578,2.5,1.772,1.772,0,0,0,1.926,1.846A2.609,2.609,0,0,0,691.918,2262.092Z" transform="translate(-671.98 -2254.03)"/></g></g></svg>