<svg xmlns="http://www.w3.org/2000/svg" viewBox="0 0 928 596.16199"><title>logo-hello-rewards</title><path d="M489.155,452.574H471.759c-8.651.094-13.164,4.043-13.164,10.72l-.001.001c0,6.771,4.232,10.437,13.54,10.437a17.0741,17.0741,0,0,0,13.729-4.232,14.70818,14.70818,0,0,0,3.292-10.908ZM670.071,423.895c-13.447,0-15.422,11.378-15.422,24.543s1.975,24.543,15.422,24.543,15.233-11.471,15.233-24.543S683.424,423.895,670.071,423.895ZM0,0V596.162H928V0ZM119.045,124.028H139.074v84.158H228.31V124.028h20.029v187.97H228.31V226.241H139.074v85.757H119.045Zm40.52753,304.85046A13.63386,13.63386,0,0,0,148.477,423.99a15.23794,15.23794,0,0,0-14.763,15.703,3.195,3.195,0,0,0,.094.94v44.854H118.951V411.672h14.48v7.992a24.5645,24.5645,0,0,1,19.558-8.933,22.90506,22.90506,0,0,1,17.584,6.958ZM265.641,452.67H217.779a18.12757,18.12757,0,0,0,15.327,20.499,20.45259,20.45259,0,0,0,3.385.188,21.996,21.996,0,0,0,17.866-7.617l9.497,8.839a34.06033,34.06033,0,0,1-27.646,11.471c-18.431,0-33.194-9.78-33.194-37.894,0-23.884,12.413-37.707,31.407-37.707a31.38289,31.38289,0,0,1,31.501,31.219,33.40481,33.40481,0,0,1-.28205,4.325v6.676Zm119.418,32.628H372.461l-17.302-51.436-17.114,51.436H325.162l-22.756-73.721h15.703l14.199,51.906,17.114-51.906h11.471l17.019,51.906,14.293-51.906h15.892Zm55.198-259.151H328.924c.188,32.817,2.257,44.759,13.164,55.949a45.21687,45.21687,0,0,0,32.441,13.54l39.306-.188v17.96c-.564,0-38.647.188-39.306.188a66.85944,66.85944,0,0,1-47.957-19.558c-16.456-16.456-17.584-33.664-17.678-67.891H285.856V208.375h23.038c0-33.194,1.504-50.213,17.678-66.386a68.8621,68.8621,0,0,1,96.101,0c16.079,16.173,17.49,33.287,17.584,66.386Zm63.662,259.056-.001.001h-14.48v-6.582a24.35758,24.35758,0,0,1-19.558,7.617,26.03149,26.03149,0,0,1-19.841-6.676,22.71676,22.71676,0,0,1-5.83-15.797c0-12.224,8.557-21.251,25.389-21.251h19.558v-5.266c0-9.309-4.702-13.823-16.173-13.823a17.28955,17.28955,0,0,0-16.173,7.146l-9.78-9.121a30.3198,30.3198,0,0,1,26.517-10.626c20.217,0,30.372,8.557,30.372,25.294Zm39.493-173.205h-13.73a30.94485,30.94485,0,0,1-33.099-28.586,25.812,25.812,0,0,1,.188-6.018V124.122h18.995V276.735c0,12.694,4.232,18.995,17.49,18.995h10.25ZM596.0675,428.78546A13.45211,13.45211,0,0,0,585.067,423.897a15.13342,15.13342,0,0,0-14.763,15.515,3.85239,3.85239,0,0,0,.094,1.034V485.3H555.541V411.485h14.48v7.992a24.5648,24.5648,0,0,1,19.558-8.933,22.44816,22.44816,0,0,1,17.584,6.958ZM635.09094,311.998H621.362a31.08861,31.08861,0,0,1-33.194-28.586,25.812,25.812,0,0,1,.188-6.018V124.122h18.995V276.735c0,12.694,4.232,18.995,17.49,18.995h10.25Zm65.165,173.206H685.681v-7.898a22.60452,22.60452,0,0,1-19.558,8.745,25.16188,25.16188,0,0,1-18.054-6.582,44.35685,44.35685,0,0,1-8.275-31.312,43.64275,43.64275,0,0,1,8.275-31.031,24.71877,24.71877,0,0,1,17.866-6.582,22.657,22.657,0,0,1,19.371,8.369V372.085h14.857l.094,113.12Zm76.06989.94.00213.001a40.51175,40.51175,0,0,1-31.031-10.626l9.78-9.78a28.70353,28.70353,0,0,0,21.251,7.711c8.933,0,16.173-3.197,16.173-10.25,0-4.889-2.727-8.087-9.78-8.745l-11.754-1.034c-13.823-1.129-21.815-7.335-21.815-20.405,0-14.387,12.224-22.474,27.739-22.474a40.49847,40.49847,0,0,1,27.363,8.369l-9.309,9.403a27.2415,27.2415,0,0,0-18.336-5.359c-8.839,0-13.353,3.855-13.353,9.403,0,4.325,2.257,7.711,10.155,8.463l11.66,1.034c13.823,1.223,22.097,7.711,22.097,20.781C807.07385,478.151,793.90887,486.144,776.32587,486.144ZM790.432,294.132a68.74657,68.74657,0,0,1-96.007,0c-17.772-17.678-17.772-36.203-17.772-76.072s0-58.3,17.678-75.977a68.74657,68.74657,0,0,1,96.007,0c17.678,17.678,17.678,36.203,17.678,75.977S808.11,276.454,790.432,294.132ZM234.421,422.955a15.57041,15.57041,0,0,0-14.669,9.215,24.8303,24.8303,0,0,0-1.88,10.061h33.099a22.908,22.908,0,0,0-1.975-10.061A15.44064,15.44064,0,0,0,234.421,422.955ZM407.064,153.93a45.91354,45.91354,0,0,0-64.976,0c-10.814,11.096-12.883,22.85-13.164,54.539h91.211c-.282-31.595-2.445-43.537-13.07-54.539Zm335.412-13.447H742.476a45.12882,45.12882,0,0,0-32.441,13.447c-11.942,12.224-13.164,24.824-13.164,64.13s1.316,52,13.164,64.13a45.85717,45.85717,0,0,0,64.788.188l.188-.188c11.848-12.224,13.164-24.824,13.164-64.13s-1.316-52-13.164-64.13A45.66676,45.66676,0,0,0,742.47607,140.483Z"/></svg>