<svg xmlns="http://www.w3.org/2000/svg" viewBox="0 0 295.7 242.39001"><title>logo-hello-rewards-rewarding</title><path d="M89.02,171.13028a4.665,4.665,0,0,0-4.44,2.81,6.97741,6.97741,0,0,0-.57,3.03H94.03a7.1063,7.1063,0,0,0-.62-3.03A4.58014,4.58014,0,0,0,89.02,171.13028Zm76.88995,8.97h-5.22c-2.64,0-4,1.19-4,3.21s1.28,3.15,4.09,3.15c1.71,0,2.99-.12994,4.17-1.27a4.46412,4.46412,0,0,0,.97-3.29h-.01Zm54.65-8.7c-4.04,0-4.66,3.43-4.66,7.38s.62,7.42,4.66,7.42,4.61-3.47,4.61-7.42S224.6,171.40023,220.56,171.40023Zm-89.22-85.57a13.73756,13.73756,0,0,0-9.8,4.07c-3.27,3.35-3.89,6.85-3.98,16.45H145.1c-.08-9.55-.7-13.12-3.96-16.45A13.73743,13.73743,0,0,0,131.34,85.83023ZM14.21,41.10025v180H302.21v-180Zm40.01,39.79h6.06v25.42005H87.21V80.89022H93.27v56.74006H87.21v-25.9H60.28v25.9H54.22Zm12.23,92a4.1376,4.1376,0,0,0-3.34-1.5c-2.41,0-4.43,1.94-4.43,5.01v13.53H54.2v-22.27h4.39v2.42a7.3897,7.3897,0,0,1,5.93-2.68,6.88788,6.88788,0,0,1,5.32,2.11ZM98.46,180.11032H84.01c0,3.81994,2.01,6.24,5.66,6.24a6.65794,6.65794,0,0,0,5.4-2.29l2.86,2.68a10.50654,10.50654,0,0,1-8.35,3.46c-5.57,0-10.01-2.94-10.01-11.42,0-7.21,3.74-11.38,9.45-11.38,5.97,0,9.43994,4.39,9.44,10.73005ZM134.52,189.94027H130.7l-5.23-15.56-5.18,15.56h-3.87l-6.89-22.28h4.74l4.31006,15.68,5.18-15.68h3.47l5.14,15.68,4.3-15.68h4.79Zm16.65-78.2H117.55c.07,9.94995.66,13.5,3.98,16.9a13.69417,13.69417,0,0,0,9.8,4.06c.18,0,11.7-.04,11.88-.05v5.42005c-.18.01-11.7.05-11.88.05a20.08509,20.08509,0,0,1-14.5-5.89c-4.96-4.96-5.31-10.14-5.34-20.49h-6.96v-5.38h6.97c.04-10.05.45-15.15,5.34-20.04a20.76772,20.76772,0,0,1,29,0c4.88,4.87,5.3,10.02,5.33,20.04Zm19.25006,78.21h-4.39v-2.02a7.32138,7.32138,0,0,1-5.92,2.28c-2.77,0-4.62006-.66-5.98005-2.02a6.85561,6.85561,0,0,1-1.76-4.79c0-3.74,2.59-6.42,7.68-6.42h5.88v-1.58c0-2.82-1.41-4.17-4.88-4.17-2.45,0-3.64.57-4.87,2.15l-2.94-2.76995c2.11-2.46,4.3-3.21,7.99-3.21,6.11,0,9.17,2.59,9.19006,7.66Zm11.90992-52.32h-4.15c-6.85,0-9.95-4.46-9.95-10.44v-46.3h5.73v46.06c0,3.83,1.27,5.74,5.26,5.74h3.11Zm15.87,35.26a4.10444,4.10444,0,0,0-3.32995-1.5c-2.41,0-4.43,1.94-4.43,5.01v13.53h-4.48v-22.27h4.39v2.42a7.39793,7.39793,0,0,1,5.92-2.68,6.88044,6.88044,0,0,1,5.31,2.11Zm11.76007-35.26h-4.14c-6.84,0-9.96-4.46-9.96-10.44v-46.3h5.74v46.06c0,3.83,1.27,5.74,5.26,5.74h3.1Zm19.69,52.31006h-4.39v-2.38a6.8518,6.8518,0,0,1-5.89,2.63,7.71123,7.71123,0,0,1-5.45-1.97c-2.24-2.25-2.5-6.07-2.5-9.45s.26-7.15,2.5-9.39a7.58866,7.58866,0,0,1,5.4-1.98005,6.90662,6.90662,0,0,1,5.85,2.5H225.17v-14.15h4.48Zm22.97992.26c-3.65,0-6.72-.61-9.36-3.2l2.94-2.94a8.6805,8.6805,0,0,0,6.42,2.32c2.72,0,4.87-.96,4.87-3.07,0-1.5-.84-2.46-2.99-2.64l-3.56-.31c-4.18-.35-6.59-2.23-6.59-6.14,0-4.35,3.73-6.81,8.39-6.81,3.34,0,6.2.7,8.26,2.5l-2.81,2.86a8.39512,8.39512,0,0,0-5.49-1.63c-2.68,0-4.04,1.19-4.04,2.85,0,1.32.71,2.33,3.08,2.55l3.51.31c4.17.35,6.64,2.32,6.63989,6.28C261.8999,187.79031,257.93994,190.20028,252.62994,190.20028Zm4.27008-57.98a20.80532,20.80532,0,0,1-29.01,0c-5.34-5.35-5.34-10.92-5.34-22.96,0-12.03,0-17.61,5.34-22.95a20.78,20.78,0,0,1,29.01,0c5.33,5.34,5.33,10.92,5.33,22.95C262.23,121.30026,262.23,126.88028,256.9,132.22024ZM242.39,85.83029a13.75454,13.75454,0,0,0-9.8,4.07c-3.58,3.66-3.98,7.49-3.98,19.36,0,11.88.4,15.7,3.98,19.37a13.85757,13.85757,0,0,0,19.6,0c3.59-3.67005,3.99-7.49006,3.98-19.37,0-11.87-.4-15.7-3.98-19.36A13.73731,13.73731,0,0,0,242.39,85.83029Z" transform="translate(-10.35999 -41.10025)"/><path d="M18.59,273.76025c-3.55,0-6.16-.93-8.23-2.91l1.48-1.48a8.62556,8.62556,0,0,0,6.67,2.49c3.97,0,6.12-1.39,6.12-4.13,0-2.11-1.22-3.16-3.88-3.42l-3.38-.3c-4.1-.34-6.12-2.15-6.12-5.31,0-3.5,2.87-5.78,7.3-5.78a11.90766,11.90766,0,0,1,7.13,2.15l-1.44,1.43a9.40774,9.40774,0,0,0-5.7-1.73c-3.34,0-5.19,1.43-5.19,3.92,0,2.11,1.27,3.16,4.14,3.42l3.29.3c3.38.3,5.95,1.35,5.95,5.31C26.74,271.44027,23.57,273.76025,18.59,273.76025Z" transform="translate(-10.35999 -41.10025)"/><path d="M31,246.18026v-2.66h2.66v2.66Zm.26,27.37v-20.33h2.15v20.33Z" transform="translate(-10.35999 -41.10025)"/><path d="M65.03,273.55026v-12.61c0-3.92-1.98-6.07-5.62-6.07a5.34725,5.34725,0,0,0-5.74,5.69v12.99H51.52v-12.61c0-3.92-1.98-6.07-5.62-6.07-3.63,0-5.74,2.23-5.74,6.07v12.61H38.01v-20.33h2.15v2.4a7.72134,7.72134,0,0,1,6.04-2.66,6.90327,6.90327,0,0,1,6.54,3.71,7.83915,7.83915,0,0,1,6.92-3.71,7.56239,7.56239,0,0,1,5.36,1.94,7.64324,7.64324,0,0,1,2.11,5.65v12.99h-2.1Z" transform="translate(-10.35999 -41.10025)"/><path d="M84.91,272.03027a7.142,7.142,0,0,1-4.98,1.77,6.77139,6.77139,0,0,1-6.04-2.87v12.31H71.74v-30.03h2.15v2.61a6.76135,6.76135,0,0,1,6.04-2.87,7.12386,7.12386,0,0,1,4.98,1.77c2.07,2.07,2.62,5.44,2.62,8.64S86.98,269.97027,84.91,272.03027Zm-5.27-17.16c-4.98,0-5.74,4.3-5.74,8.52s.76,8.52,5.74,8.52,5.74-4.3,5.74-8.52S84.62,254.87027,79.64,254.87027Z" transform="translate(-10.35999 -41.10025)"/><path d="M97.03,273.55026c-3.29,0-4.9-2.11-4.9-5.27v-24.75h2.15v24.71c0,2.28.72,3.42,3.12,3.42h1.48v1.9H97.03Z" transform="translate(-10.35999 -41.10025)"/><path d="M106.4,279.08026a5.23435,5.23435,0,0,1-1.39,2.36,5.53138,5.53138,0,0,1-3.84,1.31h-1.01v-1.9h.8c2.32,0,2.96-.76,3.72-2.78l1.65-4.51-7.43-20.33h2.36l6.12,17.8,6.12-17.8h2.36Z" transform="translate(-10.35999 -41.10025)"/><path d="M145.07,256.47027a4.6587,4.6587,0,0,0-3.84-1.6c-3.5,0-5.45,2.87-5.45,6.16v12.52h-2.15v-20.33h2.15v2.7a6.96724,6.96724,0,0,1,5.95-2.95,6.3997,6.3997,0,0,1,4.9,1.94Z" transform="translate(-10.35999 -41.10025)"/><path d="M189.84,273.55026h-2.2l-5.74-16.95-5.74,16.95h-2.2l-6.5-20.33h2.36l5.19,17.8,5.83-17.8h2.11l5.83,17.8,5.19-17.8h2.36Z" transform="translate(-10.35999 -41.10025)"/><path d="M212.75,273.55026v-2.02c-1.73,1.73-3.34,2.28-6.21,2.28-3,0-4.69-.51-6-1.86a5.8126,5.8126,0,0,1-1.48-3.96c0-3.71,2.66-5.86,7.09-5.86h6.59v-2.28c0-3.25-1.6-4.98-5.74-4.98-2.87,0-4.35.72-5.61,2.57l-1.56-1.35c1.73-2.4,3.88-3.12,7.18-3.12,5.36,0,7.9,2.4,7.9,6.66v13.92h-2.16Zm0-9.7h-6.33c-3.5,0-5.19,1.39-5.19,4.09s1.65,3.96,5.32,3.96c1.86,0,3.63-.17,5.07-1.56.76-.72,1.14-1.98,1.14-3.88v-2.61Z" transform="translate(-10.35999 -41.10025)"/><path d="M230.95,256.47027a4.6587,4.6587,0,0,0-3.84-1.6c-3.5,0-5.45,2.87-5.45,6.16v12.52h-2.15v-20.33h2.15v2.7a6.96723,6.96723,0,0,1,5.95-2.95,6.39968,6.39968,0,0,1,4.9,1.94Z" transform="translate(-10.35999 -41.10025)"/><path d="M249.04,273.55026v-2.61a6.76135,6.76135,0,0,1-6.04,2.87,7.124,7.124,0,0,1-4.98-1.77c-2.07-2.07-2.62-5.44-2.62-8.64s.55-6.58,2.62-8.64a7.142,7.142,0,0,1,4.98-1.77,6.7714,6.7714,0,0,1,6.04,2.87v-12.31h2.15v30.03h-2.15Zm-5.75-18.68c-4.98,0-5.74,4.3-5.74,8.52s.76,8.52,5.74,8.52,5.74-4.3,5.74-8.52S248.28,254.87027,243.29,254.87027Z" transform="translate(-10.35999 -41.10025)"/><path d="M255.51,246.18026v-2.66h2.66v2.66Zm.26,27.37v-20.33h2.15v20.33Z" transform="translate(-10.35999 -41.10025)"/><path d="M276.03,273.55026v-12.61c0-3.92-1.98-6.07-5.61-6.07s-5.74,2.23-5.74,6.07v12.61h-2.15v-20.33h2.15v2.4a7.51382,7.51382,0,0,1,13.51,4.93v12.99h-2.16Z" transform="translate(-10.35999 -41.10025)"/><rect x="293.03999" y="229.48001" width="2.66" height="2.66"/><path d="M296.42,253.23025v2.61a6.76135,6.76135,0,0,0-6.04-2.87,7.124,7.124,0,0,0-4.98,1.77c-2.07,2.07-2.62,5.44-2.62,8.64s.55,6.58,2.62,8.64a7.142,7.142,0,0,0,4.98,1.77,6.7714,6.7714,0,0,0,6.04-2.87v3.63c0,3.87-1.78,6.83-5.74,7.02v1.9c5.01-.2,7.89-3.83,7.89-8.8v-21.46h-2.15Zm-5.74,18.68c-4.98,0-5.74-4.3-5.74-8.52s.76-8.52,5.74-8.52,5.74,4.3,5.74,8.52S295.66,271.91027,290.68,271.91027Z" transform="translate(-10.35999 -41.10025)"/><polygon points="277.58 242.39 277.58 240.48 280.67 240.48 280.32 242.39 277.58 242.39"/><path d="M162.23,254.86026a7.48587,7.48587,0,0,0-10.46,0c-1.76,1.76-1.91,3.6-1.93,7.23h-2.51v1.94h2.51c.01,3.74.14,5.6,1.93,7.39a7.24664,7.24664,0,0,0,5.23,2.13c.07,0,4.22-.01,4.29-.02v-1.95c-.07,0-4.22.02-4.29.02a4.96461,4.96461,0,0,1-3.54-1.47c-1.2-1.23-1.41-2.51-1.44-6.1h12.13v-1.94h0C164.14,258.48025,163.99,256.62027,162.23,254.86026Zm-8.77,1.3a4.99747,4.99747,0,0,1,7.08,0c1.18,1.2,1.4,2.49,1.43,5.94h-9.94C152.06,258.63028,152.28,257.36026,153.46,256.16027Z" transform="translate(-10.35999 -41.10025)"/></svg>