<svg xmlns="http://www.w3.org/2000/svg" viewBox="0 0 328.4 196.5"><defs><style>.a{fill:#ae1e22;}.b{fill:#77485b;}</style></defs><path class="a" d="M217.1,120h.4c-.1-.1-.2,0-.4,0Z"/><path class="a" d="M326.2,0H2.2A2.22,2.22,0,0,0,0,2.2V150.8A2.22,2.22,0,0,0,2.2,153h324a2.22,2.22,0,0,0,2.2-2.2V2.2A2.289,2.289,0,0,0,326.2,0ZM105.8,117.6a2.28,2.28,0,0,1,.2,2.1,1.6,1.6,0,0,1-1.4.8h-4a2.083,2.083,0,0,1-2.1-1.3l-18.8-33-3.5-5.7h.7c11.6,0,24.4-8.8,24.4-21.5,0-11.4-10.1-20.7-22.6-20.7H52l-.1,80a2.126,2.126,0,0,1-2.4,2H47.2a2.094,2.094,0,0,1-2.1-2V33.9a2.03,2.03,0,0,1,2.1-2h32c16.4,0,29.2,12,29.2,27.2,0,12.2-8.5,22.8-21.1,26.4Zm84.5,1.1a2.195,2.195,0,0,1-2.4,2.1H139.1a2.433,2.433,0,0,1-2.4-2.4V33.9a2.433,2.433,0,0,1,2.4-2.4h2.8a2.416,2.416,0,0,1,2.3,2.4V114h43.6c2.4,0,2.4,1.7,2.4,2.4v2.3Zm93-.4a2.311,2.311,0,0,1-2.4,2.4h-2.7a2.433,2.433,0,0,1-2.4-2.4V79.8H219.6v38.5a2.311,2.311,0,0,1-2.4,2.4h-2.7a2.433,2.433,0,0,1-2.4-2.4V34.2a2.433,2.433,0,0,1,2.4-2.4h2.7a2.311,2.311,0,0,1,2.4,2.4V73.1h56.2V34.2a2.433,2.433,0,0,1,2.4-2.4h2.7a2.311,2.311,0,0,1,2.4,2.4Z"/><path class="a" d="M217.1,32.6h0Z"/><path class="b" d="M58.8,190.7h-3c-.9,1.9-2.2,2.9-4,2.9a3.83,3.83,0,0,1-1.9-.5,3.482,3.482,0,0,1-1.3-1.1,3.7,3.7,0,0,1-.8-1.8,44.2,44.2,0,0,1,0-8.4,3.7,3.7,0,0,1,.8-1.8,4.735,4.735,0,0,1,1.3-1.1,5.3,5.3,0,0,1,1.9-.5,3.917,3.917,0,0,1,2.6.9,4.867,4.867,0,0,1,1.4,2.1h3a7.617,7.617,0,0,0-2.3-4.2,7.339,7.339,0,0,0-4.7-1.8,6.052,6.052,0,0,0-3.9,1.2,6.754,6.754,0,0,0-2.3,2.5,7.711,7.711,0,0,0-.7,2,44.222,44.222,0,0,0-.2,4.9,43.372,43.372,0,0,0,.2,4.8c.1.4.2.8.3,1.1s.3.6.4.9a7.723,7.723,0,0,0,2.3,2.5,7.815,7.815,0,0,0,3.9,1.2,7.177,7.177,0,0,0,4.5-1.5A8.784,8.784,0,0,0,58.8,190.7Z"/><path class="b" d="M81.7,179.2a6.078,6.078,0,0,0-2.3-2.5,6.9,6.9,0,0,0-3.9-1.1,6.667,6.667,0,0,0-3.9,1.1,6.754,6.754,0,0,0-2.3,2.5,7.711,7.711,0,0,0-.7,2,57.7,57.7,0,0,0,0,9.6c.1.4.2.8.3,1.1a3.552,3.552,0,0,0,.4.9,7.723,7.723,0,0,0,2.3,2.5,7.5,7.5,0,0,0,3.9,1.2,6.052,6.052,0,0,0,3.9-1.2,7.723,7.723,0,0,0,2.3-2.5,5.223,5.223,0,0,0,.7-2,57.7,57.7,0,0,0,0-9.6A7.711,7.711,0,0,0,81.7,179.2Zm-2.2,11a4.281,4.281,0,0,1-.8,1.8,3.611,3.611,0,0,1-1.3,1.1,3.939,3.939,0,0,1-2,.5,3.83,3.83,0,0,1-1.9-.5,3.482,3.482,0,0,1-1.3-1.1,3.7,3.7,0,0,1-.8-1.8,44.2,44.2,0,0,1,0-8.4,3.7,3.7,0,0,1,.8-1.8,4.735,4.735,0,0,1,1.3-1.1,5.3,5.3,0,0,1,1.9-.5,4.228,4.228,0,0,1,2,.5,6.885,6.885,0,0,1,1.3,1.1,3.7,3.7,0,0,1,.8,1.8,44.2,44.2,0,0,1,0,8.4Z"/><path class="b" d="M100.3,187.4l4.1,8.8h3.3l-4.6-9.2.1-.1a5.658,5.658,0,0,0,3.8-5.7,5.372,5.372,0,0,0-2-4.3,5.843,5.843,0,0,0-4-1.3H93.2v20.6H96v-8.9l4.3.1Zm-4.2-2.6v-6.6H101a3.174,3.174,0,0,1,2.3.7,3.116,3.116,0,0,1,1.1,2.5,3.583,3.583,0,0,1-.9,2.4,3.387,3.387,0,0,1-2.7,1.1H96.1Z"/><path class="b" d="M130.6,186.1a6.4,6.4,0,0,0,1.6-4.1,6.527,6.527,0,0,0-.6-2.9,6.183,6.183,0,0,0-1.5-2,6.008,6.008,0,0,0-2.2-1.2,16.412,16.412,0,0,0-2.3-.2h-7.2v20.6h2.8v-8.1H126A6.079,6.079,0,0,0,130.6,186.1Zm-9.3-.7h-.1v-7h4.5a4.383,4.383,0,0,1,2.3.6,2.66,2.66,0,0,1,1,1.1,4.844,4.844,0,0,1,.3,1.8,4.069,4.069,0,0,1-.8,2.4,3.387,3.387,0,0,1-2.7,1.1h-4.5Z"/><path class="b" d="M153.7,179.2a6.078,6.078,0,0,0-2.3-2.5,6.9,6.9,0,0,0-3.9-1.1,6.667,6.667,0,0,0-3.9,1.1,6.754,6.754,0,0,0-2.3,2.5,7.711,7.711,0,0,0-.7,2,57.7,57.7,0,0,0,0,9.6c.1.4.2.8.3,1.1a3.552,3.552,0,0,0,.4.9,7.723,7.723,0,0,0,2.3,2.5,7.5,7.5,0,0,0,3.9,1.2,6.052,6.052,0,0,0,3.9-1.2,7.723,7.723,0,0,0,2.3-2.5,5.223,5.223,0,0,0,.7-2,57.7,57.7,0,0,0,0-9.6A3.971,3.971,0,0,0,153.7,179.2Zm-2.1,11a4.281,4.281,0,0,1-.8,1.8,3.611,3.611,0,0,1-1.3,1.1,3.939,3.939,0,0,1-2,.5,3.83,3.83,0,0,1-1.9-.5,3.482,3.482,0,0,1-1.3-1.1,3.7,3.7,0,0,1-.8-1.8,44.2,44.2,0,0,1,0-8.4,3.7,3.7,0,0,1,.8-1.8,4.735,4.735,0,0,1,1.3-1.1,5.3,5.3,0,0,1,1.9-.5,4.228,4.228,0,0,1,2,.5,6.885,6.885,0,0,1,1.3,1.1,3.7,3.7,0,0,1,.8,1.8,44.2,44.2,0,0,1,0,8.4Z"/><path class="b" d="M172.1,187.4l4.1,8.8h3.3l-4.6-9.2.1-.1a5.658,5.658,0,0,0,3.8-5.7,5.372,5.372,0,0,0-2-4.3,5.843,5.843,0,0,0-4-1.3H165v20.6h2.8v-8.9l4.3.1Zm-4.2-2.6v-6.6h4.9a3.174,3.174,0,0,1,2.3.7,3.116,3.116,0,0,1,1.1,2.5,3.583,3.583,0,0,1-.9,2.4,3.387,3.387,0,0,1-2.7,1.1h-4.7Z"/><path class="b" d="M198.7,191.6l1.6,4.7h3l-7.2-20.6h-2.4l-7.2,20.6h3l1.6-4.7Zm-7-2.7,2.9-9.2h.2v.1l3,9.3h-6.2Z"/><path class="b" d="M220.6,175.7H206.7v2.5h5.5v18.1H215V178.2h5.6Z"/><rect class="b" width="2.8" height="20.6" transform="translate(230.3 175.7)"/><path class="b" d="M258.3,179.2a6.078,6.078,0,0,0-2.3-2.5,6.9,6.9,0,0,0-3.9-1.1,6.667,6.667,0,0,0-3.9,1.1,6.754,6.754,0,0,0-2.3,2.5,7.711,7.711,0,0,0-.7,2,57.7,57.7,0,0,0,0,9.6c.1.4.2.8.3,1.1a3.552,3.552,0,0,0,.4.9,7.723,7.723,0,0,0,2.3,2.5,7.5,7.5,0,0,0,3.9,1.2,6.052,6.052,0,0,0,3.9-1.2,7.723,7.723,0,0,0,2.3-2.5,5.223,5.223,0,0,0,.7-2,57.7,57.7,0,0,0,0-9.6A7.711,7.711,0,0,0,258.3,179.2Zm-2.2,11a4.281,4.281,0,0,1-.8,1.8,3.611,3.611,0,0,1-1.3,1.1,3.939,3.939,0,0,1-2,.5,3.83,3.83,0,0,1-1.9-.5,3.482,3.482,0,0,1-1.3-1.1,3.7,3.7,0,0,1-.8-1.8,20.824,20.824,0,0,1-.2-4.2,33.25,33.25,0,0,1,.2-4.2,3.7,3.7,0,0,1,.8-1.8,4.735,4.735,0,0,1,1.3-1.1,5.3,5.3,0,0,1,1.9-.5,4.228,4.228,0,0,1,2,.5,6.885,6.885,0,0,1,1.3,1.1,3.7,3.7,0,0,1,.8,1.8,35.873,35.873,0,0,1,.2,4.2A21.969,21.969,0,0,1,256.1,190.2Z"/><path class="b" d="M271.8,181.5l9.1,14.8h2.7V175.7h-2.8v14.8h-.2l-.1-.1-9.1-14.7h-2.6v20.6h2.8V181.5Z"/></svg>