<?xml version="1.0" encoding="UTF-8"?>
<svg width="24px" height="24px" viewBox="0 0 24 24" version="1.1" xmlns="http://www.w3.org/2000/svg" xmlns:xlink="http://www.w3.org/1999/xlink">
    <title>121B5FB0-B6FC-4629-85A4-7CDF8BACC217</title>
    <g id="Multi-Room" stroke="none" stroke-width="1" fill="none" fill-rule="evenodd">
        <g id="4" transform="translate(-191.000000, -1675.000000)">
            <g id="Special-Requests" transform="translate(191.000000, 1674.000000)">
                <g id="request" transform="translate(0.000000, 1.000000)">
                    <polygon id="Path" points="0 0 24 0 24 24 0 24"></polygon>
                    <path d="M21.99,4 C21.99,2.9 21.1,2 20,2 L4,2 C2.9,2 2,2.9 2,4 L2,16 C2,17.1 2.9,18 4,18 L18,18 L22,22 L21.99,4 Z M18,14 L6,14 L6,12 L18,12 L18,14 Z M18,11 L6,11 L6,9 L18,9 L18,11 Z M18,8 L6,8 L6,6 L18,6 L18,8 Z" id="Shape" fill="#404040" fill-rule="nonzero"></path>
                </g>
            </g>
        </g>
    </g>
</svg>